<?xml version="1.0" encoding="UTF-8"?>
<svg id="Layer_2" data-name="Layer 2" xmlns="http://www.w3.org/2000/svg" viewBox="0 0 711.86 543">
  <defs>
    <style>
      .cls-1 {
        fill: #72aeb6;
        stroke-width: 0px;
      }

      .cls-2 {
        fill: #bcbcbc;
        stroke-miterlimit: 10;
        stroke-width: .25px;
      }

      .cls-2, .cls-3 {
        stroke: #fff;
      }

      .cls-3 {
        fill: none;
        stroke-linecap: round;
        stroke-linejoin: round;
        stroke-width: 3px;
      }
    </style>
  </defs>
  <g id="Afghanistan">
    <g>
      <path class="cls-3" d="M693.14,91.87l.25.37.09.42-.06.45-.19.47-.34,1.96-.79.23-.97-.86-.89-1.33-.16-.18-.18-.15-.97-.31-1.05.07-2.04.57-1.28,1.06-4.11,2.62-2.41,1.97-1.18.43-3.23-.4-.8.2-.71.55-.32.86-.24,2.11-.47.62-2.9.96h-1.42s-1.46-.57-1.46-.57l-1.46-.37-4.03-2.56-1.53-.63-3.01-.56-3-.13h-.02s-.01,0-.01,0h-.08s-3.41-.15-3.41-.15l-6.43,1.1-1.6-.26-1.53-.22-3.25.45-2.36-.17-2.46.87-.71.09-.73-.09-1.44-.39-1.56-.17-7.35.79-.8.3-1.18.82-.58.28-.68-.03-1.52-.62-1.22.3-1.19.64-1.43.4-4.35.22-4.11-.61-3.26.23-3.17.76-2.39,1.23-3.08,2.62-1.03.28-2.25-.15-2.02.67-2.18.13-4.35,1-2.16.93-.8.57-.19.78.74,1.18.35,1.01-.86.5-2.86.4-1.24.41-.58.32-.43.52.09.51.2.52-.07.55-.79.76-2.02.49-1.02.58-.79.82-2.33,1.35-.68.57-.6.63-.64.55-.79.3-3.19.21-1.01.65.07,1.93.83,1.66.14.84-.58.68-.77.29-.78.04-.72-.29-1.45-1.56-2.83-1.92-.99-.41-.92.1-.48.53-.59,1.89-.41.99-.4.65-1.24,1.23-.24.93.51.94.28.8-.96.52-1.2.25-.93.34-.82.56-3.76,4.22-1,.78-3.12,1.1-.25.4-.24,1.3-.34.57-.46.33-1.5.72-1.93,1.26-.26.45-.25,1.29-.25.56-1.59,1.61-.47.94.2.91.05.23.54.5,1.77.98.69.53,1.26,1.36,1.32.55,1.39.31,1.43.62.73.86.21,1.99.52.92,2.23,1.6.7.92,1.64,2.97.32.9.06.6-.05.52v.55s.22.68.22.68l.28.42.73.58.33.34.62,1.06.22,1.07-.28,1.1-.89,1.15-.62,1.21.46,1.03.99.8,2.71,1.34.8.61.46.9-.03,1.16-.34,1.09-.21,1.15.3,1.34.28.41.36.53.65.74.42.82-.08,1.18-.48.89-2.4,2.11-1.51,1.97-.09,1.63.88,1.52,2.73,3.15,1.5,1.22.21.81-.43,1.18-1.24,1.92-3.4,2.38-1.28,1.6-.07,2.63.27.61-.08.57-.35.49-.53.39h0s-.39.64-.39.64l-.43,1.39-.35.64-.47.42-.72.3-5.92,2.41-1.74,1.35-.92,1.84-.75,2.04-2.59,3.72-.67.67-1.9,1-3.46,2.84-.51.7-.07.91.37,1.34.18,1.24-.16,1.46-.53,1.2-.9.44-2-.31h-1.04s-.12.06-.12.06l-.72.33-.57,1.06-.07,1.31.27,1.34.47,1.12,1.02,1.54,1.39,1.71,1.53,1.47,3.5,1.97.21,1.47-1.44,4.16v1.08s.47,2.08.47,2.08l.14,1.2-.07,1.43-.31.8-1.37,1.58-.55,1.19.05.97.17.95-.23,1.11-.78.74-2.41.51-1.01.35-.56.81-.58.53-.7.23-.91-.08-1.32-.42-.49.14-.21.76-.87,1.75-3.49.67-6.65-.07-6.6.95-1.5-.05-4.06-.88-3.97-.17-.9-.26-1.69-.86-2.79-.27-10.63-3.75-1.66-.12-2.61.41-1.32.46-.82.83-.11.94.17.89-.09.88-.87.9-.65.86.3.88,1.44,1.45.44.78.66,2.25.43.94,1.17,1.73.43.89.35,1.15.51,1.14.75.46,1.17.16.76.1,2.64,1.14,2.1-.37.49.64.41,2.34.29.92.21.3.45.38.81.39.38.27.19.39-.03,1.43-1.01,3.73-.08,1.12.18,1.14.43,1.06.68.9.39.26,1.37.45.35.31.36.95.25.43,2.59,2.93.78,1.83-.35,1.93-8.35,7.06-.96.54-1.07-.09-1.17-.4-.58.23-1.65,3.13-.38.53-.6.26-1.43-.12-.49.1-3.68,2.26-2.08.15-3.29-1.65-1.91.32-2.31,1.68-.9.22-.44-.08-.42-.2-.47-.14-1.59.3-1.01-.03-1.98.27-1.64,1.08-1.3,1.66-.47,1-.47,1,.92,6.36-.49,1.7-.29.27-1.27.97-1.21,1.69-1.67,1.26-.53.79.09,1.14.25.46.35.38.43.29.42.18.34.26.13.44.09,1.03.49,1.94-.15.72-.6,1.15-2.59,3.91-.87.73-2.04.72-.99.64-1.5,1.88-.92,2.21-.24,2.41.52,2.51,1.27,3.26.18,1.22-.06,1.27-.34,2.49-.02,2.46-.38,2.46-.04,1.26.96,5.5,1.55,4.41.13.75-.18.33-.11.21-2.36,1.78-1.34,1.46-5.39,8.35-.7.8-.75.48-.65,1.04-1.55,1.43-1.77,1.27-1.32.56-1.79-.13-1.67.54-3.12,1.61-1.95.23-1.31-.93-2.27-3.29-1.27-1.49-.37-.85-.15-2.34-.33-.71-.62-.35-2.77-.51-2.87-1.64-1.65-.65-1.1.02-1.16.4-2.13,1.14-.96.75.17.57.85.38,1.08.17,2.94-.07.95.13.45.52-.64.72-1.07.64-.84.27-1.82-.3-5.16-1.85-1.95-.16-1.95.09-1.08-.16-.61-.61-.51-.77-1.25-1.03-1.09-.6-1.26-.45-1.01.07-.63.76-1.05,2.47-.3.56-.24.44-1.62,1.5-.24.52-.16,1.22-.28.41-2.58,1.44-.82.67-.55.79-.53.29-1.99.11-1.5-.25-.67.03-1.38.68-3.03,3.43-1.62,1.14-1.06.75-1.5.61-1.52.16-3.2-.71-1.55.04-.63,1.02.36.86.72.87.64,1,.29,2.26.71.86.98.62.97.28,4.09-.55,1.77.58.23,2.42-.51,1.08-.75.35-1.99-.07-.8.24-.68.5-.64.6-3.14,2.02-.91.34-2.63.49-1.82.79-2.92.4-3.41,1.46-.91.17-3.15-.29-2.55.12-.81-.1-1.01-.36-1.8-1-.98-.3-.98.04-1.89.48-1-.02-1.13-.21-.61-.2-.37-.3-.07-.46.2-.35.27-.35.12-.47-.1-1.28-.35-.8-.72-.39-2.89.07-1.84.53-3.32,1.64-1.47,1.28-1.15,1.32-1.27.98-1.88.26-1.2.83-1.67,6.48-.94,1.32-4.62,4.78-1.11.5-6.65,1.36-.83.45-.45.79-4.84,18.41-.15,2.49.84,2.27,1.19,1.54.38.73.28,1.17.12,1.17-.93,7.53.11,3.45-.22,1.09-3.18,6.49-.72,2.15-.12.9.29.76,1.73,1.21,2.02,2.07,1.52,1.17.4.54-.18.26-.41.14-.3.17-1.02,1.75-1.31,1.73-3.92,2.83-4.19,1.23-2.86.84-2.86.84-2.86.83-2.85.84-2.86.84-2.86.84-2.86.84-2.86.84-2.86.84-2.86.84-2.85.84-2.86.84-2.85.84-2.86.84-2.86.84-2.86.83-7.14,2.09-2.45-.08-8.18-1.49-6.71-.05-9.07-.08h-1.07s-13.28,3.97-13.28,3.97l-1.73.89-1.12,1.46-1.79,3.51-1.34.55-5.61-2.43-9.06-1.75-10.79-2.09-7.51.71-2.42.23-2.41.23-2.42.23-2.41.23-2.41.23-2.42.22-2.41.23-2.41.23-2.42.23-2.41.23-2.42.23-2.41.22-2.41.23-2.41.23-2.41.23-2.41.23-1.42.13-6.15.58-5.07-.96-4.68-1.5-4.09-1.32-4.1-1.32-4.1-1.32-4.09-1.32-4.1-1.32-4.1-1.33-4.1-1.32-4.09-1.32-4.09-1.32-4.1-1.33-4.09-1.32-4.1-1.33-4.09-1.32-4.09-1.33-4.1-1.33-4.09-1.32-3.51-1.13-1.56-.72,2.84-3.33,3.74-4.39h.02s7.61-9.11,7.61-9.11l4.06-4.86,2.78-3.34,5.32-6.39,4-4.81,5.64-6.82,6.22-7.53,4.06-4.92.84-.9-.12-.31-.07-.06.07-1.03.12-.4.29-.17-.19-3.92-.21-.67.94-1.87.35-1.21v-1.13s-.24-1.14-.24-1.14l-.6-1.88-.86-1.83-.12-.6-.08-1.68-.42-1.29-1.32-2.19-.48-1.17-.02-1.15.34-2.47-.34-1.07-1.76-2.24-.97-.77-1.27-.5-2.7-.39-5.68-.83-9.65-1.42-8.35-1.23h-.08s-8.24-1.22-8.24-1.22l-4.97-.73-1.64-.69-.58-5.41-.74-2.79-.12-1.35.63-4.27-.68-5.36-.11-2.81.37-3.58-.09-1.26-.19-.62-.24-.57-.1-.6.42-1.28-.29-.33-.41-.24-.17-.36.38-.89,1.29-1.66.3-.97.66-4.62.1-4.74-1.67-6.23-2.17-8.08-2-6.76-1.81-6.15-1.71-5.85-1.67-5.67-1.41-4.81-.72-3.75-.07-4.64.3-.82,2.38-3.23,2.68-3.62,2.4-3.26,1.87-2.55,1.42-1.26,1.61-1.01.51-.67.27-1.18-.09-1.01-.17-.98.14-.85.87-.58,2.33-.16.73-.27.38-.65.05-.09-.44-.85-.83-.75-.76-.45-1.65-.42-1.9-.14-3.62.2-3.85-.3-3.97-1.65-3.1-2.99-1.23-4.32.4-1.94,1.52-3.44.11-2.33-1.41-9.06-.54-5.15-.08-.79.29-2.66,1.38-2.8,1.55-2.02,1.72-1.8,2.34-1.25.77-.84-.34-1.27,3.48-.21,5-.31,3.67-.22-.56-1.12-3.65-4.76-.78-1.55-.48-.69-.6-.54-1.21-.56-.44-.42-.42-1.42-.32-.41-.42-.24-.52-.08.72-1.26,1.23-.63,2.7-.36,1.23-.35.96-.66,2.23-2.56.25-.48.32-.4.66-.38.69-.11.64.05.57-.14.51-.68.2-1.46-.16-1.55.06-1.41.89-1.04,1.56-1.22.96-1.72.28-.99,1.51-.51.39-1.98.21-2.12-.04-.52-.22-1.12-.05-.61.16-.75.7-1.13.15-.57.16-1.17.72-2.25.3-2.48.36-.86,1.19-1.68-.52-.55-.08-.49.13-.53.1-.68-.14-.25-1.75-2.37-.25-.6.3-.27.49-.26.02-.58-.24-.58-.27-.26-.04-.59.04-1.29.29-1.28.71-.59,1.05-.02,1.17-.2.95-.54.39-1.07-.23-3.1.23-1.24.28-.67,1.03-1.39.27-.62.43-1.89.54-1.16,1.15-1.41.66-1.14.31-1.26-.12-1.22-.52-2.48-.36-.56.67-.25,2.58-.5h.42l.36.19.46.41-.04.16-.42.68.61.54.08-.02.11.03.78.7.02.26-.19.65.02.24.33.47.31.36.4.23.56.09.33.15.41.18,3.2,2.94,2.26,2.53,3.25,1.31,6.64,1.02,2.92-.22,5.92-2.08,2.87.06,1.46.72,1.3.9,5.04,4.99,1.36.92,2.71,1.2.72.75.52.95.34,1.07.07,1.06-.08,2.44.29.91.93,2.17.52.63.78-.41,4.79-6.53,1.6-1.49,1.33-.07,3.23,3,.54.29.49-.04.49-.14.53-.02,1.45.61.44.07.81-.2,3.57-1.55.74-.46.64-.63.62-.86,1.29-1.31,3.08-1.51.22-.11,4.46-3.55,3.3-1.59,1-.23,2.04-.18.97-.26.66-.69.3-1.12.21-2.29.5-1.9-.17-.63-.82-.67-.16-.74-.12-3.09.08-.9,1.3-1.29,3.78-1.24,1.37-1.01.29-.55.04-.42-.25-.32-1.25-.48-.33-.28-.69-.93-2.52-2.28-.31-.79-.22-1.07-.49-.77-.34-.77.21-1.05.76-.79,1.04-.23,10.71.24,4.29-.9,3.98-1.87.73-.66,1.16-1.6.68-.7.92-.51.99-.22,6.07-.38,1.98-.51,4.62-2.73,1.47-.46.81-.13.77-.12,1.38.3,4.68,1.83.02-.76-.45-2.88v-1.09s.41-.97.41-.97l.62-.79,3.25-2.49,1.74-.87,1.83-.34,2.03.33.82.34.61.14.49-.41.78-2.45.58-.74.75-.5.9-.38,3.62-.85,1.66-.62,1.63-1.32,1.01-1.21,3.86-6,.87-2.11.56-2.26.23-2.44-.13-1.27-.69-2.34-.23-1.25v-1.24s.15-1.26.15-1.26l.63-2.42.81-1.97,5.27-9.7,1.8-3.33.67-2.08-.2-2.41-.94-4.69.22-2.4.92-1.57,1.43-1.08,8.92-4.83,3.64-1.21,20.9-.54.66-.02,1.74-.92,2.28-3.15,1.38-1.42.63-.87.26-1.26-.03-1.37-.39-2.66.23-1.39.49-1.32.61-1.22h0s0-.02,0-.02l.51-1,.5-.64.6-.36.85-.19,2.02.02.65-.55.31-1.63.13-.89.74.34.98.22.39.25.82,1.87.39.59.34.4.94.7,11.05,4.16.9.77,1.37,1.84.85.85.99.51.57.09,1.63-.09.53.13.69.58.46.13.44.23.34.17.82.84.99.75,1.29.13,3.39-1.12,1.17-.15.5.24.74,1.1.61.31.51-.09.42-.33.75-.84.87-.76.82-.53.96-.3,1.26-.1,1.18.14,3.25,1.38.61.11,1.33.06.52-.19.97-.84.52-.2,6.44-.29,4.52-1.07,2.38.05.9.43,1.97,1.42,1.03.31.61.56.81,2.69.46.94.99.62,2.18.84.99.91.49,1.06.36,1.15.56.94,1.1.45,1.1-.22,1.88-1.22,1.26-.28,1.2-.1,1.07-.3.99-.51.98-.73,1.62-1.64.91-.69,1.02-.28,1.13.56.93,2.56.81.72.53-.2.38-.59.3-.61.31-.28.51-.07.94-.29.56-.07.56.18,1.07.82.54.28.62.08,1.76-.08,1.02.26.87.53.58.82.22,1.15-.42,3.95.05.92.61.83,1.12.82,1.22.63,2.23.53.68.76.52,1.09.78,1.27.53.47,1.16.62.44.39,1.69,2.1.29.51.2.54.25.48.45.32h.23s.39.03.39.03l.59-.24.5-.33,3.25-2.81.61-.39.92-.39.79-.82.91-.75,1.29-.18,2.03.68h1.18s.52-.87.52-.87l-.33-2.59-.04-1.24.37-1.02.93-.68.95.07.96.38.97.23,1.28-.14.96-.49.32-.92-.7-1.44,3.05-.23,2.34-.53.52-.04.44-.27.68-1.19.24-.27.98-.13,1.84-.58.89-.13.19-.47.28-.99.6-.89,1.11-.17-.28-.75-.14-.27-.25-.24.56-.66.89-.04,1.92.28,1.01-.11.64.06.57.28,1.83,1.18.58.04.21-.6-.13-1.32-.58-1.86.18-.7,1.08-.35,1.03.26.55.79.44.99.65.87.71.33.55-.15.26-.55-.17-.9-.23-.27-.8-.6-.32-.4-.26-.74.14-.2.28.06.17.07,3.36.42.97.54,1,.92.77,1.09.72,2.25.98.89,1.12.74.89.75.88,2.2.46.51,1.09.76.26.12,4.66,3.16.99-.09.98-.46,1.13-.24.17-.04.58-.22.53-.5.79-.93,1.99-1.27.81-.79,1.69-2.85.15-.79-.9-.19-.84-.38.4-1.36-.4-.56-.33-2.13-.42-.92-.25-.42-.15-.53-.08-.58-.02-.57.07-.19.13-.04.12-.1.02-.33-.14-.27-.46-.12-.09-.22-.04-2.37.1-1.15.3-.98.25-.34.71-.5.38-.35.19-.31.31-.74.18-.29,2.18-1.61,1.07-1.05.85-2.61.98-.44,6.71.61,1.1-.21,2.08-.9,1.22-.16.39.05,1.09.33.36.27.51.29.51-.27.51-.44.49-.23,1-.28,2.06-1.05,1.16.06.81.71.46.99.53.88,1.04.38.64.13.25.31.19.41.28.26.17.16.46.18,1.53.28-.31-.46,1.35.23,1.47.54,1.48.27,1.41-.57,1.71-2.15.33-.2.12-.54.71-1.81.1-.02.95-.04.16.06.25-.26.11-.13.28-.46.06-.41-.07-.57-.02-.5.2-.22.24-.17.62-.91.09-.78.17-.5.12-.55-.06-.92-.5-1.81-.11-.87.27-.72-.47-.44-.45-.66-.33-.81-.13-.89-.34-.52-1.62-.5-.56-.27-.83-1.3-.69-1.82-.23-1.92.57-1.59.99.82,1.11.23,1.15-.19,1.15-.43-.39-.51-.17-.51v-.53s.19-.58.19-.58l.34-.19.58-.11.54-.23.24-.56.25-.33.24-.13.95-.51.41-.31,2.21-2.94,2.17-2.26.52-.38,1.68-.73.5-.52.61-1.05,1.28-3.45,1.45-2.85.46-1.54.6-.35.67-.18.49-.25.67-2.14v-.53s-.05-.64-.05-.64v-.65s.22-.56.22-.56l.46-.26,1.12.07.46-.26,1.74-1.3.4-.74-.98-.75v-.43l.91-.58,2.88-.31.61-1.07.34-.44.8-.18h1.56s.45.09.45.09l.79.28.44.03.33-.17.19-.29.28-.27.57-.1,2.03.98,1.18.29.52-.64-.16-1.43.36-.45,1.15-.04.63.17.56.33.51.44.5.55.29.5.41,1.15.32.52.51.42.36-.02.38-.18.59-.02.61.15,1.38.7,1.9,1.41,3.04,3.16,4.06,1.7,1.69,1.13,1.17,1.84.31,2.78-.27,1.42-.89,2.7-.32,1.83-.91,1.78-.67,2.56-1.46,2.77-.33,1.59-.5,1.41-.06.66.18.8.26.13.38-.11.52.07,1.87,1.52,1.05.45.98-.54.9-.68,6-2.08,1.76.11,1.49,1.02,1.5,1.85-.37.43.15.75.08,1.36-.04,1.48-.19,1.12-.77,1.1-1.82,1.18-.41,1.11.08.58.45,1.32.11.68-.08.61-.56,1.94-.23,1.92-.13.63-.24.52-.6.82-.18.35-.21,2.72.69,5.01-.48,2.49-.55,1.39-.15.89.37,2.38.09,2.61-.13,1.3-.3.78-.04,1.73-1.82,3.11.18,1.49-.34.56-.28.94-.39,2.54-.1,3.72.1.76.29.66.85,1.33.17.73v2.52l.15,1.34.43,1.11,2.79,4.55.49,1.23.34,2.83.37,1.25.54,1.16.66,1.07,1.66,1.74,2.06,1.09,2.31.51h2.39l2.42-.46,1.92-.8,14.28-10.67,1.29-1.41,1.67-.97.45-.47.71-1.08.49-.55,1.94-1.34,4.98-2.03,2.21-.46,3.4.63,1.66-.84,7.33-1.09.44-.59.3-1.19,2.05-3.23,2.29-4.79,1.46-2.02,1.96-1.21,2.31-.44,1.22-.43,1.08-1.3,3.51-2.13,3.54-.36,1-.68.56-.85.84-1.81.77-.95,1.88-1.48.43-.15,1.06.41.53-.25,2.4-2.59.78-.58,1-.34,1.23-.13,1.17.16.83.5.81.24,3.06-1.7,2.2-.06,5.89,2.18,3.42.91,2.13-.05,1.75.21-.32,1.57-.06.51v2.6s-.34.9-.34.9l-.83.98-.85.71-.72.35-1.89.19-1.03.38-1.04.9-.62,1.21.21,1.29.79.48,2.08-.65,1.01.08.37.34.71.97.34.26.53-.03.8-.62.49-.18,1.11.1.75.19.7-.16,1.87-1.74.99-.3,2.11-.24,2.77-1.32,1.04-.22,3.71-1.36,5.47-1.1,1.2-.51.91-1.07.08-2.12.8-.83,1.3-.02,1.43.38,1.2-.16.58-1.66.26.81.57-.4.56-.04.48.32.72,1.21.49.16.55.02,1.42.26.86-.2.93-.08,1.07.47,1.77.55.42.1h.43s5-.34,5-.34l1.42-.8,6.31,3.89,1.39,1.5,2.25,3.85,1.46.83-3.9.97-.94.09-.53-.35-1.93-4.25-.33-.48-.78-.1-.6.43-.51.65-1.11,1.03-.26.15-.98.11-.23.3-.16.4-.64.62-.14.25-.19.22-.41.15-.29-.11-.62-.65-.32-.16-.69.08-2.15.61-1.58.04-.63.35-.52.98-.44,1.24-.54.78-.74.42-1.05.15-1.87-.25-.69.31-.11,1.19.81,1.31,1.57,1.16,3.06,1.52.86,1.03.57,1.2.66,1.04,1.14.53Z"/>
      <path class="cls-2" d="M351.79,125.3s-102.66-11.14-110.64-12.18c-.34-.04-.69-.03-1.03.06-8.4,2.14-12.17,7.55-12.17,7.55,0,0-68.35,84.62-68.48,84.92-.31,6.7,3.44,8.46,3.44,8.46l36.56,5.38c9.54-3.11,6.54-10.05,6.51-9.65-7.34-13.89,3.74-21.61,3.64-21.38,36.43-37.73,97.96-39.77,97.8-39.71,11.31-.61,16.73,11.79,16.76,12.34,1.94,8.5,11.5,3.1,11.5,3.1,0,0,22.77-29.97,22.12-29.71,2.83-7.97-6-9.19-6-9.19ZM351.8,135.28c.2.17-19.35,24.54-19.35,24.54,0,0-4.08,3.17-4.64-2.86.52.36-3.6-15.41-30.27-12.92.13.33-33.3-.32-82.32,32.09-.33.13-15.95,12.54-16.95,26.41,0,0,2.61,8.94,2.87,8.94.46,0,.11,3.12-1.92,2.42l-32.37-3.79s-4.61-.15-1.35-5.52c.26.02,66.96-81.9,66.96-81.9,0,0,7.63-5.5,12.8-5.2,1.98.21,104.52,12.79,104.52,12.79,0,0,5.76-.44,2.03,4.99Z"/>
      <path class="cls-2" d="M335.66,189.6c-.04-.09-.08-.18-.13-.27-6.69-14.09-13.47-28.14-20.34-42.15-1.48.61-2.95,1.21-4.43,1.82,6.77,14.51,13.55,29.01,20.32,43.52.32.7.66,1.45.5,2.2-.16.77-.79,1.35-1.4,1.85-10.97,9.18-24.06,15.42-37.22,21.03-11.99,5.1-24.16,9.76-36.45,14.09-8.9,3.14-17.92,6.12-27.27,7.42-1.68.23-3.54.37-4.91-.61-1.13-.81-1.67-2.19-2.15-3.49-5.28-14.31-10.56-28.62-15.83-42.93-1.64,0-2.92,1.6-3.15,3.22s.34,3.24.89,4.79c3.1,7.65,5.57,15.62,8.35,23.39,1.42,3.99,2.85,7.98,4.27,11.97,1.16,3.27,1.95,6.91,5.72,7.98,2,.56,4.12.35,6.18.08,22.38-2.93,43.46-11.91,64.14-20.94,10.17-4.44,20.35-8.93,29.94-14.51,4.15-2.41,8.22-5.06,11.49-8.58,1.36-1.46,2.62-3.19,2.75-5.18.11-1.64-.57-3.2-1.27-4.7Z"/>
      <path class="cls-2" d="M248.11,291.36s-4.08-1.72-1.97-4.85c.07-.22,21.78-8.84,21.78-8.84,0,0,3.65-1.29,4.02-10.16.1-.23-10.7-26.36-10.7-26.36,0,0,.63-4.52,4.72-1.92-.29-.26,10.64,26.2,10.64,26.2,0,0,2.99,9.24-6.46,17,.21.04-22.02,8.94-22.02,8.94Z"/>
      <path class="cls-2" d="M294.36,271.38s3.07,2.54,4.82-1.96c-.1.04-15.27-37.02-15.27-37.02,0,0-2.99-2.77-4.61,1.87.39.03,15.06,37.1,15.06,37.1Z"/>
      <path class="cls-2" d="M296.48,226.86s.93-3.79,4.5-1.83c.18-.01,10.7,26.36,10.7,26.36,0,0,5.21,4.9,10.56,4.69.2.17,21.53-8.74,21.53-8.74,0,0,3.1.86,1.7,4.18.14-.34-21.43,8.7-21.43,8.7,0,0-9.05,2.29-16.24-6.23.22-.09-11.33-27.12-11.33-27.12Z"/>
      <path class="cls-1" d="M186.09,248.47l-11.51-28.35-5.43.05,11.73,30.34c-4.56,3.25-6.27,9.53-3.41,14.83,2.52,4.65,8.05,6.99,13.14,5.56,6.71-1.89,10.11-9.1,7.56-15.37-2-4.93-7.05-7.7-12.09-7.05Z"/>
      <circle class="cls-1" cx="236.58" cy="293.27" r="8.28"/>
      <circle class="cls-1" cx="301.28" cy="281.51" r="8.28"/>
      <circle class="cls-1" cx="355.73" cy="244.93" r="8.28"/>
      <g>
        <path class="cls-1" d="M402.32,309.22l17.67-39.55s7.03-9.03,14.05,0c.8.4,23.09,50.79,23.09,50.79,0,0,2.61-1.81,1.41-8.63s-16.66-38.14-13.45-46.97c.6,0-7.03-55.41,5.82-75.08.6.2,13.45-20.07,13.45-20.07,0,0-18.47,21.08-33.72,25.09-15.26,4.01-22.68,5.82-42.96-11.44-.4-.2-29.31-23.29-29.31-23.29,0,0,33.12,35.93,40.55,54.4,7.43,18.47,13.05,2.81,8.03,64.44-.2-.2-6.83,28.91-6.83,28.91,0,0,0,2.21,2.21,1.41Z"/>
        <path class="cls-1" d="M429.22,171.21c-.14,7.75-4.7,14.75-11.64,14.75s-12.56-7-12.56-14.75,2.27-13.83,9.15-14.75c7.23-.97,15.2,6.51,15.06,14.75Z"/>
      </g>
      <g>
        <path class="cls-1" d="M258.98,470.48l-32.24-32.86s-10.35-6.4-14,5.2c-.65.7-4.2,59.15-4.2,59.15,0,0-3.27-.83-4.6-8.08s2.48-44.17-3.99-51.78c-.6.22-13.51-57.81-33.6-72.65-.53.42-20.83-15.02-20.83-15.02,0,0,26.21,14.16,42.89,12.51,16.69-1.65,24.76-2.6,38.57-27.31.33-.35,20.58-34.05,20.58-34.05,0,0-19.7,48.07-20.26,69.22-.56,21.15-11.96,7.63,15.86,67.18.13-.27,17.5,26.27,17.5,26.27,0,0,.82,2.2-1.68,2.22Z"/>
        <path class="cls-1" d="M199.03,324.36c2.49,7.85.28,16.46-6.71,18.82-6.99,2.36-15.03-2.78-17.67-10.59-2.63-7.81-2.41-14.7,4.2-17.97,6.95-3.43,17.53,1.39,20.18,9.74Z"/>
      </g>
    </g>
  </g>
</svg>