<?xml version="1.0" encoding="utf-8"?>
<!-- Generator: Adobe Illustrator 28.4.1, SVG Export Plug-In . SVG Version: 6.00 Build 0)  -->
<svg version="1.1" id="Layer_1" xmlns="http://www.w3.org/2000/svg" xmlns:xlink="http://www.w3.org/1999/xlink" x="0px" y="0px"
	 viewBox="0 0 553 368" style="enable-background:new 0 0 553 368;" xml:space="preserve">
<style type="text/css">
	.st0{clip-path:url(#SVGID_00000085237648387973575400000013760982181513249975_);}
	.st1{fill:#E6E7E8;}
	.st2{fill:#3F3D56;}
	.st3{fill:#4A86E8;}
	.st4{fill:#FFB6B6;}
	.st5{fill:#2F2E41;}
	.st6{fill:#A0616A;}
	.st7{clip-path:url(#SVGID_00000085237648387973575400000013760982181513249975_);fill:#2F2E41;}
</style>
<g>
	<defs>
		<rect id="SVGID_1_" x="-25.5" y="-4.3" width="552.9" height="367.9"/>
	</defs>
	<clipPath id="SVGID_00000109733027292245733590000010380012987637212041_">
		<use xlink:href="#SVGID_1_"  style="overflow:visible;"/>
	</clipPath>
	<g style="clip-path:url(#SVGID_00000109733027292245733590000010380012987637212041_);">
		<path class="st1" d="M188.3,29h-67.1c-2.3,0-4.2-1.9-4.2-4.2c0-2.3,1.9-4.2,4.2-4.2h67.1c2.3,0,4.2,1.9,4.2,4.2
			C192.5,27.1,190.6,29,188.3,29z"/>
		<path class="st1" d="M240.7,43.1H121.2c-2.3,0-4.2-1.9-4.2-4.2c0-2.3,1.9-4.2,4.2-4.2h119.4c2.3,0,4.2,1.9,4.2,4.2
			C244.8,41.2,243,43.1,240.7,43.1z"/>
		<path class="st1" d="M240.7,57.1H121.2c-2.3,0-4.2-1.9-4.2-4.2c0-2.3,1.9-4.2,4.2-4.2h119.4c2.3,0,4.2,1.9,4.2,4.2
			C244.8,55.2,243,57.1,240.7,57.1z"/>
		<path class="st2" d="M253.3,129.7v-2c-23.1,0-43.2-18.9-48.6-45.1l8.7,2.2c-4.2-4-8.5-10.7-11.1-16.1c-1.6,5.9-4.5,13.2-7.8,17.9
			l8.2-3.9C208.2,110.1,229.2,129.7,253.3,129.7z"/>
		<path class="st3" d="M244.6,53.2c0,2.2-1.8,4-4,4h-52c-2.2,0-4-1.8-4-4s1.8-4,4-4h52C242.8,49.2,244.6,51,244.6,53.2z"/>
		<path class="st4" d="M10.4,276c-0.8-2.8-2.1-5.1-3.8-6.8l-5.9-26.7l-12.8,3.1l7.3,26.8c-0.5,2.3-0.4,5,0.4,7.7
			c1.8,6.3,6.6,10.5,10.6,9.3S12.2,282.3,10.4,276z"/>
		<path class="st3" d="M8.7,100.7c0,0-13.8-0.5-21.8,8.5c-9.2,11.2-15.4,55.1-10.7,58l12.7,90.5L7,255.2L2.4,146.6L8.7,100.7z"/>
		<path class="st5" d="M101.9,253.2l-3.3,110.4H51.1l-1.9-42.6l-8.4,42.6h-50.9l6.4-73.2l6.6-15.4l4.4-10.4L101.9,253.2z"/>
		<path class="st3" d="M64.1,82.6l-33-2l-11,14c-9.5,2-18.1,4.7-24,9c1.4,41.9-1.7,96.4,11,107l-11.3,79.6c0,0,4.5-3.9,12.1-2.5
			c2.6,0.5,5.8,6.4,9,6.7c24.8,2.8,64.9-0.1,84.8-41.2l-7.7-59.6l2-87c-6.3-4.9-14-8.2-23-10L64.1,82.6z"/>
		<path class="st4" d="M127.7,58.3c0.4,3.5-0.1,6.7-1.1,9.3l5.5,32.8l-15.7,2.2l-3.9-33.5c-1.6-2.3-2.7-5.4-3-8.9
			c-0.8-7.9,2.6-14.8,7.6-15.3C122.1,44.4,126.8,50.4,127.7,58.3z"/>
		<path class="st3" d="M75.5,109.1c-1.6,2.4-1.2,5.1-1.6,8.4c-1.7,13.9,25,55,43.4,59.7c2.4,0.6,3.8,3.2,6.2,3.8
			c7.2,1.6,14-4.2,13.6-11.6l-5-94.7l-21,7.2l1.3,49.2c-0.1-10.2-9.5-20.6-16.6-24.9C95.9,106.2,81.5,100.3,75.5,109.1z"/>
		<path class="st4" d="M51.1,78C67.1,78,80.1,65,80.1,49c0-16.1-13-29.1-29.1-29.1C35,19.9,22,32.9,22,49C22,65,35,78,51.1,78z"/>
		<path class="st5" d="M78.1,27.6c-0.2,0.1,3.8-3.9,4-4c4-2-0.1,17.6-3,17c-7.1-1.3-10.2-4-12.9,2.7c-0.8,1.9-1.2,4-2.8,5.3
			c-2.1,1.8-5.5,1.7-7.2,3.8c-1.4,1.7-1,4.3,0,6.3c1,2,2.5,3.6,3.4,5.6c1,2.3-3.3,9.5-5,13.5v0l0,0c-0.4,1.1-1.5-2-2.6-2.3
			c-1.3-0.4-3.3,2.8-5.4,2.2c0,0,0,0,0,0c-2-0.6-4.2-1.2-6.5-1.8h0c-6.3-1.7-7.8,0.7-8.1,0.7l-3.9-4.1c-1.3-1-1.2-4.1-2.1-4.9
			c-0.8-0.7-2.7,0.9-3.2,0.2c-2.8-3.2-3.4-6.5-5-12.9c-1.5-5.8-4.6-23.4,1.8-24.1c6-0.8,1.6-9.1,7.6-8.8c-0.4-1.5,0.3-3.1,1.4-4.3
			c1.1-1.1,2.5-1.8,4-2.4c7.1-2.9,6-5.4,13.5-3.7c0.8-1.1,10.4-3.8,11.7-3.4c0.1,0-2.1,4.3,3.3,3.4c-0.2,1.2,2.7-1.4,3,3
			c5.7-3.4,8.8,4.8,9,6c0.2,1.5-2,0.7-0.5,1c0.9,0.1,2.4,2,2.3,2.9c0.7-0.9,1.3-1.8,2-2.6c0.1,0,0.2,0,0.3,0.1
			c3,0.6-0.4,10.5-0.3,7.4C77.1,23.6,81.2,27,78.1,27.6z"/>
		<path class="st5" d="M448.9,21.7c-1.1,8.8-2.2,17.6-3.5,26.4c-0.5,3.6-1.1,7.2-2.5,10.5c-1,2.3-2.4,4.3-3.7,6.4
			c-1.6,2.4-3.3,4.9-5.5,6.8c-2.2,1.9-5,3.3-7.9,3c7.7-5.2,12.9-14,13.7-23.2c0.4-4.3-0.1-8.7-0.2-13.1c-0.1-4.4,0.3-8.9,2.3-12.8
			c2-3.9,6-7,10.4-6.9L448.9,21.7z"/>
		<path class="st6" d="M370.8,209.9c-6.3,5.1-14,6-17.2,2c-3.2-4-0.8-11.3,5.5-16.4c2.7-2.2,5.8-3.6,8.6-4.2l26.8-21.2l9.7,12.8
			l-27.5,19.6C375.6,205.1,373.5,207.7,370.8,209.9z"/>
		<path class="st3" d="M375.9,181.1l40-37.9l4-3c0,0,23-22.4,28.9-22.9c2.5-0.2,5,0.4,7.2,1.8c3.4,2.2,5.2,5.9,5.2,9.6
			c0,3.1-1.2,6.2-3.8,8.5L420.7,170l-15.6,14l-19.4,17.4l-2-4l-6.7-13.6L375.9,181.1z"/>
		<path class="st6" d="M461.4,155.5l-40,12.3c6.7,1.9,9.5,42.7,3.3,44c0,0,66.4,4.7,62.7,0c-4.4-5.8,1.5-44,4.3-44L461.4,155.5z"/>
		<path class="st5" d="M514.7,363.6l-3.5-42.2c0-15.1-1-28.8-2.5-40.9c-6.3-48.9-22.1-73.9-22.1-73.9h-59c-0.1,0.1-0.2,0.2-0.2,0.2
			c0,0-21.2,51.4-24.4,73.6c-1.5,10.6-2.1,17.8-2.1,17.8l-5.8,51.3l4.2,14h34.3l-0.5-3l22.1-80.2l0.3-1l0.2,1l20.5,83.2H514.7z"/>
		<path class="st3" d="M428.8,131.1l12.5-25.2l10.5-18.3l8.5-8.7h23.2l2.2,8.7l13,7.2l4.6,36.1l-16.4,78.3
			c-19.5-15.9-59.6-20.3-59.6-20.3l-6.5-18.9l-4.3-22.8l-0.5-2.7L428.8,131.1z"/>
		<path class="st6" d="M427.3,176.6c-8.1-0.2-14.5-4.6-14.3-9.7c0.1-5.1,6.8-9.1,14.9-8.9c3.5,0.1,6.8,1,9.2,2.4l34.2,1.4l-1,16
			l-33.6-3.1C434.1,176,430.8,176.7,427.3,176.6z"/>
		<path class="st3" d="M471,121.9l32.2,32l-56.2,5.8L434,178l78.3,2.6c7.1,2.5,14.6-2.4,15.2-9.8c0.2-2.5-15.9-66.6-25.6-72.5
			C490.4,91.3,471,121.9,471,121.9z"/>
		<path class="st6" d="M493.4,47.6c0.2-14.5-11.4-26.5-25.9-26.8c-14.5-0.2-26.5,11.4-26.8,25.9c-0.2,14.5,11.4,26.5,25.9,26.8
			C481.2,73.7,493.1,62.1,493.4,47.6z"/>
		<path class="st5" d="M524.9,129.2c-0.7,2.5-5.8,3.8-7,7c-3.8,2.2-1.8-15.6-3.3-16.8c-1.2-0.9-1.5,1.3-1.8-0.6
			c-1-6.9-7.7-5.4-12.6-6.5c-0.6-1.1-1-2.2-1.3-3.2c-0.5-1.9-2.8-2.5-4.1-1.1c-0.6-0.5-1-2.5-1.5-4.4c-0.3-1.4-0.6-2.8-1-3.7
			l-3.4-7.8L490,98c-2.2-0.8-4.5,0-5.8-2.8c-1.7-3.6-2.4-7.8-1.1-11.5c1.1-3.4,3-10.2,5.1-15.8c-2.4,1.7-5.3,3-8.6,3.6
			c1.2-2.2,2.4-4.5,2.9-7c0.5-2.5,0.2-5.3-1.4-7.2c-1.3-1.6-3.2-1.2-4.8-2.5c-1.3-1-2.4-3.6-3.1-5.1c3.2,10.8,5.7,22.2,1.6,32.5
			c-2.9,7.1-8.9,12.9-16,15.5c3.8-2.7,7.6-5.7,10.4-9.4c3.1-4,5.1-9,4.5-14c-1-7.8-15.5-32.7-17.3-37.6c1,4.8,0.6,8.5-2,10.5
			c-0.7-6.9-8.2-6.3-12.3-9.1c0,0-3.2-18,4.3-18.1c3.6-0.1,7.4-8.5,10.6-10c5.2-2.4,8.4-0.8,14.2-0.6c5.8,0.2,11.3,2.7,14.9,7.2
			c1.8,2.4,2.5,0.5,5.3,2c2.6,1.4,4.4,0.1,7.4,0.2c6,0.2,11.8,3.4,15.2,8.3c3.4,5,5.4,4.5,4.1,12.2c0,0.1,0,0.3,0,0.5
			c0.7,12.1-1.1,24.2-5.9,35.3c-1.5,3.4,5.8,6.9,5.8,11.2c0,5-8,9.5-7.3,11.6c2.1,10.2,14,7.9,11.2,25
			C521.4,124.5,525.3,127.5,524.9,129.2z"/>
		<path class="st5" d="M451.9,97.9c0.2-0.1,0.4-0.2,0.7-0.2c-0.3,0.2-0.5,0.4-0.8,0.6L451.9,97.9z"/>
		<path class="st3" d="M489,13.7c-2.9,0.4-5.8-4.3-4.1-10.9c3.5,5.4,5.4,11.5,5.6,18.2l-1.9,0.6L489,13.7z"/>
		<path class="st3" d="M503.6,7.5c-2,6.9-11.9,11.6-13.6,9.2l-0.2,4.1l-1.2-1.6C492.1,13.9,497,9.9,503.6,7.5z"/>
		<path class="st1" d="M285.6,194.3c0-2.3,1.9-4.2,4.2-4.2h67.1c2.3,0,4.2,1.9,4.2,4.2c0,2.3-1.9,4.2-4.2,4.2h-67.1
			C287.5,198.5,285.6,196.6,285.6,194.3z"/>
		<path class="st1" d="M285.6,222.3c0-2.3,1.9-4.2,4.2-4.2h67.1c2.3,0,4.2,1.9,4.2,4.2c0,2.3-1.9,4.2-4.2,4.2h-67.1
			C287.5,226.5,285.6,224.6,285.6,222.3z"/>
		<path class="st1" d="M237.5,212.6c-2.3,0-4.2-1.9-4.2-4.2c0-2.3,1.9-4.2,4.2-4.2h119.4c2.3,0,4.2,1.9,4.2,4.2
			c0,2.3-1.9,4.2-4.2,4.2H237.5z"/>
		<path class="st2" d="M228.6,172.7l-8.2-3.9c3.4,4.7,6.3,12.1,7.8,17.9c2.6-5.5,6.9-12.1,11.1-16.1l-8.7,2.2
			c5.4-26.3,25.5-45.1,48.6-45.1v-2C255.1,125.7,234.1,145.3,228.6,172.7z"/>
		<path class="st3" d="M266.5,212.7h-52c-2.2,0-4-1.8-4-4c0-2.2,1.8-4,4-4h52c2.2,0,4,1.8,4,4C270.5,210.9,268.7,212.7,266.5,212.7z
			"/>
		<path class="st2" d="M281.7,130.9c1.4-8.5-4.4-16.6-12.9-18c-8.5-1.4-16.6,4.4-18,12.9c-1.4,8.5,4.4,16.6,12.9,18
			C272.2,145.2,280.3,139.4,281.7,130.9z"/>
		<path class="st1" d="M181.2,15c5.3,0,9.7-4.3,9.7-9.7c0-5.3-4.3-9.7-9.7-9.7c-5.3,0-9.7,4.3-9.7,9.7C171.5,10.7,175.9,15,181.2,15
			z"/>
		<path class="st1" d="M294.2,182c5.3,0,9.7-4.3,9.7-9.7c0-5.3-4.3-9.7-9.7-9.7c-5.3,0-9.7,4.3-9.7,9.7
			C284.5,177.7,288.9,182,294.2,182z"/>
		<path class="st3" d="M427.3,206.8l55.7-0.4c0,0-37.7-24.8-55.8-17.5L427.3,206.8z"/>
	</g>
	
		<line style="clip-path:url(#SVGID_00000109733027292245733590000010380012987637212041_);fill:#2F2E41;" x1="427" y1="207" x2="483.6" y2="206.8"/>
</g>
</svg>
