<svg width="553" height="368" viewBox="0 0 553 368" fill="none" xmlns="http://www.w3.org/2000/svg">
<g clip-path="url(#clip0_205_353)">
<path d="M213.839 33.2392H146.754C144.453 33.2392 142.58 31.3667 142.58 29.0653C142.58 26.7638 144.453 24.8914 146.754 24.8914H213.839C216.14 24.8914 218.013 26.7638 218.013 29.0653C218.013 31.3667 216.14 33.2392 213.839 33.2392Z" fill="#E6E7E8"/>
<path d="M266.192 47.3664H146.754C144.453 47.3664 142.58 45.4939 142.58 43.1925C142.58 40.891 144.453 39.0186 146.754 39.0186H266.192C268.494 39.0186 270.366 40.891 270.366 43.1925C270.366 45.4939 268.494 47.3664 266.192 47.3664Z" fill="#E6E7E8"/>
<path d="M266.192 61.3664H146.754C144.453 61.3664 142.58 59.4939 142.58 57.1925C142.58 54.891 144.453 53.0186 146.754 53.0186H266.192C268.494 53.0186 270.366 54.891 270.366 57.1925C270.366 59.4939 268.494 61.3664 266.192 61.3664Z" fill="#E6E7E8"/>
<path d="M278.843 134.019V132.019C255.758 132.019 235.599 113.161 230.239 86.8928L238.937 89.1305C234.73 85.1447 230.48 78.472 227.843 73.0186C226.286 78.873 223.378 86.2302 220.002 90.941L228.232 87.0425C233.704 114.371 254.73 134.019 278.843 134.019Z" fill="#3F3D56"/>
<path d="M270.111 57.48C270.111 59.6856 268.317 61.48 266.111 61.48H214.111C211.906 61.48 210.111 59.6856 210.111 57.48C210.111 55.2744 211.906 53.48 214.111 53.48H266.111C268.317 53.48 270.111 55.2744 270.111 57.48Z" fill="#4A86E8"/>
<path d="M35.9625 280.297C35.1709 277.541 33.8154 275.19 32.2015 273.513L26.3378 246.783L13.5566 249.914L20.8809 276.691C20.3992 278.957 20.4956 281.662 21.2872 284.418C23.0956 290.715 27.8468 294.898 31.8993 293.76C35.9518 292.622 37.7709 286.594 35.9625 280.297Z" fill="#FFB6B6"/>
<path d="M34.1942 104.956C34.1942 104.956 20.3893 104.48 12.3893 113.48C3.22375 124.676 -3.04132 168.547 1.66189 171.501L14.4046 261.986L32.5754 259.49L27.9119 150.921L34.1942 104.956Z" fill="#4A86E8"/>
<path d="M127.39 257.48L124.082 367.917H76.5824L74.6625 325.347L66.2225 367.917H15.3125L21.6625 294.737L28.2225 279.347L32.6625 268.917L127.39 257.48Z" fill="#2F2E41"/>
<path d="M89.6613 86.9172L56.6613 84.9172L45.6613 98.9173C36.161 100.951 27.5801 103.577 21.6612 107.917C23.0773 149.843 19.9666 204.359 32.6613 214.917L21.3887 294.48C21.3887 294.48 25.9346 290.585 33.5284 291.96C36.1518 292.435 39.3187 298.345 42.5423 298.703C67.312 301.455 107.48 298.625 127.389 257.48L119.661 197.917L121.661 110.917C115.409 105.975 107.636 102.763 98.6613 100.917L89.6613 86.9172Z" fill="#4A86E8"/>
<path d="M153.191 62.5785C153.549 66.0455 153.094 69.3058 152.047 71.9199L157.545 104.732L141.855 106.891L137.968 73.374C136.409 71.0291 135.297 67.9304 134.939 64.4635C134.121 56.5432 137.544 49.7007 142.584 49.1802C147.624 48.6596 152.373 54.6583 153.191 62.5785Z" fill="#FFB6B6"/>
<path d="M101.029 113.424C99.386 115.848 99.8436 118.572 99.4514 121.846C97.7863 135.742 124.416 176.806 142.842 181.534C145.26 182.154 146.637 184.762 149.077 185.287C156.307 186.841 163.038 181.102 162.648 173.718L157.643 79.01L136.616 86.1821L137.962 135.353C137.828 125.166 128.474 114.794 121.389 110.48C121.389 110.48 107.038 104.558 101.029 113.424Z" fill="#4A86E8"/>
<path d="M76.5873 82.3293C92.6409 82.3293 105.655 69.3152 105.655 53.2616C105.655 37.2079 92.6409 24.1938 76.5873 24.1938C60.5336 24.1938 47.5195 37.2079 47.5195 53.2616C47.5195 69.3152 60.5336 82.3293 76.5873 82.3293Z" fill="#FFB6B6"/>
<path d="M103.662 31.9172C103.412 31.9773 107.488 28.004 107.662 27.9172C111.662 25.9172 107.552 45.4672 104.662 44.9172C97.5517 43.5672 94.4817 40.8872 91.7217 47.5772C90.9517 49.4372 90.4717 51.5372 88.9717 52.8672C86.9117 54.6772 83.4918 54.5272 81.8118 56.6872C80.4617 58.4272 80.8517 60.9872 81.8517 62.9472C82.8517 64.9172 84.3718 66.5872 85.2817 68.5972C86.3018 70.8572 81.9517 78.0472 80.2917 82.0872V82.0972L80.2819 82.1209C79.8408 83.1805 78.7926 80.1279 77.686 79.8232C76.3617 79.4586 74.4109 82.5854 72.3017 82.0172C72.2917 82.0172 72.2817 82.0072 72.2717 82.0072C70.2617 81.4472 68.0217 80.8472 65.8017 80.2472H65.7917C59.5417 78.5472 57.9617 80.9872 57.6617 80.9172L53.7817 76.8572C52.4502 75.8877 52.6007 72.7578 51.6617 71.9172C50.8938 71.2297 48.9795 72.8183 48.4153 72.1575C45.649 68.9175 45.0125 65.6763 43.3817 59.2772C41.8917 53.4272 38.8017 35.9172 45.1517 35.1272C51.1417 34.3772 46.7617 26.0372 52.7917 26.3472C52.4317 24.8272 53.1017 23.1972 54.1917 22.0772C55.2717 20.9472 56.7117 20.2472 58.1617 19.6472C65.3117 16.7272 64.1217 14.2173 71.6617 15.9172C72.4117 14.8672 82.0291 12.1299 83.3891 12.4799C83.4891 12.4999 81.2917 16.7672 86.6617 15.9172C86.4617 17.1472 89.3891 14.4799 89.6617 18.9172C95.3891 15.4799 98.4717 23.7072 98.6617 24.9172C98.9117 26.4272 96.6317 25.6572 98.1517 25.8872C99.0517 26.0272 100.592 27.8572 100.442 28.7672C101.092 27.8872 101.742 27.0172 102.402 26.1372C102.522 26.1472 102.632 26.1672 102.752 26.1872C105.792 26.7672 102.307 36.7051 102.432 33.6072C102.662 27.9172 106.692 31.2472 103.662 31.9172Z" fill="#2F2E41"/>
<path d="M474.429 25.9578C473.355 34.7851 472.182 43.6004 470.909 52.4012C470.392 55.9758 469.846 59.5957 468.407 62.9088C467.426 65.1702 466.051 67.2353 464.684 69.2866C463.068 71.7107 461.425 74.1657 459.231 76.0818C457.036 77.998 454.186 79.3435 451.281 79.1183C458.988 73.9307 464.167 65.1567 464.985 55.903C465.37 51.5533 464.842 47.1809 464.741 42.8153C464.64 38.4498 465.005 33.9323 467.019 30.0578C469.034 26.1834 473.012 23.0819 477.378 23.1921L474.429 25.9578Z" fill="#2F2E41"/>
<path d="M396.327 214.231C390.056 219.316 382.35 220.204 379.113 216.214C375.877 212.224 378.336 204.866 384.607 199.78C387.352 197.554 390.372 196.132 393.172 195.572L420.012 174.355L429.7 187.163L402.212 206.719C401.086 209.343 399.072 212.004 396.327 214.231Z" fill="#A0616A"/>
<path d="M401.397 185.428L441.39 147.48L445.39 144.48C445.39 144.48 468.347 122.113 474.292 121.601C476.81 121.385 479.328 122.012 481.449 123.39C484.876 125.612 486.65 129.27 486.65 132.957C486.65 136.037 485.409 139.132 482.87 141.412L446.256 174.281L430.68 188.263L411.309 205.657L409.34 201.646L402.681 188.054L401.397 185.428Z" fill="#4A86E8"/>
<path d="M486.911 159.746L446.867 172.011C453.571 173.9 456.378 214.751 450.139 216.019C450.139 216.019 516.504 220.74 512.883 216.019C508.468 210.265 514.389 172.028 517.211 172.011L486.911 159.746Z" fill="#A0616A"/>
<path d="M540.195 367.921L536.695 325.681C536.695 310.571 535.715 296.921 534.145 284.751C527.855 235.901 512.085 210.861 512.085 210.861H453.085C453.005 210.951 452.925 211.021 452.845 211.111L452.835 211.121C438.915 225.751 431.675 262.541 428.455 284.751C426.925 295.321 426.305 302.591 426.305 302.591L420.535 353.871L424.705 367.921H459.035L458.495 364.911L480.585 284.751L480.855 283.771L481.095 284.751L501.575 367.921L540.195 367.921Z" fill="#2F2E41"/>
<path d="M454.295 135.379L466.762 110.212L477.267 91.9279L485.762 83.2705H509.011L511.175 91.9279L524.161 99.1424L528.755 135.215L512.39 213.48C492.911 197.608 452.762 193.212 452.762 193.212L446.257 174.281L441.957 151.476L441.438 148.749L454.295 135.379Z" fill="#4A86E8"/>
<path d="M452.799 180.906C444.728 180.677 438.304 176.328 438.45 171.192C438.595 166.056 445.256 162.078 453.326 162.308C456.859 162.408 460.076 163.298 462.565 164.697L496.75 166.096L495.751 182.124L462.158 179.044C459.594 180.3 456.331 181.006 452.799 180.906Z" fill="#A0616A"/>
<path d="M496.516 126.198L528.762 158.212L472.594 163.964L459.541 182.324L537.829 184.92C544.893 187.436 552.417 182.554 552.998 175.079C553.195 172.554 537.111 108.506 527.374 102.56C515.962 95.5914 496.516 126.198 496.516 126.198Z" fill="#4A86E8"/>
<path d="M518.914 51.8575C519.148 37.3161 507.55 25.3379 493.009 25.1034C478.467 24.8689 466.489 36.467 466.255 51.0084C466.02 65.5498 477.618 77.528 492.16 77.7624C506.701 77.9969 518.679 66.3989 518.914 51.8575Z" fill="#A0616A"/>
<path d="M550.39 133.48C549.73 135.98 544.59 137.27 543.39 140.48C539.57 142.66 541.64 124.85 540.1 123.68C538.91 122.79 538.59 124.94 538.32 123.09C537.3 116.15 530.63 117.7 525.69 116.58C525.13 115.49 524.7 114.43 524.42 113.4C523.92 111.54 521.64 110.89 520.29 112.26C519.68 111.72 519.24 109.81 518.81 107.9C518.5 106.51 518.19 105.12 517.83 104.24L514.39 96.4799L515.5 102.26C513.25 101.45 510.98 102.29 509.67 99.5098C507.99 95.9398 507.32 91.7598 508.54 88.0098C509.65 84.6099 511.52 77.7999 513.63 72.1599C511.24 73.8898 508.37 75.1499 505.04 75.7799C506.22 73.5399 507.42 71.2598 507.92 68.7699C508.41 66.2799 508.11 63.5098 506.53 61.5299C505.23 59.8999 503.31 60.3098 501.69 58.9998C500.43 57.9799 499.34 55.3699 498.58 53.9398C501.82 64.7099 504.27 76.1499 500.15 86.4299C497.3 93.5499 491.3 99.3399 484.1 101.97C487.93 99.2299 491.67 96.3098 494.54 92.5899C497.61 88.5999 499.61 83.5598 499 78.5598C498.04 70.7099 483.48 45.8798 481.69 40.9998C482.67 45.7699 482.29 49.4899 479.71 51.5399C479.04 44.6199 471.5 45.2498 467.39 42.4799C467.39 42.4799 464.21 24.5098 471.67 24.3999C475.27 24.3499 479.04 15.8898 482.31 14.3798C487.53 11.9699 490.73 13.6099 496.52 13.7899C502.3 13.9598 507.85 16.4498 511.38 21.0198C513.23 23.4099 513.91 21.5098 516.69 22.9998C519.33 24.4099 521.11 23.0999 524.1 23.1898C530.09 23.3499 535.9 26.5499 539.26 31.4998C542.62 36.4598 544.69 35.9998 543.36 43.6699C543.34 43.7598 543.34 43.9398 543.36 44.2098C544.09 56.2899 542.22 68.3998 537.43 79.5198C535.95 82.9398 543.19 86.4697 543.18 90.7397C543.17 95.6997 535.18 100.22 535.92 102.34C538.04 112.55 549.95 110.28 547.14 127.37C546.91 128.76 550.83 131.81 550.39 133.48Z" fill="#2F2E41"/>
<path d="M477.438 102.211C477.658 102.141 477.878 102.061 478.098 101.971C477.818 102.171 477.548 102.361 477.268 102.561L477.438 102.211Z" fill="#2F2E41"/>
<path d="M514.528 17.9603C511.664 18.386 508.754 13.6334 510.38 7.04272C513.925 12.4623 515.736 18.5634 516.021 25.2649L514.111 25.8567L514.528 17.9603Z" fill="#4A86E8"/>
<path d="M529.165 11.8086C527.21 18.7352 517.283 23.3709 515.529 20.9604L515.329 25.091L514.102 23.5122C517.662 18.2177 522.515 14.1563 529.165 11.8086Z" fill="#4A86E8"/>
<path d="M311.18 198.594C311.18 196.292 313.052 194.42 315.354 194.42H382.439C384.74 194.42 386.612 196.292 386.612 198.594C386.612 200.895 384.74 202.768 382.439 202.768H315.354C313.052 202.768 311.18 200.895 311.18 198.594Z" fill="#E6E7E8"/>
<path d="M311.18 226.594C311.18 224.292 313.052 222.42 315.354 222.42H382.439C384.74 222.42 386.612 224.292 386.612 226.594C386.612 228.895 384.74 230.768 382.439 230.768H315.354C313.052 230.768 311.18 228.895 311.18 226.594Z" fill="#E6E7E8"/>
<path d="M263 216.895C260.699 216.895 258.826 215.022 258.826 212.721C258.826 210.42 260.699 208.547 263 208.547H382.438C384.74 208.547 386.612 210.42 386.612 212.721C386.612 215.022 384.74 216.895 382.438 216.895H263Z" fill="#E6E7E8"/>
<path d="M254.121 176.947L245.891 173.048C249.266 177.759 252.175 185.117 253.732 190.971C256.369 185.518 260.619 178.845 264.826 174.859L256.128 177.097C261.487 150.829 281.647 131.971 304.732 131.971V129.971C280.619 129.971 259.593 149.619 254.121 176.947Z" fill="#3F3D56"/>
<path d="M292 216.971H240C237.794 216.971 236 215.177 236 212.971C236 210.765 237.794 208.971 240 208.971H292C294.206 208.971 296 210.765 296 212.971C296 215.177 294.206 216.971 292 216.971Z" fill="#4A86E8"/>
<path d="M307.188 135.165C308.573 126.63 302.776 118.587 294.241 117.202C285.705 115.817 277.663 121.614 276.278 130.149C274.892 138.685 280.689 146.727 289.225 148.113C297.76 149.498 305.803 143.701 307.188 135.165Z" fill="#3F3D56"/>
<path d="M206.732 19.3147C212.065 19.3147 216.389 14.991 216.389 9.65737C216.389 4.32375 212.065 0 206.732 0C201.398 0 197.074 4.32375 197.074 9.65737C197.074 14.991 201.398 19.3147 206.732 19.3147Z" fill="#E6E7E8"/>
<path d="M319.732 186.315C325.065 186.315 329.389 181.991 329.389 176.657C329.389 171.324 325.065 167 319.732 167C314.398 167 310.074 171.324 310.074 176.657C310.074 181.991 314.398 186.315 319.732 186.315Z" fill="#E6E7E8"/>
</g>
<defs>
<clipPath id="clip0_205_353">
<rect width="552.941" height="367.921" fill="white" transform="translate(0.0585938)"/>
</clipPath>
</defs>
</svg>
