<svg width="48" height="48" viewBox="0 0 48 48" fill="none" xmlns="http://www.w3.org/2000/svg">
<path d="M26.0552 4C28.3052 4.006 29.4472 4.018 30.4332 4.046L30.8212 4.06C31.2692 4.076 31.7112 4.096 32.2452 4.12C34.3732 4.22 35.8252 4.556 37.0992 5.05C38.4192 5.558 39.5312 6.246 40.6432 7.356C41.6602 8.35579 42.4471 9.56518 42.9492 10.9C43.4432 12.174 43.7792 13.626 43.8792 15.756C43.9032 16.288 43.9232 16.73 43.9392 17.18L43.9512 17.568C43.9812 18.552 43.9932 19.694 43.9972 21.944L43.9992 23.436V26.056C44.0041 27.5148 43.9888 28.9736 43.9532 30.432L43.9412 30.82C43.9252 31.27 43.9052 31.712 43.8812 32.244C43.7812 34.374 43.4412 35.824 42.9492 37.1C42.4486 38.4356 41.6614 39.6452 40.6432 40.644C39.6431 41.6606 38.4338 42.4475 37.0992 42.95C35.8252 43.444 34.3732 43.78 32.2452 43.88C31.7706 43.9023 31.296 43.9223 30.8212 43.94L30.4332 43.952C29.4472 43.98 28.3052 43.994 26.0552 43.998L24.5632 44H21.9452C20.4857 44.005 19.0262 43.9897 17.5672 43.954L17.1792 43.942C16.7044 43.924 16.2297 43.9034 15.7552 43.88C13.6272 43.78 12.1752 43.444 10.8992 42.95C9.56454 42.4487 8.35564 41.6617 7.3572 40.644C6.33929 39.6446 5.55165 38.4351 5.0492 37.1C4.5552 35.826 4.2192 34.374 4.1192 32.244C4.09692 31.7694 4.07692 31.2948 4.0592 30.82L4.0492 30.432C4.01235 28.9736 3.99568 27.5148 3.9992 26.056V21.944C3.99362 20.4852 4.00829 19.0264 4.0432 17.568L4.0572 17.18C4.0732 16.73 4.0932 16.288 4.1172 15.756C4.2172 13.626 4.5532 12.176 5.0472 10.9C5.54943 9.56381 6.33864 8.35405 7.3592 7.356C8.35738 6.33895 9.56549 5.55197 10.8992 5.05C12.1752 4.556 13.6252 4.22 15.7552 4.12C16.2872 4.096 16.7312 4.076 17.1792 4.06L17.5672 4.048C19.0256 4.01247 20.4844 3.99713 21.9432 4.002L26.0552 4ZM23.9992 14C21.347 14 18.8035 15.0536 16.9281 16.9289C15.0528 18.8043 13.9992 21.3478 13.9992 24C13.9992 26.6522 15.0528 29.1957 16.9281 31.0711C18.8035 32.9464 21.347 34 23.9992 34C26.6514 34 29.1949 32.9464 31.0703 31.0711C32.9456 29.1957 33.9992 26.6522 33.9992 24C33.9992 21.3478 32.9456 18.8043 31.0703 16.9289C29.1949 15.0536 26.6514 14 23.9992 14ZM23.9992 18C24.7871 17.9999 25.5674 18.1549 26.2954 18.4563C27.0234 18.7577 27.6849 19.1996 28.2421 19.7567C28.7994 20.3137 29.2414 20.9751 29.5431 21.703C29.8447 22.4309 30.0001 23.2111 30.0002 23.999C30.0003 24.7869 29.8453 25.5672 29.5439 26.2952C29.2425 27.0232 28.8006 27.6847 28.2435 28.2419C27.6865 28.7992 27.0251 29.2412 26.2972 29.5429C25.5693 29.8445 24.7891 29.9999 24.0012 30C22.4099 30 20.8838 29.3679 19.7586 28.2426C18.6333 27.1174 18.0012 25.5913 18.0012 24C18.0012 22.4087 18.6333 20.8826 19.7586 19.7574C20.8838 18.6321 22.4099 18 24.0012 18M34.5012 11C33.8382 11 33.2023 11.2634 32.7334 11.7322C32.2646 12.2011 32.0012 12.837 32.0012 13.5C32.0012 14.163 32.2646 14.7989 32.7334 15.2678C33.2023 15.7366 33.8382 16 34.5012 16C35.1642 16 35.8001 15.7366 36.269 15.2678C36.7378 14.7989 37.0012 14.163 37.0012 13.5C37.0012 12.837 36.7378 12.2011 36.269 11.7322C35.8001 11.2634 35.1642 11 34.5012 11Z" fill="white"/>
</svg>
