<?xml version="1.0" encoding="UTF-8"?>
<svg id="Layer_2" data-name="Layer 2" xmlns="http://www.w3.org/2000/svg" viewBox="0 0 315.28 315.28">
  <defs>
    <style>
      .cls-1 {
        fill: none;
        stroke: #fff;
        stroke-miterlimit: 10;
        stroke-width: 3px;
      }

      .cls-2 {
        fill: #fff;
        stroke-width: 0px;
      }
    </style>
  </defs>
  <g id="logo">
    <g>
      <g>
        <path class="cls-2" d="M151.1,82.21c-1,.3-4.1,1.8-6.8,3.4s-5.2,2.9-5.7,2.9c-.4,0-1.8,1-3,2.2l-2.3,2.1,3.8,3.3c3.6,3.1,4.4,3.3,11.1,3.4h7.1l5.7-5.5c6.4-6.3,6.3-6.9-.9-10.4-4.2-2.1-5.5-2.3-9-1.4Z"/>
        <path class="cls-2" d="M167.7,94.71c-7.5,8.1-8.7,10.1-8.4,13.6.3,3.4,1.5,4.2,14.7,9.8,1.7.7,6.1,2.7,9.9,4.3,10.6,4.8,11.3,3.3,6.4-13.6-2.2-7.8-5.7-13.3-8.3-13.3-.7,0-2.3-.8-3.6-1.9-4.8-3.7-6.4-3.5-10.7,1.1Z"/>
        <path class="cls-2" d="M113.5,103.11c-15.1,8.5-17,9.9-17,12.5,0,1-1.2,2.4-2.7,3.1-2.7,1.3-2.8,1.6-3.1,9.9l-.3,8.6,10.3,10.1c6.1,6,10.6,9.8,11.2,9.2.9-.9-.9-12.2-2.5-15.3-.5-.9-1.6-1.7-2.4-1.7-2.6,0-5.5-5-5.5-9.5,0-2.9-.6-4.7-2-6-2.3-2.1-2.6-4.5-.5-4.5.8,0,2.9.9,4.7,2,5,3,13.4,2.7,20.1-.7,11.7-6,12.5-6.7,12.9-12,.4-4.6.2-5-4-9.1-2.4-2.3-4.7-4.2-5.1-4.2-.3.1-6.7,3.5-14.1,7.6Z"/>
        <path class="cls-2" d="M194.5,105.21c0,.5,1.1,3.9,2.5,7.7,2.3,6.6,3.7,8.6,6.1,8.6.5,0,2.3,1.3,3.8,2.9,2.6,2.8,2.8,3.4,2.3,8.8-.5,5.1-.2,6.5,2.6,12,4.9,9.9,5.7,8.7,5.7-8.5,0-18.7-.8-20.4-12.5-27.4-7.7-4.5-10.5-5.6-10.5-4.1Z"/>
        <path class="cls-2" d="M156.1,119.81c-1.8,1.3-1.7,2,2.6,14.3,2.5,7.1,5.6,16.7,6.9,21.4l2.4,8.5,4,.6c4.7.8,8.3-.4,9.1-2.8,1-3.1,8.6-17.7,10.2-19.6,1.5-1.6,1.5-2.1,0-5-.9-1.8-1.9-4.1-2.2-5.3-.4-1.3-2.2-2.6-5.4-3.6-2.6-.9-9.2-3.5-14.6-5.7-11.4-4.7-10.6-4.5-13-2.8Z"/>
        <path class="cls-2" d="M135.5,121.01c-.6.8-2.2,1.7-3.3,2.1-1.2.3-3.5,1.6-5.2,2.9-1.6,1.2-4,2.5-5.2,2.9-1.6.5-2.3,1.5-2.3,3.3,0,1.5-.7,3.4-1.6,4.4-1.4,1.5-1.5,3.1-.9,9.4.5,5.2,1.1,7.8,2.2,8.4,2.5,1.4,5.3.1,5.9-2.8.7-2.8,10.7-23.5,12.3-25.5.5-.6,1.2-2.3,1.6-3.9.5-2,.4-2.7-.8-2.7-.8,0-2,.7-2.7,1.5Z"/>
        <path class="cls-2" d="M144.5,125.11c-.6,1.4-1,3-1,3.6,0,.5-.8,2.2-1.8,3.6-2.1,3-8.2,15.4-8.2,16.6,0,.4-.9,1.9-2,3.3-2.6,3.3-2.5,4.6.5,9.1,1.4,2,2.5,4.6,2.5,5.9,0,3.3,1,5.3,2.8,5.3.9,0,4.7,1,8.5,2.2,6.8,2.2,6.9,2.2,7.9.3.6-1.1,2.8-3.7,5-5.7l3.8-3.7-5.9-17.8c-3.2-9.8-6.2-19.1-6.5-20.8-1.2-4.9-4.1-5.9-5.6-1.9Z"/>
        <path class="cls-2" d="M191.3,154.41l-6.6,13.1,2.9,3.6c1.6,2,3.4,5.4,4.1,7.5.6,2.2,1.6,3.9,2.2,4,.6,0,6.1.1,12.1.1h11l.3-9.1c.3-10-.7-13.1-7-20.9-1.8-2.2-4.2-5.6-5.3-7.4-1.3-2.1-3-3.4-4.6-3.6-2.4-.3-3.1.7-9.1,12.7Z"/>
        <path class="cls-2" d="M91.1,147.21c-.8.8-.6,36.1.3,39.2,1.4,4.9,3.4,4.7,9-.9,2.9-2.9,5.2-6,5.1-6.9,0-.9-.2-5.3-.3-9.8-.2-7.3-.5-8.4-2.9-11-1.5-1.5-4.5-4.7-6.6-7-2.2-2.3-4.2-3.9-4.6-3.6Z"/>
        <path class="cls-2" d="M131.5,179.51c-.6,1.1-2.5,2.7-4.2,3.6l-3.1,1.6.7,11c.4,6,1.1,12,1.6,13.2.8,2.3,16.2,11.6,19.2,11.6.9,0,2-1,2.3-2.1.4-1.2,2.7-5.1,5.1-8.7,4.1-6.1,5.5-10.2,3.6-10.2-1.6,0-5.2-9.1-5.2-13,0-2.1-.4-4.2-1-4.5-1.2-.7-15-4.4-16.7-4.5-.7,0-1.7.9-2.3,2Z"/>
        <path class="cls-2" d="M104.8,188.71c-2.9,3-5.3,5.6-5.3,5.9,0,.2,2.1,1.6,4.8,2.9,2.6,1.4,4.9,2.8,5.2,3.1.3.4,2.5,1.6,4.9,2.8,5.4,2.8,7.1,1.8,5.3-3.2-.7-1.8-1.2-5.4-1.2-7.8,0-5.4-1.5-7.7-5.5-8.4-2.6-.6-3.6,0-8.2,4.7Z"/>
        <path class="cls-2" d="M191.5,192.11c-2.8,6.5-2.6,9.2.6,10,1.8.5,3.9-.1,6.7-1.6,10.9-6.1,16.2-9.7,16.5-11.3.3-1.5-.8-1.7-10.7-1.7h-11l-2.1,4.6Z"/>
        <path class="cls-2" d="M179,204.21c-2.7,1-5.9,1.3-10.1.9l-6.1-.5-2.3,4.2c-1.3,2.3-3.9,6.4-5.7,9.1-5.8,8.4-2.2,8.8,11.5,1.2,21.7-12,21.2-11.7,21.2-14.3s-2.5-2.9-8.5-.6Z"/>
      </g>
      <g>
        <path class="cls-2" d="M45.36,147.42c-.08,1.42-.47,2.39-1.16,2.91-.19.14-.38.24-.59.29-.2.05-.4.07-.6.07-.19,0-.37-.03-.54-.07-.17-.04-.3-.09-.41-.15-.28-.17-.54-.36-.78-.59-.23-.22-.44-.46-.62-.7-.18-.25-.34-.5-.48-.76-.14-.26-.26-.51-.36-.75-.1-.24-.19-.47-.26-.69-.07-.21-.13-.4-.17-.56-.4.02-.69.03-.88.04-.19,0-.28.01-.29.01l-.23-1.64h0s.14,0,.29-.02c.15,0,.32-.01.52-.02.2,0,.42-.02.65-.03.23-.01.44-.02.64-.03.2,0,.37-.02.52-.02.15,0,.24-.01.28-.02.68-.04,1.24-.08,1.67-.13.43-.04.78-.09,1.04-.13.26-.04.44-.07.55-.1.11-.03.18-.05.22-.06.14-.06.27-.13.37-.21.1-.08.18-.18.24-.29.06-.11.11-.24.14-.39.03-.15.05-.32.06-.51.01-.23.1-.41.25-.57.16-.15.34-.22.56-.21.11,0,.2.04.29.09s.17.11.24.19c.07.08.12.17.15.27.03.1.05.21.04.32-.01.21-.04.46-.1.75s-.15.57-.29.85c-.22.43-.57.77-1.02,1.03.03.35.05.67.06.97,0,.3,0,.58-.01.86ZM41,146.32c.04.14.1.3.16.48.07.19.14.38.23.58.09.2.18.4.29.6.11.2.22.38.35.54.13.16.26.29.41.4.15.1.31.16.47.17.17.01.32-.04.43-.14.11-.11.21-.25.28-.42.07-.18.12-.38.16-.6.03-.22.06-.45.07-.68.01-.23.01-.45,0-.66,0-.21-.02-.39-.04-.53-.31.05-.68.09-1.13.13-.44.04-1,.09-1.68.13Z"/>
        <path class="cls-2" d="M45.63,144.29c-.1-.02-.19-.06-.27-.12-.08-.06-.15-.14-.21-.22-.06-.09-.1-.18-.13-.29-.03-.1-.03-.21-.02-.31v-.08c.05-.23.02-.46-.06-.69-.08-.23-.2-.45-.36-.66-.15-.21-.33-.41-.53-.6-.2-.19-.4-.36-.59-.52-.19-.15-.38-.29-.57-.41-.19-.12-.37-.24-.54-.34-.17-.1-.32-.19-.45-.26-.14-.07-.24-.13-.32-.17-.11-.05-.18-.07-.18-.07l.65-1.5s.02.02.05.03c.03.01.07.03.13.06.11.05.28.12.5.21.22.09.47.18.74.27.44.14.83.22,1.18.24.34.02.61,0,.81-.09.15-.05.24-.16.28-.32.03-.06.04-.12.05-.18.03-.21,0-.42-.1-.63-.14-.28-.38-.56-.72-.86-.34-.3-.77-.59-1.29-.86-.24-.14-.47-.25-.69-.35-.22-.1-.4-.18-.56-.24-.12-.05-.22-.09-.3-.12-.07-.03-.11-.05-.12-.05l.53-1.55s.04.03.12.06c.07.02.17.06.31.11s.29.1.48.16c.19.05.39.1.61.15.47.11.88.15,1.24.14.36-.01.64-.08.84-.21.08-.05.16-.12.23-.21.07-.09.12-.24.15-.44.04-.28-.01-.53-.17-.73-.16-.22-.42-.41-.78-.59-.35-.17-.78-.32-1.29-.44-.23-.05-.45-.09-.65-.12-.2-.03-.37-.06-.52-.07-.13,0-.24-.01-.32-.02-.08-.01-.12-.02-.13-.02l.12-1.63s.17,0,.44.04c.11,0,.24,0,.38,0,.14,0,.3,0,.47,0,.17,0,.35-.02.53-.03.19-.01.37-.04.56-.07,1.33-.22,2.05-.72,2.17-1.49l.02-.1v-.07c.05-.23.15-.41.32-.54.17-.13.36-.17.58-.14.21.04.38.14.5.32.12.18.17.38.13.61v.07s-.03.1-.03.1c-.07.44-.22.84-.45,1.2-.23.36-.54.66-.92.91-.18.13-.4.24-.65.35.3.21.54.43.72.68.23.29.38.61.47.95.09.35.1.71.04,1.08-.06.4-.19.76-.39,1.07s-.46.56-.77.74c-.1.06-.21.12-.33.16-.11.05-.23.09-.36.12.38.38.67.77.87,1.17.25.54.33,1.08.25,1.63-.01.08-.03.15-.05.22-.02.07-.04.14-.06.22-.21.63-.6,1.07-1.16,1.33-.1.04-.2.07-.3.1s-.21.06-.32.08c.19.22.36.43.5.65.52.78.72,1.58.6,2.4v.08c-.03.11-.06.21-.12.3-.06.09-.12.17-.2.23-.08.06-.17.11-.27.13-.1.03-.2.03-.31.02Z"/>
        <path class="cls-2" d="M47.93,129.53c-.1-.03-.18-.07-.26-.13s-.14-.14-.2-.22c-.05-.09-.09-.18-.1-.28-.02-.1-.02-.21,0-.31.08-.31.09-.62.04-.9-.05-.29-.15-.55-.3-.8-.15-.25-.33-.49-.54-.71-.21-.22-.45-.42-.69-.61-.25-.18-.5-.35-.77-.5-.26-.15-.51-.29-.75-.41l.72-1.5c.11.08.25.17.43.29.18.12.37.24.57.36.21.12.42.23.64.34.22.11.43.19.63.25.14.04.27.06.41.07.14.01.26,0,.38-.04.12-.04.22-.1.31-.2.09-.09.16-.23.2-.4.07-.27.06-.54-.03-.79-.09-.26-.22-.5-.41-.73-.19-.23-.41-.45-.66-.65-.26-.2-.52-.39-.8-.56-.28-.17-.55-.33-.81-.47-.27-.14-.5-.25-.7-.34l.66-1.46c.32.15.58.28.81.39.23.11.47.21.72.32.26.11.49.19.7.25.19.05.37.09.55.11.18.02.34.01.49-.02.15-.03.27-.09.39-.17.11-.09.2-.21.25-.36.09-.24.14-.44.15-.62,0-.17,0-.32-.04-.43-.03-.11-.08-.2-.13-.27-.06-.06-.09-.11-.12-.13h0c-.09-.1-.21-.19-.34-.26s-.28-.13-.44-.17c-.29-.08-.61-.13-.97-.14-.35-.01-.71,0-1.06.02-.35.02-.68.06-.99.11-.31.05-.55.09-.74.13l-.34-1.6c.06-.01.17-.04.33-.07.16-.04.36-.07.6-.11.23-.04.5-.07.79-.1.29-.03.59-.05.9-.05s.63,0,.95.04c.32.03.62.09.91.17.43.12.81.3,1.13.52.32.23.57.5.75.83s.29.7.33,1.13c.04.43-.02.9-.15,1.41-.05.21-.14.41-.25.59-.11.19-.24.36-.4.52-.15.16-.32.3-.5.42-.18.12-.37.21-.56.28.27.42.46.86.56,1.33.11.46.1.93-.02,1.38-.05.2-.13.4-.23.59-.1.2-.23.38-.37.55-.15.16-.31.31-.49.42-.18.12-.38.19-.59.23.24.41.4.85.48,1.3s.06.97-.08,1.54l-.03.13c-.03.1-.08.19-.14.27s-.14.14-.22.19c-.08.05-.17.08-.27.09-.1.01-.2,0-.3-.03Z"/>
        <path class="cls-2" d="M56.21,117.24c.14-.86.18-1.66.14-2.39-.04-.74-.15-1.4-.32-1.99-.18-.59-.41-1.09-.69-1.5-.29-.41-.6-.72-.95-.93-.07.22-.17.48-.28.77-.11.3-.23.58-.36.86-.47,1.09-1.12,1.79-1.94,2.07-.37.12-.75.14-1.15.06-.4-.08-.78-.23-1.14-.45-.37-.21-.7-.48-1.01-.78-.31-.31-.55-.62-.74-.94-.22-.38-.35-.76-.39-1.13s-.01-.73.11-1.06c.26-.74.82-1.28,1.67-1.65.31-.12.64-.22.99-.28s.72-.09,1.09-.08c.38,0,.76.05,1.14.12.39.07.77.18,1.14.32l.21-.58c.04-.11.09-.2.16-.28.07-.08.15-.14.24-.18.09-.04.19-.07.29-.07s.21.01.31.05c.1.04.18.1.25.17.07.07.13.16.17.26.04.1.06.2.07.31,0,.11-.01.22-.05.33l-.25.7c.67.44,1.22.99,1.66,1.63.44.64.77,1.34,1,2.09.23.75.35,1.54.38,2.36.02.82-.05,1.63-.2,2.42l-1.55-.21ZM48.94,110.4c-.05.15-.05.31.01.49.06.18.16.36.29.53.13.17.29.34.48.5.19.16.38.29.58.4.2.11.39.19.58.24.19.04.35.05.48,0,.13-.04.24-.1.35-.2.1-.09.2-.2.28-.31.08-.11.16-.23.22-.35.06-.12.11-.22.15-.32.14-.32.25-.61.35-.89.09-.27.17-.51.23-.72-.31-.11-.62-.19-.93-.24-.3-.05-.59-.08-.87-.08-.28,0-.53.02-.77.07-.24.05-.45.11-.64.18-.07.03-.14.07-.22.11-.08.04-.16.09-.23.15-.07.06-.14.12-.2.2-.06.07-.11.15-.14.24Z"/>
        <path class="cls-2" d="M53.97,109.05c-.19-.1-.33-.25-.39-.45-.07-.21-.06-.41.02-.62h0c.19-.43.28-.82.28-1.17,0-.35-.06-.69-.18-1.02-.12-.32-.28-.63-.49-.93-.21-.3-.42-.6-.65-.9-.2-.26-.39-.51-.56-.75-.17-.24-.32-.5-.44-.77-.32-.71-.34-1.38-.06-2.02.34-.76.9-1.24,1.7-1.46.63-.18,1.31-.14,2.04.12.35.11.67.26.97.45.3.19.56.41.79.66.28.31.47.64.59.99s.14.7.08,1.06c-.11.63-.45,1.23-1.04,1.81-.4.4-.9.77-1.5,1.12.02.05.03.09.03.11.4,1.11.34,2.23-.17,3.38h0c-.09.21-.24.35-.43.43-.2.07-.39.06-.59-.03ZM54.36,103.74c.52-.3.94-.6,1.24-.91.31-.31.49-.6.53-.88.02-.09,0-.2-.05-.33-.05-.12-.14-.25-.26-.38-.12-.13-.26-.25-.44-.36-.18-.11-.38-.21-.6-.28-.04-.01-.1-.03-.19-.05-.09-.02-.19-.03-.31-.05s-.24-.01-.37,0c-.13,0-.26.03-.39.07-.12.04-.24.11-.35.19-.11.09-.2.21-.26.36-.04.1-.06.21-.04.32.02.12.06.24.14.39.07.14.18.31.3.49.13.18.28.39.46.63l.6.79Z"/>
        <path class="cls-2" d="M70.25,78.25c.13-.19.29-.31.5-.35.2-.04.4,0,.58.14.18.13.28.3.32.52.04.22,0,.42-.13.61-.5.76-1.08,1.34-1.76,1.77-.68.42-1.42.64-2.22.66.07.16.12.32.15.49.03.17.05.35.06.52,0,.18,0,.35-.01.53-.01.18-.03.35-.06.52-.22,1.25-.84,2.64-1.85,4.19l-.41.63c-.32.49-.64.93-.96,1.33-.25.33-.5.63-.76.92s-.53.56-.82.81c-.05.05-.12.11-.22.19-.1.08-.21.16-.32.24-.11.08-.21.16-.31.23-.1.07-.17.12-.21.14-.32.18-.62.31-.92.4-.2.07-.42.11-.64.13-.22.02-.46.01-.71-.02,0,0-.02,0-.03-.01-.21-.03-.42-.09-.63-.18-.21-.08-.42-.19-.63-.33-.21-.14-.41-.31-.6-.51-.19-.2-.37-.44-.53-.71-.21-.37-.38-.68-.49-.95-.12-.27-.18-.42-.2-.47l1.47-.52c.06.15.12.29.19.42.05.11.11.23.17.34.06.11.12.2.16.27.41.61.86.95,1.34,1.02.44.07.95-.09,1.51-.46.56-.38,1.16-.96,1.8-1.74.23-.29.43-.57.62-.84.19-.26.35-.5.48-.7.32-.45.6-.87.82-1.26.22-.39.41-.75.56-1.08.15-.33.27-.62.36-.89.09-.26.15-.49.19-.68.12-.5.14-.92.07-1.25-.07-.34-.21-.6-.42-.8-.21-.2-.48-.34-.8-.41-.32-.08-.67-.12-1.05-.12-.38,0-.78.03-1.2.1-.41.07-.82.15-1.21.25-.39.09-.77.2-1.12.3-.35.11-.65.2-.91.29l-1.23-1.12,1.53-7.94,1.51.35-1.4,6.98c.51-.2,1.02-.36,1.53-.49s1.02-.23,1.52-.28c.5-.05.98-.06,1.45-.03s.9.11,1.31.23c.25.08.52.15.79.21.27.06.55.1.83.11.28.01.58-.01.87-.08.3-.06.6-.19.91-.38.39-.24.77-.63,1.13-1.17l.04-.05ZM60.38,75.77c.12-.18.28-.33.47-.44.2-.11.41-.18.64-.21.22-.02.43,0,.64.05.21.05.39.14.56.26.16.12.31.27.43.46.12.19.21.39.27.62.06.24.08.48.05.71-.03.23-.11.44-.23.62-.12.19-.28.34-.48.45-.2.11-.41.18-.65.2-.22.02-.43,0-.64-.05-.21-.06-.39-.14-.56-.26-.17-.12-.31-.28-.43-.46-.12-.19-.21-.39-.27-.61-.06-.24-.07-.47-.04-.71.03-.23.11-.44.23-.63ZM62.52,77.33c.06-.09.09-.19.1-.3,0-.11,0-.22-.04-.34-.03-.11-.08-.21-.14-.31-.06-.1-.14-.18-.22-.24-.08-.06-.18-.1-.28-.13-.11-.03-.22-.04-.33-.03-.11,0-.21.03-.31.08-.1.05-.18.11-.23.2-.06.09-.09.19-.1.3,0,.11,0,.22.04.34.03.11.08.22.14.31.06.1.13.17.22.23.08.06.18.1.29.13.11.03.22.04.33.03.11,0,.22-.04.31-.08.1-.04.17-.11.23-.2Z"/>
        <path class="cls-2" d="M67.02,71.41l.13,1.9-1.81.15-.13-1.9,1.82-.14ZM69.13,68.84l.13,1.9-1.82.14-.13-1.9,1.81-.15ZM70.29,79.96c-.17-.15-.26-.34-.28-.56-.02-.22.05-.42.19-.59l.39-.48c.29-.35.54-.71.77-1.06s.39-.71.48-1.05c.09-.34.11-.67.04-.98-.07-.31-.25-.59-.55-.84-.23-.19-.47-.38-.74-.57-.26-.19-.59-.37-.97-.56l.65-1.46c.17.09.34.19.52.29.18.11.36.22.54.34.18.12.36.24.53.37s.35.26.51.39c.15.13.32.25.51.37s.38.2.58.25.4.05.6,0c.2-.05.39-.18.56-.39.14-.18.32-.27.53-.29.21-.02.4.05.57.2.08.08.15.16.19.26.04.1.07.2.07.3,0,.11,0,.21-.04.31-.03.1-.08.19-.15.28-.35.42-.71.71-1.08.85-.37.15-.74.21-1.1.18.02.28-.03.58-.13.91-.1.33-.24.66-.41,1-.17.34-.38.68-.61,1.02-.23.34-.47.66-.72.96l-.39.48c-.14.18-.32.27-.53.29s-.39-.05-.56-.2Z"/>
        <path class="cls-2" d="M72.57,63.21l-.03,1.91-1.82-.02.02-1.91,1.83.02ZM74.38,74.64c-.07-.08-.13-.17-.17-.27-.04-.1-.06-.2-.05-.31,0-.11.02-.21.06-.31.04-.1.1-.19.18-.27l1.03-1.06c.5-.52.94-1.07,1.31-1.65.37-.58.7-1.17.98-1.78.29-.61.54-1.23.76-1.87.22-.63.44-1.26.65-1.89l.05-.16c-.34.17-.69.32-1.03.45-.34.13-.68.26-1.01.38-.25.09-.5.18-.74.28-.24.09-.47.19-.68.29-.21.1-.41.2-.58.31-.18.11-.32.22-.44.35-.16.16-.27.35-.35.57-.07.21-.12.43-.14.66-.02.23-.02.45,0,.67.02.22.05.42.09.59.04.18.09.37.15.59l-1.47.56s-.02-.05-.05-.14c-.03-.09-.06-.21-.1-.37-.04-.15-.07-.33-.11-.54-.04-.2-.06-.42-.08-.65-.04-.66.02-1.26.18-1.79s.41-.98.77-1.35c.18-.19.38-.35.61-.5.23-.15.47-.29.73-.41.26-.12.53-.24.81-.35.28-.11.57-.22.87-.33.33-.11.65-.23.98-.36.33-.13.64-.26.95-.41.31-.15.6-.32.88-.5s.53-.4.76-.63l1.26.89c-.1.25-.2.5-.29.77-.09.26-.18.52-.28.79.18.11.36.17.55.18.19,0,.38-.01.56-.06.19-.05.37-.12.54-.22s.33-.2.48-.3c.15-.11.28-.22.4-.32.12-.11.21-.2.28-.27l.03-.04.05-.05c.08-.08.17-.14.26-.18.1-.04.2-.06.3-.05.1,0,.2.02.29.06s.18.1.25.18c.15.17.23.36.22.58,0,.22-.09.41-.25.57l-.08.08c-.37.38-.75.7-1.13.95-.38.25-.76.44-1.14.55-.38.12-.74.17-1.11.15-.36-.02-.71-.1-1.04-.26-.2.6-.41,1.2-.65,1.82-.23.62-.5,1.23-.8,1.84-.3.61-.65,1.21-1.04,1.79-.39.59-.85,1.15-1.37,1.68l-1.04,1.06c-.16.16-.34.24-.55.24-.21,0-.39-.08-.54-.25Z"/>
        <path class="cls-2" d="M83.46,65.28c-.13-.18-.19-.37-.17-.59.02-.22.12-.4.28-.55h0c.34-.3.59-.6.73-.92.15-.32.23-.65.26-1,.03-.34,0-.7-.05-1.06-.06-.36-.13-.73-.21-1.11-.07-.32-.13-.63-.19-.94-.05-.3-.08-.6-.08-.89,0-.79.27-1.4.79-1.85.62-.53,1.33-.7,2.13-.53.64.13,1.23.48,1.78,1.05.27.26.49.55.68.86.19.31.33.63.44.96.12.41.16.8.11,1.17-.04.37-.17.7-.37.99-.36.52-.92.9-1.68,1.15-.52.17-1.13.28-1.82.31,0,.05,0,.09-.02.11-.1,1.18-.62,2.17-1.56,2.97h0c-.17.15-.35.21-.56.18-.21-.03-.38-.12-.52-.3ZM86.02,60.68c.59-.03,1.09-.11,1.5-.24.4-.13.69-.31.84-.55.06-.08.09-.18.09-.32s-.02-.29-.07-.46c-.05-.17-.13-.35-.24-.53-.11-.18-.25-.36-.42-.53-.03-.03-.08-.07-.15-.13-.07-.06-.16-.12-.26-.19-.1-.06-.21-.12-.34-.18-.12-.06-.25-.09-.38-.11s-.26-.02-.4.01c-.13.03-.26.09-.38.2-.08.07-.14.16-.17.27-.03.11-.05.25-.04.41,0,.16.03.36.07.58.04.22.09.48.15.78l.21.99Z"/>
        <path class="cls-2" d="M95.12,56.14c.26.39.46.82.6,1.27.14.45.22.92.26,1.41.03.49.02.99-.04,1.5-.06.51-.16,1.02-.29,1.53-.13.51-.29,1.01-.49,1.5-.2.49-.41.97-.64,1.42l-1.35-.79c.2-.4.38-.81.55-1.23.17-.43.32-.85.43-1.29.12-.43.2-.86.26-1.29.06-.43.07-.84.04-1.24-.03-.4-.11-.77-.23-1.13-.12-.36-.31-.69-.55-.98h0c-.2-.22-.43-.46-.69-.72-.26-.25-.52-.49-.79-.72-.27-.23-.52-.44-.75-.64-.24-.2-.44-.36-.6-.49l.95-1.29c.51.4.97.73,1.37.98.4.25.76.43,1.08.54.32.11.61.15.86.13.25-.03.49-.12.7-.28l.03-.02c.09-.07.19-.11.29-.13.1-.02.2-.02.3,0s.19.06.28.11c.09.06.16.13.22.22.13.19.17.39.13.61-.04.21-.15.39-.33.52h0c-.06.05-.14.11-.24.17-.1.07-.22.13-.36.18-.14.05-.29.1-.46.12-.17.03-.35.02-.55-.02l.02.03Z"/>
        <path class="cls-2" d="M95.33,55.62c-.12-.2-.15-.4-.1-.62.05-.21.16-.38.35-.5l.74-.49c.16-.1.33-.21.51-.33.18-.12.36-.25.54-.4.18-.14.34-.29.5-.44.16-.15.3-.31.41-.48.11-.16.2-.33.26-.5.06-.17.08-.34.06-.51-.03-.26-.17-.56-.43-.91-.26-.35-.6-.72-1.04-1.13-.14-.12-.29-.24-.46-.38-.17-.13-.33-.25-.48-.36-.18-.13-.35-.26-.53-.38l.82-1.4s.05.04.15.1.22.15.38.27c.15.11.33.25.52.4.2.15.4.32.6.51,1.21,1.07,1.88,2.09,2.01,3.05.13.96-.14,1.83-.8,2.6-.1.12-.23.25-.41.39s-.36.29-.55.42c-.19.14-.37.27-.55.39-.18.12-.31.21-.41.28l-.97.64-.06.04c-.18.12-.38.16-.58.11-.21-.05-.36-.17-.48-.37ZM98.2,56.51l1.76.43-.41,1.88-1.76-.43.41-1.88ZM101,57.76l1.6.39-.38,1.7-1.6-.39.38-1.7ZM101.12,54.58l1.75.43-.41,1.88-1.75-.43.41-1.88Z"/>
        <path class="cls-2" d="M109.13,52.84c.66-.52,1.22-1.06,1.67-1.63s.81-1.12,1.07-1.67c.26-.55.42-1.08.49-1.59.07-.51.04-.96-.07-1.36-.2.1-.43.22-.71.36-.27.13-.55.25-.82.36-1.06.45-1.98.47-2.76.08-.35-.18-.64-.45-.87-.8s-.41-.74-.53-1.16c-.12-.42-.19-.86-.21-1.31-.02-.45,0-.85.09-1.22.1-.43.25-.8.46-1.11.21-.3.47-.53.77-.69.67-.34,1.44-.33,2.29.03.37.16.72.38,1.07.65.35.28.67.59.97.96.3.36.57.76.82,1.2s.45.89.61,1.37c.19.58.31,1.15.34,1.71.03.57,0,1.12-.1,1.67-.1.55-.26,1.08-.48,1.59-.22.51-.49,1-.8,1.46-.31.46-.67.89-1.06,1.29-.39.4-.82.77-1.27,1.09l-.98-1.28ZM108.37,42.58c-.14.07-.24.19-.32.36-.07.17-.12.37-.14.6-.02.22-.01.46.02.71.03.25.08.49.15.71.07.23.16.42.26.59.11.17.22.29.35.35.12.06.24.1.38.11.14,0,.27,0,.41-.02.13-.02.26-.05.39-.09.12-.04.23-.08.32-.12.31-.13.59-.26.83-.39.25-.13.46-.25.64-.36-.16-.31-.33-.59-.51-.85-.19-.26-.38-.49-.57-.69-.2-.2-.4-.37-.6-.51-.2-.14-.4-.25-.58-.34-.07-.03-.15-.05-.23-.08-.08-.03-.17-.05-.26-.06s-.18-.01-.27,0c-.09,0-.18.03-.26.07Z"/>
        <path class="cls-2" d="M115.74,45c-.38-1.19-.76-2.31-1.14-3.36-.38-1.04-.76-2-1.11-2.87-.36-.87-.69-1.64-1.01-2.33-.31-.68-.59-1.26-.82-1.73-.23-.47-.42-.83-.55-1.09-.13-.25-.2-.38-.21-.39l1.34-.85s.18.32.47.88c.15.28.3.58.45.91.16.33.32.68.5,1.06.18.38.34.74.49,1.08.15.34.29.68.43.99.39.93.82,1.99,1.27,3.19.46,1.2.91,2.52,1.37,3.96l-1.47.54Z"/>
        <path class="cls-2" d="M131.95,31.78c.33-.17.66-.29.98-.36.33-.07.62-.11.87-.12.26,0,.47,0,.64.02.16.02.26.03.27.03l-.29,1.65c-.21-.03-.4-.03-.56-.02-.16,0-.35.04-.56.08s-.42.12-.63.23c-.21.08-.41.21-.61.4-.2.18-.38.4-.55.64s-.31.52-.43.81-.21.58-.27.87c-.05.29-.07.57-.04.84.03.27.11.51.24.72.11.18.27.31.46.38.19.07.41.12.66.13.24.02.5.02.78,0,.28-.02.55-.02.82-.01.27,0,.54.03.79.08.26.05.49.14.7.29.21.14.38.35.52.61.14.26.23.61.27,1.04.04.55-.06,1.09-.31,1.63-.24.54-.62,1.05-1.13,1.52-.48.46-1.06.86-1.72,1.22-.67.35-1.42.65-2.25.88-.96.27-1.84.37-2.65.28-.81-.08-1.52-.34-2.13-.76-.54-.38-.98-.88-1.32-1.5-.34-.61-.56-1.33-.66-2.14-.05-.36-.08-.73-.1-1.13-.02-.39-.04-.77-.04-1.15,0-.38,0-.74,0-1.08,0-.34.02-.65.03-.91.01-.27.02-.48.03-.64.01-.16.02-.26.02-.28l1.59.13c-.04.81-.07,1.62-.08,2.42s.03,1.6.13,2.41c.02.2.06.41.11.64.05.23.13.45.23.67.1.22.23.43.38.63.15.2.34.37.55.53.41.29.92.46,1.51.5.59.04,1.25-.04,1.98-.25.72-.2,1.35-.45,1.9-.73.55-.28,1-.58,1.36-.9.36-.32.62-.63.78-.95.16-.32.22-.62.18-.9-.02-.13-.09-.23-.21-.28-.12-.06-.27-.09-.45-.11-.18-.02-.39-.02-.63-.01-.23,0-.48.01-.74,0-.26,0-.52-.02-.78-.05-.26-.03-.52-.09-.75-.18-.24-.09-.46-.22-.66-.39-.2-.17-.37-.39-.5-.68-.19-.4-.31-.81-.37-1.25-.06-.43-.07-.86-.03-1.3.04-.43.14-.86.28-1.27.15-.41.33-.81.56-1.17.23-.37.5-.7.81-1s.65-.55,1.02-.75Z"/>
        <path class="cls-2" d="M141.7,36.71c.07.47.08.95.02,1.42-.06.47-.18.94-.35,1.39-.17.46-.39.9-.65,1.33-.26.43-.56.85-.89,1.25-.33.4-.68.78-1.06,1.14s-.76.69-1.16,1l-.9-1.33c.34-.27.67-.56,1-.86.33-.31.63-.63.92-.96.28-.34.53-.68.76-1.05.22-.36.4-.73.54-1.1.14-.37.22-.75.26-1.13.04-.38,0-.76-.09-1.14v.02c-.08-.3-.19-.63-.32-.97-.13-.34-.27-.68-.41-1.01-.15-.33-.29-.64-.42-.92-.13-.29-.25-.53-.34-.72l1.38-.74c.3.6.58,1.1.83,1.51.26.41.51.74.75.98.24.24.48.41.72.5.24.09.48.12.74.07h.04c.11-.03.21-.02.31,0s.19.07.27.13c.08.06.15.14.2.23.05.09.09.19.11.3.04.23,0,.43-.13.61-.12.18-.29.28-.51.32h0c-.07.01-.17.03-.29.04-.12.01-.25.02-.4,0-.15-.01-.3-.05-.47-.1-.16-.06-.33-.14-.49-.27v.03ZM140.33,41.09c.21-.04.42-.02.63.05.21.07.41.18.59.34.17.15.31.32.41.52.11.19.18.4.21.61.03.21.03.42-.01.65-.04.22-.12.43-.23.63-.12.22-.27.4-.45.54-.18.14-.37.23-.58.26-.21.04-.43.02-.64-.05s-.41-.18-.59-.35c-.17-.15-.31-.32-.41-.52-.11-.2-.18-.4-.21-.61-.03-.21-.03-.43.01-.65.04-.22.12-.43.23-.63.12-.21.27-.39.45-.53.18-.14.37-.23.59-.27ZM140.76,43.8c.1-.02.19-.06.27-.14.08-.07.15-.16.2-.26.05-.1.09-.21.11-.33s.02-.23,0-.33c-.02-.1-.05-.2-.11-.3-.06-.1-.12-.19-.21-.27-.08-.08-.17-.14-.27-.18-.1-.04-.2-.05-.3-.04-.1.02-.2.06-.27.14-.08.07-.15.16-.2.26-.06.1-.09.21-.12.32-.02.11-.02.22,0,.32.02.1.05.21.11.31.06.1.13.19.21.27.08.08.17.14.27.18.1.04.2.05.3.03Z"/>
        <path class="cls-2" d="M142,36.33c-.02-.23.04-.43.18-.61.14-.17.34-.28.59-.3l.82-.09c.31-.04.64-.08.98-.12.34-.05.66-.12.96-.21.3-.09.58-.21.82-.37.24-.15.42-.35.54-.6.15-.29.22-.61.21-.93,0-.33-.07-.68-.2-1.05-.08-.22-.25-.49-.51-.81-.26-.32-.58-.67-.95-1.03-.37-.36-.79-.73-1.24-1.1s-.91-.72-1.38-1.03v-1.71s6.15-3.63,6.15-3.63l.75,1.43-5.35,3.12c.28.2.58.43.91.68.33.25.66.53.99.85.44.42.81.82,1.11,1.21.3.39.53.77.71,1.13.18.36.31.71.39,1.04.08.33.12.65.13.95s-.02.58-.08.84c-.06.26-.13.5-.22.73-.38.92-1.11,1.55-2.19,1.89-.2.06-.42.11-.68.13l-2.53.29c-.25.03-.46-.03-.63-.16-.17-.14-.27-.32-.29-.54Z"/>
        <path class="cls-2" d="M158.64,35.91s-.09,0-.19,0c-.1,0-.23-.02-.38-.05-.15-.02-.32-.06-.52-.12-.19-.05-.38-.13-.58-.23-.5-.24-.88-.57-1.14-.99-.26-.42-.39-.92-.39-1.49,0-.99.43-2.04,1.29-3.13.17-.22.34-.41.5-.58.16-.17.3-.32.42-.43-.16-.15-.28-.26-.38-.35s-.14-.13-.14-.13l.99-1.27s.06.06.17.16c.11.09.24.22.41.39.17.17.36.36.57.58s.43.47.66.73c.64.77,1.12,1.49,1.43,2.16.32.67.47,1.29.47,1.86,0,.57-.12,1.07-.36,1.49s-.59.75-1.05.99c-.17.09-.34.16-.51.21-.17.05-.34.09-.5.12-.16.03-.31.05-.44.06-.14,0-.26.01-.35.01ZM158.74,30.06c-.15.14-.33.33-.53.55-.2.22-.39.47-.57.73-.18.27-.33.54-.45.83s-.19.57-.19.85c0,.08,0,.17.02.26.01.09.04.18.09.26.04.09.11.17.19.25.08.08.2.16.34.22.1.05.2.09.31.12.1.03.2.05.29.07.09.02.17.03.24.03.07,0,.13,0,.16,0,.05,0,.11,0,.2,0,.09,0,.18-.01.28-.03.1-.01.21-.04.31-.07.11-.03.21-.07.31-.12.19-.11.33-.24.42-.4.09-.16.13-.36.13-.61,0-.36-.13-.79-.39-1.29-.26-.5-.64-1.05-1.14-1.63,0,0,0-.01-.01-.02,0,0,0-.01-.02-.02Z"/>
        <path class="cls-2" d="M166.48,36.17c-.25-.02-.55-.07-.88-.16s-.67-.2-1.01-.33c-.33-.13-.64-.26-.91-.41-.27-.15-.47-.29-.59-.43l.75-1.51c.18.15.41.29.67.44.26.14.55.27.85.39.3.11.61.21.94.27.32.07.64.1.94.09.3,0,.59-.05.86-.14.27-.09.5-.24.69-.46.15-.16.19-.48.12-.96-.04-.27-.11-.56-.22-.87-.11-.31-.24-.61-.4-.92-.16-.31-.34-.61-.54-.91-.2-.3-.41-.57-.63-.83-.22-.26-.45-.49-.68-.7-.23-.21-.46-.37-.69-.5l.74-1.46c.3.17.6.39.89.65.3.26.58.55.86.87.27.32.53.66.78,1.03.25.36.46.74.66,1.12.19.38.36.76.5,1.15s.23.75.29,1.11c.04.31.05.59.04.84-.02.25-.05.47-.11.66-.06.19-.13.35-.21.49-.08.14-.17.26-.26.36-.52.58-1.22.93-2.1,1.07-.2.04-.41.06-.63.07-.22,0-.46,0-.7-.02Z"/>
        <path class="cls-2" d="M174.43,31.61c.08.53.16,1.05.23,1.57.03.22.05.45.08.69.03.24.05.48.08.71.02.24.04.47.05.69.01.22.01.43.01.62,0,.06,0,.13,0,.21,0,.08-.01.16-.02.26-.06.48-.18.93-.37,1.36-.19.43-.43.84-.71,1.22-.29.38-.62.74-.99,1.08-.37.33-.77.64-1.19.92-.42.28-.86.54-1.32.76s-.92.43-1.38.59l-.5-1.54c.58-.21,1.15-.47,1.71-.78.56-.31,1.07-.65,1.53-1.05.46-.39.84-.82,1.15-1.29.31-.47.49-.97.56-1.5,0-.03,0-.07,0-.14,0-.06,0-.13,0-.19h0c0-.16,0-.35,0-.56-.01-.21-.03-.42-.05-.63s-.04-.43-.07-.65c-.03-.22-.05-.43-.08-.63-.07-.48-.14-.96-.23-1.44l1.54-.3ZM175.19,28.32l-1.44,1.17-1.11-1.52,1.44-1.17,1.11,1.52Z"/>
        <path class="cls-2" d="M184.79,36.2c-.2.17-.4.39-.6.68-.17.25-.35.57-.53.97-.19.4-.36.9-.5,1.5-.09.35-.12.69-.09,1,.03.32.09.61.19.87.1.27.23.51.39.72.16.22.33.41.51.57.18.16.36.3.55.4.19.11.35.18.51.22.23.06.49.12.78.16.29.04.58.06.87.04s.59-.06.88-.15c.29-.09.57-.22.82-.41.26-.19.49-.43.69-.74.2-.31.36-.69.47-1.14.11-.42.22-.93.36-1.52.13-.59.27-1.22.42-1.9.15-.68.3-1.38.45-2.1.15-.72.3-1.43.45-2.12.34-1.62.69-3.33,1.06-5.12l1.51.34c-.2.98-.4,1.98-.61,3.01-.09.44-.19.9-.29,1.4-.1.49-.21,1-.32,1.52-.11.52-.22,1.04-.33,1.57-.11.52-.22,1.04-.33,1.54-.06.34-.07.66,0,.95.02.13.06.25.11.38.05.12.12.24.2.36.09.11.19.21.33.3.13.09.29.16.48.21.11.03.2.08.28.15s.15.15.2.24.08.19.1.3c.01.11,0,.21-.02.32-.06.22-.17.39-.35.5-.18.11-.38.13-.59.07-.18-.05-.33-.1-.47-.16-.14-.05-.26-.11-.37-.18-.11-.06-.21-.13-.3-.2s-.17-.15-.26-.23c-.03.15-.06.29-.1.42-.03.13-.06.26-.09.38-.17.67-.39,1.24-.68,1.7-.28.46-.6.83-.96,1.11-.36.28-.74.49-1.15.63-.41.13-.82.21-1.24.24-.42.03-.83.02-1.24-.04-.41-.06-.78-.13-1.13-.23-.34-.09-.68-.23-1.01-.4-.33-.17-.63-.38-.91-.63-.28-.25-.53-.53-.74-.86-.21-.33-.38-.69-.5-1.08-.12-.39-.18-.83-.19-1.3,0-.47.05-.97.19-1.51.18-.74.39-1.37.62-1.86.23-.5.45-.9.65-1.21.24-.36.48-.64.73-.85l1.12,1.17Z"/>
        <path class="cls-2" d="M191.8,40.21c.07-.22.2-.38.39-.48.19-.1.39-.11.59-.03l.56.2c.42.15.82.27,1.22.36s.77.11,1.1.08c.34-.03.63-.14.88-.33.25-.18.43-.47.54-.85.09-.3.16-.61.23-.94.07-.33.11-.71.13-1.16l1.53.09c-.02.2-.04.41-.06.62s-.06.43-.1.65c-.04.22-.08.44-.13.66-.05.22-.1.43-.16.64-.05.2-.1.41-.13.64-.04.23-.04.45-.01.66.03.22.1.41.22.59.12.18.3.31.55.4.21.08.36.21.46.41.1.2.11.41.04.63-.04.11-.09.2-.16.28-.07.08-.15.14-.24.19-.09.05-.18.07-.28.08-.1,0-.2,0-.3-.04-.5-.18-.88-.43-1.15-.74-.26-.31-.45-.65-.57-1.01-.24.12-.52.19-.84.22-.33.03-.67.01-1.03-.03-.37-.05-.74-.12-1.12-.22-.38-.1-.75-.21-1.11-.34l-.56-.2c-.21-.08-.36-.21-.45-.41-.09-.2-.1-.41-.03-.62ZM195.65,41.5c.2.07.38.19.53.36.16.17.28.37.36.6.08.22.12.44.13.66,0,.23-.02.44-.09.64-.07.2-.17.39-.3.56-.14.18-.3.32-.49.44-.2.13-.42.21-.64.24-.22.03-.43.01-.63-.06-.2-.07-.38-.2-.54-.36-.15-.17-.27-.37-.36-.6-.08-.22-.12-.44-.13-.66,0-.23.02-.44.09-.64.07-.2.17-.39.31-.57.14-.17.3-.32.49-.44.2-.13.41-.2.63-.23.22-.03.43,0,.64.06ZM194.79,44.11c.09.03.19.04.3.02.1-.02.2-.07.3-.13.09-.06.18-.14.25-.23.07-.09.12-.19.16-.29.03-.1.05-.21.04-.32,0-.12-.02-.23-.06-.34s-.09-.21-.16-.29c-.07-.09-.15-.15-.24-.18-.1-.04-.2-.04-.3-.02-.1.02-.2.07-.3.13-.1.06-.18.14-.25.23-.07.09-.12.18-.15.28s-.05.21-.04.33c0,.12.02.23.06.34.04.11.09.21.16.29.07.09.15.15.25.18ZM197.29,33.75l-1.62.83-.8-1.72,1.62-.84.79,1.73ZM200.34,34.87l-1.62.84-.8-1.73,1.62-.83.8,1.72Z"/>
        <path class="cls-2" d="M199.51,47.35l-1.66.74-.7-1.77,1.66-.74.7,1.77ZM197.92,42.37c.08-.21.22-.37.41-.45.19-.09.39-.09.59,0l.55.24c.41.18.81.32,1.2.43.39.11.76.16,1.1.14s.63-.11.89-.27c.26-.17.45-.44.58-.82.1-.29.2-.6.28-.92s.15-.7.2-1.14l1.52.18c-.03.2-.06.4-.1.62-.04.21-.08.43-.13.65-.05.22-.1.43-.16.65s-.12.43-.19.63c-.06.19-.12.4-.17.63-.05.23-.06.44-.05.66.02.22.08.42.19.6.11.18.28.33.53.44.2.09.35.23.43.44.08.2.08.41,0,.63-.04.11-.1.2-.17.27-.07.07-.16.13-.25.17-.09.04-.19.06-.29.06-.1,0-.2-.02-.3-.06-.49-.21-.86-.48-1.11-.81-.25-.32-.42-.67-.51-1.04-.24.1-.53.16-.86.16-.32,0-.67-.02-1.03-.09-.36-.07-.73-.16-1.11-.28-.38-.12-.74-.26-1.09-.41l-.55-.24c-.2-.09-.35-.23-.43-.44s-.08-.41,0-.63ZM202.49,48.65l-1.67.74-.7-1.77,1.66-.74.7,1.77Z"/>
        <path class="cls-2" d="M203.92,44.73c.05-.1.11-.18.19-.25.08-.07.16-.12.26-.15s.19-.05.3-.04c.1,0,.2.04.3.09l1.28.69c.62.34,1.26.6,1.89.78.64.18,1.28.32,1.91.41.64.09,1.28.14,1.92.16.64.02,1.27.03,1.9.04h.16c-.26-.29-.5-.59-.73-.89-.23-.3-.45-.6-.67-.89-.16-.22-.32-.44-.48-.65-.16-.21-.32-.41-.47-.59s-.31-.34-.46-.48c-.15-.14-.3-.25-.45-.33-.2-.11-.4-.16-.62-.16-.22,0-.43.02-.64.08-.21.05-.41.13-.6.22-.19.09-.36.18-.51.28-.15.09-.31.21-.48.34l-.97-1.29s.04-.04.11-.09c.07-.06.17-.13.3-.21.13-.09.28-.18.45-.28.17-.1.36-.2.56-.29.58-.25,1.14-.38,1.66-.4.53-.01,1.01.1,1.46.34.22.12.44.27.65.45.21.18.41.38.6.6.19.22.38.45.57.7.19.25.38.5.57.76.21.29.42.58.63.87.22.28.44.56.67.82s.48.5.73.72c.26.22.52.4.81.56l-.41,1.54c-.26-.02-.51-.03-.78-.04-.26,0-.53-.02-.8-.02-.04.22-.03.42.02.61.05.19.13.37.23.55.1.17.23.33.37.47.14.14.28.27.43.38.14.11.28.21.42.29.13.08.24.15.33.19l.04.02.06.03c.1.05.18.12.24.21.06.09.11.18.14.28.03.1.04.2.03.31,0,.11-.04.21-.08.31-.1.21-.25.34-.45.41-.2.07-.4.04-.59-.06l-.1-.05c-.46-.25-.87-.52-1.21-.83-.35-.3-.63-.62-.86-.96s-.39-.69-.49-1.06c-.1-.37-.13-.74-.1-1.12-.6,0-1.21-.03-1.84-.06-.63-.04-1.27-.11-1.91-.21-.64-.11-1.29-.26-1.94-.47-.65-.21-1.3-.48-1.94-.83l-1.28-.7c-.2-.11-.33-.26-.39-.47-.07-.21-.05-.41.05-.62ZM209.61,52.09l-1.73.59-.56-1.83,1.73-.59.56,1.83Z"/>
        <path class="cls-2" d="M216.16,55.84l-1.76.43-.41-1.87,1.76-.44.41,1.87ZM214.8,50.61c.12-.2.28-.32.48-.37.2-.05.4-.01.58.11l.74.49c.15.11.32.22.5.34.18.12.37.23.57.33.2.1.4.2.6.28.2.08.39.14.58.18.19.04.37.05.54.03.17-.02.33-.07.46-.17.21-.14.4-.41.59-.81.18-.4.35-.89.5-1.48.04-.18.08-.38.12-.6.04-.22.07-.42.1-.61.03-.23.07-.45.09-.67l1.55.16s-.01.07-.02.19c-.01.12-.03.28-.06.47-.03.2-.07.42-.11.67-.05.25-.1.52-.17.79-.39,1.62-.96,2.71-1.72,3.26-.76.55-1.62.68-2.56.39-.14-.04-.31-.11-.51-.21s-.4-.21-.6-.33c-.2-.12-.39-.24-.57-.35-.18-.11-.32-.2-.41-.27l-.97-.64-.06-.04c-.18-.12-.3-.29-.35-.5-.05-.21-.01-.42.1-.62ZM218.89,57.65l-1.76.44-.41-1.88,1.76-.43.41,1.87Z"/>
        <path class="cls-2" d="M224.36,58.15c-.2-.15-.43-.37-.67-.63-.24-.27-.47-.55-.69-.84-.22-.29-.41-.58-.57-.86-.16-.28-.26-.51-.29-.69l1.39-.87c.08.23.2.48.35.74.15.27.33.54.53.8.2.27.42.52.66.76.24.24.49.44.75.6s.53.28.8.36c.27.07.55.07.82,0,.21-.05.4-.3.58-.75.1-.26.19-.54.25-.86.06-.32.1-.65.12-1.01.02-.35.02-.71,0-1.08-.02-.36-.06-.72-.12-1.06-.06-.34-.14-.67-.23-.97-.1-.3-.21-.57-.34-.81l1.36-.83c.17.31.31.66.43,1.05.12.39.22.79.29,1.22.07.42.12.86.15,1.31.03.45.03.89,0,1.32-.03.43-.08.85-.15,1.25-.07.4-.18.77-.31,1.11-.12.29-.25.53-.39.74-.14.2-.28.37-.42.5-.14.13-.28.23-.42.3-.14.07-.27.12-.4.16-.73.2-1.5.11-2.31-.26-.19-.08-.38-.18-.57-.29-.19-.12-.39-.25-.58-.41ZM225.81,58.34c.17.13.31.3.41.51.1.21.16.43.18.68.02.23,0,.46-.06.67-.06.22-.14.41-.26.59-.12.17-.26.32-.44.44s-.38.22-.59.27c-.23.06-.46.08-.68.04-.22-.04-.41-.12-.58-.25-.17-.13-.31-.3-.41-.51-.1-.21-.16-.44-.18-.69-.02-.23,0-.46.06-.68.06-.22.14-.42.26-.59.12-.18.27-.33.45-.45.18-.12.37-.21.59-.27.23-.06.45-.07.67-.03.22.04.42.12.59.26ZM224.27,60.57c.08.06.17.1.28.11.11,0,.21,0,.32-.03s.21-.08.3-.15c.09-.07.17-.14.23-.23.06-.09.1-.18.13-.3.03-.11.04-.23.04-.34,0-.12-.03-.23-.07-.33s-.1-.19-.18-.25c-.09-.06-.18-.1-.28-.11-.1,0-.21,0-.32.03-.11.03-.21.08-.3.14-.09.06-.17.14-.23.22-.06.09-.1.19-.13.3-.03.11-.04.23-.03.35,0,.12.03.23.07.33s.1.19.19.25Z"/>
        <path class="cls-2" d="M235.38,67.71c-.18-.18-.38-.42-.59-.72s-.4-.6-.58-.93c-.18-.32-.34-.63-.46-.92-.12-.3-.19-.54-.21-.73l1.48-.68c.05.24.14.5.26.79.12.29.26.58.43.87.17.29.35.57.56.84.21.27.43.5.67.7.24.2.49.35.75.46.26.11.53.14.81.11.21-.02.44-.25.67-.66.13-.24.25-.51.35-.82.1-.31.18-.64.24-.98.06-.35.1-.7.12-1.07.02-.36.03-.72,0-1.07-.02-.35-.06-.68-.11-.99-.06-.31-.14-.6-.24-.85l1.45-.64c.13.33.23.7.31,1.1.08.4.12.82.15,1.25.02.43.02.87,0,1.32-.03.45-.08.89-.16,1.31-.08.43-.18.84-.3,1.22-.12.39-.27.74-.44,1.05-.16.27-.31.5-.47.68-.16.18-.32.33-.48.44-.16.11-.31.19-.46.24-.15.05-.29.09-.41.1-.75.1-1.51-.09-2.26-.57-.18-.1-.36-.23-.53-.37-.18-.14-.35-.3-.53-.48Z"/>
        <path class="cls-2" d="M239.66,78.31c.64.55,1.28.98,1.9,1.3.63.32,1.23.55,1.8.67.57.13,1.09.16,1.58.1.48-.06.89-.2,1.23-.42-.14-.18-.31-.38-.5-.63-.19-.25-.37-.5-.53-.75-.67-.97-.92-1.91-.75-2.8.08-.4.25-.76.52-1.08.27-.32.58-.6.94-.83.36-.23.74-.42,1.15-.55.41-.13.79-.2,1.15-.22.42-.01.8.05,1.13.19.33.14.6.34.82.62.48.6.66,1.38.54,2.34-.05.35-.14.69-.26,1.05-.13.35-.28.7-.47,1.04-.19.34-.41.67-.66.99s-.52.62-.82.9l.38.48c.07.09.12.19.15.29.03.1.04.21.03.31,0,.11-.04.21-.08.3-.05.1-.11.18-.2.26-.08.07-.17.12-.27.15-.1.03-.2.04-.3.03-.1,0-.19-.04-.29-.09-.09-.05-.17-.12-.24-.21l-.45-.57c-.7.4-1.42.64-2.16.73-.75.09-1.48.06-2.22-.1-.73-.16-1.44-.43-2.13-.81-.69-.38-1.32-.84-1.9-1.37l.94-1.32ZM248.88,74.96c-.1-.12-.23-.2-.41-.23-.18-.03-.37-.03-.58,0-.21.04-.43.1-.65.2-.22.09-.43.21-.62.33-.19.13-.35.27-.48.42-.13.15-.21.3-.24.45-.03.13-.03.27,0,.41.03.14.07.28.12.41.05.13.11.26.18.37.07.12.13.22.19.3.19.28.38.53.56.75.18.22.34.41.48.56.25-.23.46-.48.65-.74.19-.25.36-.51.49-.76.14-.25.24-.5.32-.74.08-.24.13-.47.17-.68,0-.08.01-.16.02-.26,0-.09,0-.19,0-.28-.01-.1-.03-.19-.06-.28-.03-.09-.08-.17-.13-.24Z"/>
        <path class="cls-2" d="M247.48,80.32c.18-.14.37-.19.58-.15.21.03.37.14.5.33l.48.69c.16.24.31.47.48.68.16.21.33.39.51.53.18.14.37.24.57.3.2.06.42.06.66.01.24-.05.52-.23.83-.53.31-.3.64-.69.99-1.18.1-.16.21-.33.32-.51.11-.19.21-.37.31-.53.11-.2.22-.39.32-.59l1.39.75s-.03.06-.09.16c-.05.11-.13.25-.22.42-.1.17-.21.37-.34.58-.13.22-.28.44-.44.67-.92,1.36-1.83,2.15-2.73,2.37-.9.22-1.74,0-2.52-.63-.23-.19-.44-.39-.61-.61-.17-.22-.33-.43-.47-.63l-.64-.91-.04-.06c-.13-.18-.18-.38-.15-.6.03-.22.13-.4.31-.54ZM257.55,78.63l-1.79-.28.27-1.9,1.79.28-.27,1.9Z"/>
        <path class="cls-2" d="M253.23,90.31c-.32-.5-.54-.98-.66-1.42-.12-.44-.14-.87-.06-1.28.05-.25.13-.48.24-.68.12-.2.24-.37.38-.53.14-.15.28-.28.42-.39.14-.11.27-.2.37-.27l.12-.09s.09-.06.24-.16.37-.25.63-.43c.26-.18.57-.4.91-.64.34-.24.71-.5,1.09-.78.37-.27.76-.55,1.16-.84.4-.3.78-.59,1.15-.88.37-.29.7-.56,1-.82.3-.26.54-.48.72-.67l1.09,1.18c-.2.2-.44.43-.75.69-.3.26-.64.54-1,.82-.37.29-.75.59-1.16.89-.41.3-.81.59-1.2.87-.38.28-.75.54-1.1.79-.35.25-.67.47-.94.67-.27.2-.5.35-.68.48-.18.12-.29.2-.32.22l-.12.08c-.2.13-.36.26-.49.38-.13.12-.21.27-.24.44-.07.35.07.82.43,1.39l.04.06c.06.09.1.19.11.3.02.11.02.21,0,.32-.02.1-.06.2-.11.29-.06.09-.13.17-.21.23-.18.13-.38.17-.58.13-.21-.05-.37-.16-.49-.35Z"/>
        <path class="cls-2" d="M253.33,88.91c.19-.12.38-.16.59-.1.2.05.36.18.47.37l.42.73c.13.26.28.5.42.72.14.23.3.42.47.57.17.16.35.28.54.36.19.08.42.1.66.08.25-.03.54-.18.87-.45s.69-.63,1.08-1.09c.11-.14.23-.3.36-.48.13-.18.24-.34.35-.5.13-.19.25-.37.37-.56l1.32.88s-.04.06-.1.16c-.06.1-.15.23-.26.39-.11.16-.24.34-.39.55-.15.21-.31.41-.49.63-1.03,1.27-2,1.97-2.92,2.1-.91.13-1.73-.16-2.45-.87-.22-.21-.4-.43-.56-.66-.15-.23-.29-.46-.42-.67l-.56-.97-.04-.06c-.11-.19-.14-.4-.09-.61.05-.21.16-.38.35-.5ZM263.5,88.17l-1.76-.45.43-1.87,1.76.45-.43,1.87Z"/>
        <path class="cls-2" d="M256.63,96.33c1.08-.54,2.09-1.07,3.03-1.6.94-.53,1.79-1.03,2.57-1.51.78-.48,1.47-.93,2.07-1.34.61-.41,1.12-.77,1.54-1.07.42-.3.74-.54.96-.71.22-.17.34-.26.35-.27l.95,1.3s-.28.22-.78.6c-.24.19-.51.38-.8.59-.29.2-.61.42-.94.65-.34.23-.66.44-.96.64s-.6.39-.89.57c-.83.52-1.78,1.1-2.86,1.72-1.07.62-2.26,1.26-3.57,1.91l-.67-1.47Z"/>
        <path class="cls-2" d="M254.48,100.89c.5.69,1.02,1.27,1.56,1.74.54.47,1.07.84,1.59,1.1.53.26,1.03.43,1.51.49.48.06.91.03,1.29-.1-.1-.21-.22-.45-.35-.74-.13-.29-.25-.57-.35-.86-.43-1.11-.47-2.08-.1-2.91.17-.37.42-.68.75-.93.33-.25.7-.44,1.1-.58s.81-.22,1.24-.24c.42-.03.81,0,1.16.07.41.09.76.25,1.05.47.29.22.51.49.66.81.33.71.32,1.51,0,2.41-.13.32-.29.64-.49.95-.2.31-.43.61-.7.89-.26.28-.55.55-.87.8-.31.25-.65.47-1,.66l.26.56c.05.1.07.21.08.32,0,.11,0,.21-.04.31s-.08.19-.15.28c-.07.08-.15.15-.25.2-.1.05-.19.07-.29.08-.1,0-.2-.01-.29-.05-.09-.03-.18-.09-.26-.16-.08-.07-.14-.16-.19-.26l-.31-.67c-.77.21-1.52.27-2.26.17-.74-.1-1.45-.32-2.13-.65-.68-.34-1.3-.78-1.89-1.32-.58-.54-1.1-1.14-1.54-1.81l1.21-1.05ZM264.19,99.95c-.07-.14-.18-.25-.35-.33-.17-.08-.36-.12-.57-.14s-.44,0-.67.03c-.24.04-.46.09-.67.17-.21.08-.4.17-.56.28-.16.11-.27.24-.33.37-.06.12-.09.26-.1.4,0,.14,0,.29.02.43.02.14.05.28.09.41.04.13.08.24.11.33.13.32.25.61.38.87.13.26.24.48.34.67.29-.17.56-.35.8-.55.24-.2.46-.4.65-.62.19-.21.35-.42.48-.64.13-.22.24-.42.32-.62.02-.07.05-.16.08-.25.02-.09.04-.18.05-.28.01-.09.01-.19,0-.29,0-.1-.03-.19-.07-.27Z"/>
        <path class="cls-2" d="M261.72,104.61c.21-.08.4-.08.6.02s.33.25.41.47l.56,1.53c.25.69.56,1.35.94,1.99.37.63.78,1.24,1.23,1.82.45.58.92,1.14,1.41,1.66.49.53.99,1.03,1.48,1.5-.01-.4,0-.79.01-1.17.02-.38.04-.76.07-1.13.02-.29.04-.57.05-.84.02-.27.03-.53.03-.77,0-.24,0-.47-.03-.68-.02-.21-.07-.4-.12-.56-.08-.21-.19-.4-.35-.55-.16-.16-.33-.29-.53-.39-.19-.11-.39-.2-.59-.26s-.39-.12-.55-.15c-.17-.04-.31-.06-.42-.08-.11-.01-.17-.02-.17-.02l.09-1.64s.06,0,.15.01c.09,0,.21.02.35.05.15.02.31.06.5.11.19.05.39.11.59.18.6.21,1.1.5,1.5.86.4.36.68.79.86,1.29.09.25.16.51.2.79.04.28.06.57.07.87,0,.3,0,.61-.02.93s-.04.64-.06.97c-.03.36-.05.72-.07,1.09-.02.37-.02.73-.01,1.08,0,.36.04.71.09,1.05.05.34.13.67.25.99l-1.29.86c-.28-.3-.56-.6-.85-.89-.29-.29-.6-.59-.92-.9-.48-.46-.97-.96-1.47-1.5-.51-.54-1-1.13-1.48-1.75-.48-.63-.92-1.29-1.34-2-.41-.71-.76-1.45-1.05-2.23l-.54-1.47-.02-.06c-.04-.11-.06-.22-.05-.32,0-.11.02-.21.07-.31.04-.1.1-.18.17-.26.07-.08.16-.14.26-.18ZM273.28,106.26c0-.07-.02-.14-.03-.23-.01-.07-.03-.15-.05-.24-.02-.09-.05-.18-.08-.28-.03-.08-.06-.15-.1-.23-.04-.07-.09-.15-.16-.22h.01c-.13-.14-.28-.23-.46-.28-.18-.05-.34-.03-.51.03-.08.03-.16.09-.24.17h0c-.14.13-.24.32-.29.55-.05.23-.03.46.05.68.02.06.04.11.07.16.02.05.06.1.1.15.09.12.19.23.3.33.11.1.21.19.31.27.11.09.22.17.34.25l-.41.69c-.22-.14-.46-.33-.73-.57s-.6-.53-.99-.88l-1.56-1.38.5-.63,1.24,1.09c0-.24.06-.48.16-.71.1-.23.23-.42.38-.59.14-.14.31-.25.5-.33.15-.06.31-.1.47-.11.16,0,.32,0,.48.04.16.04.31.1.45.19.14.09.27.2.39.33.18.2.32.44.42.7.04.12.08.24.1.35.02.11.04.22.06.31.02.11.03.21.04.32l-.75.06Z"/>
        <path class="cls-2" d="M268.14,127.82c-.05-.26-.09-.57-.11-.94-.02-.37-.01-.74,0-1.11.02-.37.05-.72.11-1.04.05-.32.13-.56.21-.72l1.59.31c-.08.23-.15.5-.2.81-.06.31-.09.63-.1.97-.02.34,0,.68.02,1.03.03.35.09.67.19.98.09.31.22.58.38.83.16.25.37.43.62.57.19.11.49.05.9-.16.24-.12.48-.28.72-.48.24-.2.48-.42.72-.68.23-.25.46-.52.67-.81.21-.29.4-.59.57-.88s.31-.6.43-.89.2-.58.25-.84l1.54.32c-.07.35-.18.72-.33,1.09-.15.38-.33.75-.54,1.12-.21.37-.45.74-.7,1.09-.26.36-.53.69-.83,1-.29.31-.59.59-.9.84-.31.25-.62.46-.92.62-.27.13-.52.23-.75.28-.23.06-.44.08-.63.08-.19,0-.36-.02-.51-.07-.15-.04-.28-.1-.4-.16-.68-.36-1.2-.96-1.58-1.8-.09-.19-.18-.4-.25-.62-.07-.22-.13-.46-.19-.71Z"/>
      </g>
      <g>
        <path class="cls-2" d="M45.65,163.47v1.81s-5.5,3.31-5.5,3.31l5.53,3.28v1.82s-6.86-4.31-6.86-4.31h-4.62s0-1.54,0-1.54h4.62s6.84-4.37,6.84-4.37Z"/>
        <path class="cls-2" d="M42.24,179.34c-.66.8-1.69,1.25-3.08,1.35-1.35.1-2.48-.15-3.41-.74s-1.44-1.57-1.54-2.95c-.08-1.15.24-2.09.96-2.82.73-.73,1.74-1.15,3.05-1.24,1.4-.1,2.54.17,3.43.82.88.65,1.37,1.58,1.46,2.78.08,1.08-.21,2.01-.88,2.81ZM36.62,178.88c.73.29,1.52.41,2.39.34.78-.06,1.4-.23,1.87-.51.74-.45,1.07-1.16,1-2.13-.06-.86-.44-1.46-1.12-1.8-.68-.34-1.49-.48-2.41-.41-.89.07-1.61.32-2.18.75-.56.43-.82,1.07-.75,1.92.07.93.47,1.54,1.2,1.83Z"/>
        <path class="cls-2" d="M43.54,183.26l-5.49.83c-.42.06-.76.18-1,.36-.46.32-.64.82-.53,1.49.15.97.68,1.56,1.6,1.78.49.12,1.14.12,1.95,0l4.06-.61.21,1.39-8.27,1.25-.2-1.31,1.22-.17c-.34-.13-.64-.32-.9-.55-.51-.47-.83-1.08-.94-1.83-.18-1.18.09-2.04.82-2.59.39-.29.93-.5,1.64-.6l5.62-.85.21,1.42Z"/>
        <path class="cls-2" d="M47.1,190.3l.29,1.39-2.29.48.28,1.31-1.12.24-.28-1.31-5.34,1.12c-.29.06-.46.2-.51.41-.03.12-.02.3.03.55.01.07.03.14.05.21.02.08.04.16.08.26l-1.09.23c-.08-.15-.15-.31-.2-.47-.06-.17-.11-.35-.15-.55-.14-.64-.06-1.11.22-1.41.28-.3.68-.5,1.21-.61l5.42-1.14-.23-1.11,1.12-.24.23,1.11,2.29-.48Z"/>
        <path class="cls-2" d="M48.66,193.88l.37,1.36-4.13,1.12c.49.21.86.42,1.09.63.4.36.7.87.87,1.52.32,1.17.12,2.08-.58,2.72-.39.35-.98.63-1.77.84l-5.18,1.4-.38-1.4,5.09-1.38c.59-.16,1.01-.35,1.24-.58.38-.37.47-.89.29-1.57-.15-.56-.48-1.02-1-1.38-.51-.35-1.3-.38-2.38-.09l-4.29,1.16-.37-1.36,11.12-3.01Z"/>
        <path class="cls-2" d="M52.3,206.25l1.77,4.3c.6,1.46.55,2.8-.16,4.04-.64,1.1-1.69,1.95-3.15,2.55-1.13.46-2.23.67-3.32.62-1.92-.08-3.25-1.04-4-2.86l-1.76-4.28,10.61-4.37ZM44.56,214.12c.2.49.42.87.65,1.14.42.48.97.79,1.65.93.54.11,1.18.09,1.9-.06.43-.09.82-.21,1.16-.35,1.31-.54,2.23-1.22,2.74-2.04.51-.82.53-1.81.05-2.97l-1.05-2.55-8.15,3.35,1.05,2.56Z"/>
        <path class="cls-2" d="M53.79,217.66l.63,1.28-7.48,3.66-.63-1.29,7.48-3.66ZM56.62,216.28l.63,1.28-1.43.7-.63-1.28,1.43-.7Z"/>
        <path class="cls-2" d="M57.3,224.98c-.03.32-.13.69-.3,1.1l.92-.51.63,1.13-6.65,3.7c-.93.52-1.74.79-2.42.81-1.28.04-2.31-.64-3.1-2.06-.44-.79-.63-1.55-.58-2.28.05-.73.44-1.34,1.15-1.82l.69,1.25c-.29.24-.48.5-.56.78-.12.43-.01.94.32,1.54.52.94,1.2,1.37,2.03,1.29.49-.04,1.23-.35,2.23-.93-.51-.04-.95-.18-1.33-.42-.38-.24-.72-.65-1.04-1.22-.44-.79-.54-1.64-.31-2.55.23-.91,1-1.72,2.29-2.44,1.22-.68,2.35-.91,3.37-.7,1.02.22,1.77.75,2.24,1.59.32.57.46,1.15.41,1.74ZM56.06,225.86c.23-.62.18-1.21-.14-1.79-.48-.87-1.22-1.23-2.2-1.1-.53.07-1.14.3-1.84.69-.82.46-1.36.97-1.6,1.55-.25.57-.21,1.14.11,1.71.49.88,1.23,1.28,2.23,1.2.56-.05,1.14-.24,1.74-.58.91-.5,1.47-1.06,1.7-1.68Z"/>
        <path class="cls-2" d="M59.65,228.34l.76,1.21-7.05,4.43-.76-1.21,7.05-4.43ZM62.32,226.67l.76,1.21-1.35.85-.76-1.21,1.35-.85Z"/>
        <path class="cls-2" d="M63.64,230.16l.8,1.18-1.93,1.31.75,1.11-.95.64-.75-1.11-4.52,3.06c-.24.16-.35.36-.32.57.01.12.09.29.23.5.04.06.08.12.13.18.05.06.1.13.17.21l-.92.62c-.13-.11-.25-.23-.37-.36-.12-.13-.23-.28-.34-.45-.37-.54-.48-1.01-.33-1.39.15-.38.44-.72.89-1.02l4.59-3.1-.63-.94.95-.64.63.94,1.94-1.31Z"/>
        <path class="cls-2" d="M64.04,240.36c.23.23.47.32.72.27.14-.03.3-.11.49-.25.38-.29.55-.64.52-1.04s-.24-.86-.63-1.36c-.45-.58-.92-.88-1.42-.88-.28,0-.61.1-.98.33l-.8-1.04c.84-.6,1.61-.77,2.32-.51.71.27,1.32.74,1.84,1.41.6.78.93,1.53,1.01,2.25.07.71-.21,1.31-.84,1.79l-3.83,2.92c-.12.09-.19.18-.23.29-.03.1,0,.23.12.38.04.05.08.1.14.16.05.06.11.12.18.18l-.83.63c-.18-.14-.32-.25-.4-.33-.08-.08-.18-.2-.3-.36-.29-.39-.37-.77-.23-1.15.07-.2.23-.42.47-.66-.47,0-.98-.13-1.52-.39-.54-.26-1.01-.65-1.41-1.16-.47-.62-.67-1.26-.59-1.94.08-.68.4-1.23.96-1.66.62-.47,1.24-.64,1.88-.52.63.13,1.23.47,1.78,1.04l1.58,1.61ZM59.22,240.32c0,.38.11.73.36,1.05.3.39.68.71,1.15.93.78.39,1.51.32,2.2-.2l.9-.69c-.19-.07-.4-.19-.62-.36-.22-.17-.42-.35-.61-.54l-.6-.61c-.36-.36-.68-.6-.95-.72-.46-.2-.9-.13-1.32.2-.32.25-.49.56-.5.94Z"/>
        <path class="cls-2" d="M71.74,239.7l.91,1.07-8.75,7.43-.91-1.07,8.75-7.43Z"/>
        <path class="cls-2" d="M82.58,251.06l-.96.98-2.76-2.71-7.07,7.22-1.13-1.1,7.07-7.22-2.76-2.71.96-.98,6.65,6.51Z"/>
        <path class="cls-2" d="M80.85,253.58l1.01.88-.95,1.09c.27-.14.69-.22,1.28-.25.59-.02,1.09.15,1.51.51.02.02.05.05.09.09.04.04.12.12.22.23l-.97,1.12c-.05-.07-.1-.12-.15-.17s-.11-.1-.17-.16c-.53-.47-1.09-.65-1.68-.56-.59.09-1.07.37-1.46.81l-3.16,3.63-1.06-.92,5.49-6.31Z"/>
        <path class="cls-2" d="M86.26,262.28c.28.16.54.19.76.07.13-.06.26-.18.4-.37.29-.38.37-.76.23-1.14s-.46-.76-.96-1.15c-.58-.45-1.12-.61-1.6-.48-.27.07-.56.26-.86.57l-1.04-.8c.65-.8,1.35-1.17,2.11-1.09.75.07,1.47.37,2.14.88.78.6,1.3,1.24,1.56,1.91.25.67.14,1.32-.34,1.94l-2.94,3.82c-.09.12-.14.23-.14.33,0,.11.07.22.22.34.05.04.11.08.17.12.07.04.14.08.22.12l-.63.82c-.21-.08-.37-.15-.47-.21-.1-.06-.23-.15-.39-.27-.38-.3-.56-.65-.52-1.05.02-.21.11-.47.28-.76-.45.12-.98.13-1.57.02s-1.15-.36-1.66-.75c-.62-.47-.97-1.05-1.08-1.72-.1-.67.06-1.29.49-1.85.47-.62,1.03-.94,1.68-.99.64-.04,1.31.14,1.99.54l1.95,1.14ZM81.59,263.49c.09.37.3.67.62.92.39.3.84.5,1.35.6.85.17,1.54-.08,2.07-.77l.69-.9c-.2-.02-.44-.08-.69-.19-.26-.11-.5-.23-.73-.36l-.74-.43c-.45-.26-.81-.41-1.1-.45-.49-.07-.9.11-1.23.53-.25.32-.32.67-.23,1.03Z"/>
        <path class="cls-2" d="M91.71,262.21l1.18.81-4.72,6.86-1.18-.81,4.72-6.86ZM93.49,259.61l1.18.81-.9,1.31-1.18-.81.9-1.31Z"/>
        <path class="cls-2" d="M94.55,264.14l1.14.7-.62,1.01c.59-.21,1.13-.29,1.62-.24.49.05.96.21,1.43.5,1.01.62,1.48,1.39,1.4,2.32-.04.51-.28,1.12-.72,1.84l-2.8,4.58-1.22-.75,2.75-4.5c.27-.43.42-.83.45-1.17.06-.58-.19-1.03-.75-1.38-.28-.17-.54-.29-.75-.34-.39-.1-.8-.08-1.22.06-.35.11-.62.28-.84.49-.21.21-.46.55-.75,1.02l-2.29,3.74-1.2-.73,4.37-7.14Z"/>
        <path class="cls-2" d="M102.06,268.63l1.26.68-3.96,7.33-1.26-.68,3.96-7.33ZM103.56,265.87l1.26.68-.76,1.4-1.26-.68.76-1.4Z"/>
        <path class="cls-2" d="M105.07,270.24l1.21.57-.51,1.07c.57-.27,1.1-.41,1.59-.41.49,0,.98.11,1.47.34,1.07.51,1.62,1.23,1.64,2.15.01.51-.16,1.14-.52,1.9l-2.3,4.85-1.29-.61,2.26-4.76c.22-.46.33-.87.32-1.21,0-.58-.3-1.01-.89-1.29-.3-.14-.56-.23-.79-.26-.4-.06-.8,0-1.21.19-.33.15-.59.34-.78.58-.19.24-.4.6-.63,1.09l-1.88,3.96-1.27-.6,3.58-7.56Z"/>
        <path class="cls-2" d="M117.21,275.89c.18.27.34.61.47,1.04l.38-.98,1.21.46-2.72,7.1c-.38.99-.83,1.72-1.34,2.18-.95.85-2.18.99-3.7.41-.84-.32-1.48-.78-1.91-1.38-.43-.6-.52-1.31-.28-2.14l1.33.51c-.07.37-.05.69.07.96.19.41.6.73,1.23.97,1.01.39,1.8.28,2.39-.31.34-.35.72-1.06,1.11-2.14-.42.3-.84.47-1.29.53s-.97-.04-1.58-.27c-.85-.32-1.47-.91-1.88-1.75-.41-.84-.34-1.96.19-3.34.5-1.31,1.21-2.21,2.13-2.7s1.83-.56,2.74-.21c.61.24,1.09.59,1.43,1.07ZM116.84,277.36c-.22-.62-.64-1.05-1.26-1.29-.92-.35-1.72-.16-2.39.57-.36.39-.68.96-.97,1.71-.34.88-.42,1.62-.23,2.21.18.6.57,1.01,1.17,1.24.94.36,1.77.19,2.48-.51.4-.4.72-.92.97-1.56.37-.97.45-1.76.23-2.38Z"/>
        <path class="cls-2" d="M128.79,282.55c.32.04.57-.04.73-.23.09-.11.17-.27.23-.5.12-.46.04-.84-.24-1.14s-.72-.52-1.34-.68c-.71-.18-1.27-.12-1.66.19-.22.17-.41.46-.57.86l-1.27-.33c.28-.99.78-1.6,1.51-1.83.72-.23,1.5-.24,2.32-.03.95.25,1.68.63,2.18,1.14.5.52.65,1.16.45,1.92l-1.2,4.67c-.04.14-.04.26,0,.36s.15.18.33.22c.06.02.13.03.21.04.08.01.16.02.25.03l-.26,1.01c-.23,0-.4,0-.51-.01-.11-.01-.27-.04-.46-.09-.47-.12-.77-.37-.89-.76-.06-.21-.08-.48-.04-.81-.37.29-.85.5-1.44.64-.59.13-1.19.12-1.82-.04-.75-.19-1.31-.58-1.67-1.16s-.45-1.21-.27-1.9c.19-.75.58-1.27,1.15-1.57.58-.29,1.26-.39,2.04-.29l2.24.29ZM124.98,285.5c.23.3.54.5.93.6.48.12.97.13,1.48.03.85-.17,1.38-.68,1.6-1.52l.28-1.1c-.19.06-.43.1-.71.1-.28,0-.55-.01-.81-.05l-.85-.11c-.51-.06-.91-.05-1.19.02-.48.13-.79.45-.92.97-.1.39-.04.74.19,1.04Z"/>
        <path class="cls-2" d="M133.7,280.33l1.32.23-.21,1.17c.47-.41.95-.69,1.42-.82.47-.13.98-.15,1.51-.06,1.17.21,1.89.75,2.15,1.64.15.49.15,1.14,0,1.98l-.94,5.28-1.41-.25.92-5.19c.09-.5.09-.92,0-1.25-.16-.56-.56-.89-1.2-1.01-.33-.06-.6-.07-.83-.04-.4.05-.77.21-1.12.5-.28.23-.48.49-.6.76s-.23.69-.32,1.22l-.77,4.32-1.38-.25,1.46-8.24Z"/>
        <path class="cls-2" d="M146.86,282.51c.23.18.49.48.77.9l.42-4.21,1.34.14-1.15,11.46-1.26-.13.12-1.16c-.38.48-.8.81-1.27,1s-.99.25-1.56.19c-.93-.09-1.69-.56-2.29-1.41-.6-.85-.83-1.92-.71-3.22.12-1.21.54-2.23,1.25-3.06s1.64-1.18,2.79-1.07c.64.06,1.16.25,1.56.57ZM143.09,288.43c.32.64.89,1,1.73,1.08.65.07,1.21-.16,1.68-.67.47-.51.76-1.29.87-2.33.11-1.05-.03-1.85-.41-2.4s-.88-.85-1.52-.92c-.71-.07-1.3.14-1.8.64-.49.5-.79,1.27-.9,2.31-.09.89.02,1.66.34,2.3Z"/>
        <path class="cls-2" d="M155.46,279.68l4.65-.11c1.58-.04,2.81.5,3.71,1.59.8.99,1.22,2.28,1.25,3.86.03,1.22-.18,2.32-.61,3.32-.77,1.76-2.13,2.66-4.1,2.7l-4.63.11-.26-11.47ZM160.03,289.73c.53-.01.96-.08,1.29-.19.6-.22,1.08-.62,1.46-1.21.3-.47.5-1.07.62-1.8.07-.43.1-.84.09-1.21-.03-1.42-.34-2.52-.92-3.29s-1.5-1.15-2.76-1.12l-2.76.06.2,8.81,2.77-.06Z"/>
        <path class="cls-2" d="M171.8,282.05c.59.22,1.05.53,1.38.94.33.39.57.86.72,1.41.13.37.23.98.33,1.82l-6.1.67c.12.84.39,1.5.82,1.96.43.47,1.03.66,1.82.57.73-.08,1.29-.39,1.67-.92.22-.31.36-.65.42-1.03l1.37-.15c0,.31-.08.66-.25,1.06-.16.4-.36.73-.58,1-.38.46-.87.8-1.48,1.01-.33.12-.7.2-1.13.25-1.04.11-1.96-.17-2.76-.84-.8-.67-1.28-1.69-1.43-3.04-.15-1.34.09-2.46.73-3.37.63-.91,1.53-1.43,2.71-1.56.59-.07,1.18,0,1.76.23ZM172.67,285.26c-.12-.6-.31-1.07-.56-1.41-.46-.63-1.13-.9-2.03-.8-.64.07-1.16.36-1.54.87s-.55,1.13-.5,1.84l4.62-.51Z"/>
        <path class="cls-2" d="M175.91,281.23l3.43,6.29,1.06-7.12,1.51-.28-1.59,8.8-1.47.27-4.55-7.67,1.61-.3Z"/>
        <path class="cls-2" d="M188,278.8c.61.13,1.11.37,1.51.73.38.34.68.77.92,1.29.18.35.37.94.59,1.75l-5.94,1.55c.24.81.61,1.42,1.1,1.83.49.4,1.12.5,1.88.31.71-.18,1.22-.57,1.52-1.15.17-.33.26-.69.27-1.08l1.34-.35c.04.31.01.67-.09,1.08-.1.42-.25.77-.44,1.07-.31.51-.75.92-1.32,1.22-.31.17-.67.3-1.08.41-1.01.26-1.96.12-2.85-.43-.89-.55-1.51-1.49-1.85-2.81-.34-1.3-.26-2.45.23-3.44.49-1,1.31-1.64,2.45-1.94.57-.15,1.17-.16,1.78-.03ZM189.33,281.85c-.21-.58-.46-1.01-.75-1.31-.54-.56-1.25-.72-2.12-.5-.62.16-1.09.52-1.4,1.09-.3.56-.38,1.19-.22,1.9l4.5-1.17Z"/>
        <path class="cls-2" d="M190.45,274.59l1.34-.43,3.48,10.94-1.34.43-3.48-10.93Z"/>
        <path class="cls-2" d="M200.61,275.17c.95.41,1.67,1.27,2.17,2.57.48,1.26.57,2.42.26,3.48s-1.1,1.83-2.39,2.32c-1.08.41-2.07.37-2.98-.12-.91-.49-1.59-1.35-2.06-2.58-.5-1.31-.56-2.49-.19-3.52.37-1.03,1.12-1.76,2.25-2.19,1.01-.38,1.99-.37,2.94.04ZM201.76,280.69c.07-.78-.04-1.58-.35-2.39-.28-.73-.62-1.28-1.03-1.65-.64-.58-1.42-.7-2.32-.36-.8.3-1.27.83-1.41,1.58-.13.75-.04,1.56.29,2.43.31.83.76,1.46,1.33,1.88s1.26.47,2.05.17c.87-.33,1.35-.89,1.42-1.67Z"/>
        <path class="cls-2" d="M202.64,273.48l1.24-.58.47,1c.09-.46.25-.86.46-1.19.3-.48.74-.86,1.32-1.13.86-.4,1.74-.42,2.65-.04s1.65,1.18,2.22,2.4c.78,1.65.89,3.03.36,4.14-.34.7-.87,1.23-1.6,1.57-.57.27-1.11.37-1.61.3-.29-.04-.66-.16-1.1-.38l1.81,3.87-1.27.6-4.95-10.56ZM210.2,277.18c.16-.68,0-1.52-.46-2.51-.28-.6-.61-1.08-.99-1.43-.72-.68-1.52-.81-2.4-.4-.88.41-1.28,1.14-1.19,2.17.05.55.24,1.19.58,1.92.27.58.59,1.04.96,1.37.7.63,1.49.74,2.36.33.59-.28.97-.76,1.13-1.44Z"/>
        <path class="cls-2" d="M215.22,267.29c.62-.03,1.17.07,1.64.32.45.23.86.57,1.22,1.01.26.29.6.81,1.01,1.54l-5.34,3.01c.44.73.95,1.22,1.53,1.48s1.21.2,1.9-.19c.64-.36,1.03-.86,1.17-1.5.08-.37.07-.74-.02-1.11l1.2-.68c.12.29.18.64.19,1.07,0,.43-.04.81-.15,1.15-.17.57-.49,1.08-.97,1.51-.25.24-.57.46-.94.67-.91.51-1.86.62-2.87.31-1-.3-1.84-1.05-2.51-2.24-.66-1.17-.88-2.3-.66-3.39.22-1.09.85-1.92,1.87-2.5.52-.29,1.09-.45,1.71-.48ZM217.29,269.89c-.35-.5-.71-.86-1.07-1.08-.67-.4-1.4-.38-2.18.06-.56.32-.92.79-1.07,1.41-.15.62-.06,1.25.27,1.89l4.05-2.29Z"/>
        <path class="cls-2" d="M218.12,265.41l1.14-.79.68.97c.04-.53.11-.95.23-1.26.2-.53.54-.96,1.02-1.29.55-.38,1.08-.55,1.6-.52.3.02.62.13.99.32,0-.54.11-1.03.33-1.45.22-.42.55-.78.98-1.08.92-.64,1.78-.75,2.58-.31.43.23.86.65,1.28,1.26l3.18,4.57-1.2.83-3.32-4.77c-.32-.46-.65-.69-1-.7-.35-.01-.69.1-1.02.33-.45.32-.74.74-.85,1.27-.12.53.07,1.15.57,1.86l2.78,3.99-1.17.82-3.12-4.48c-.32-.46-.62-.77-.88-.9-.4-.2-.84-.13-1.32.2-.44.3-.71.75-.84,1.33-.12.59.13,1.32.74,2.21l2.54,3.64-1.15.8-4.78-6.87Z"/>
        <path class="cls-2" d="M232.87,254.58c.61-.15,1.16-.15,1.67,0,.49.14.95.4,1.38.76.31.24.74.68,1.29,1.33l-4.68,3.96c.57.63,1.16,1.02,1.78,1.17s1.23-.03,1.83-.54c.56-.47.85-1.04.87-1.69,0-.38-.07-.74-.22-1.09l1.05-.89c.17.26.3.6.39,1.02.09.42.11.81.07,1.15-.06.59-.28,1.15-.67,1.67-.2.28-.47.56-.8.84-.79.67-1.71.96-2.75.84-1.04-.11-2-.69-2.89-1.73-.87-1.03-1.3-2.09-1.28-3.21.01-1.11.47-2.05,1.37-2.81.45-.38.98-.65,1.59-.8ZM235.39,256.76c-.44-.43-.85-.71-1.25-.86-.73-.27-1.44-.11-2.13.47-.49.42-.76.95-.79,1.58-.03.64.17,1.24.62,1.81l3.55-3Z"/>
        <path class="cls-2" d="M235.35,252.09l.95-.94.83.85c-.06-.63,0-1.17.16-1.63.16-.46.44-.88.83-1.26.85-.83,1.71-1.1,2.59-.8.48.16,1.02.54,1.61,1.14l3.77,3.82-1.02,1-3.7-3.76c-.36-.36-.7-.6-1.03-.72-.54-.2-1.05-.06-1.52.4-.24.23-.41.45-.51.65-.19.35-.27.75-.24,1.2.03.36.12.67.27.93.16.26.43.58.81.97l3.08,3.12-1,.99-5.87-5.96Z"/>
        <path class="cls-2" d="M239.95,244.1l.96-1.05,1.73,1.57.9-.99.85.77-.9.99,4.05,3.67c.22.2.43.25.63.17.12-.04.26-.16.43-.35.04-.05.09-.11.14-.17.05-.06.11-.13.17-.22l.82.75c-.07.15-.16.3-.26.44-.1.14-.22.29-.36.44-.44.49-.86.7-1.27.65-.41-.05-.81-.26-1.2-.62l-4.11-3.72-.76.84-.85-.77.76-.84-1.73-1.57Z"/>
        <path class="cls-2" d="M251.64,230.76c1.27-.02,2.54.43,3.83,1.36,1.39,1.01,2.29,2.19,2.7,3.56.48,1.61.17,3.18-.94,4.71-1.04,1.43-2.32,2.21-3.86,2.35-1.44.07-2.86-.4-4.25-1.41-1.26-.91-2.11-2-2.55-3.27-.57-1.63-.28-3.23.86-4.8,1.19-1.64,2.6-2.47,4.22-2.5ZM256.76,236.16c-.44-1.07-1.17-1.98-2.2-2.73-1.09-.79-2.18-1.14-3.26-1.05s-1.98.63-2.7,1.62c-.7.96-.94,1.99-.71,3.07.22,1.09.97,2.09,2.26,3.03,1.03.75,2.09,1.11,3.17,1.11,1.08,0,2.05-.6,2.89-1.77.8-1.11.99-2.2.55-3.27Z"/>
        <path class="cls-2" d="M254.22,229.35l.7-1.14,1.23.76c-.18-.24-.33-.65-.45-1.22-.12-.58-.04-1.1.26-1.58.01-.02.04-.06.08-.11.04-.05.1-.14.19-.26l1.26.78c-.06.06-.11.12-.15.18-.04.06-.08.12-.13.19-.37.6-.46,1.19-.27,1.75.19.56.54,1,1.04,1.31l4.1,2.52-.74,1.2-7.13-4.38Z"/>
        <path class="cls-2" d="M259.4,221.01c.29-.15.65-.26,1.08-.34l-.93-.5.61-1.14,6.71,3.58c.94.5,1.6,1.03,2,1.6.73,1.05.71,2.29-.05,3.72-.42.8-.96,1.37-1.61,1.72-.65.35-1.36.36-2.16.02l.67-1.26c.36.12.68.13.96.05.43-.13.8-.5,1.12-1.1.51-.95.51-1.75,0-2.4-.3-.39-.97-.84-1.99-1.37.25.45.37.9.36,1.34,0,.45-.16.96-.46,1.53-.43.8-1.08,1.35-1.97,1.64-.89.3-1.98.1-3.29-.6-1.24-.66-2.04-1.48-2.41-2.45-.37-.97-.33-1.89.13-2.74.31-.58.72-1.01,1.24-1.29ZM260.81,221.57c-.64.14-1.12.5-1.43,1.09-.47.87-.38,1.69.27,2.45.34.4.87.79,1.58,1.17.83.44,1.55.61,2.17.51.61-.11,1.07-.44,1.38-1.01.48-.89.41-1.73-.2-2.53-.35-.45-.82-.83-1.43-1.15-.91-.49-1.69-.66-2.33-.52Z"/>
        <path class="cls-2" d="M265.75,214.5c.09-.31.06-.57-.11-.76-.09-.11-.24-.21-.46-.3-.44-.19-.83-.18-1.16.05-.33.22-.63.63-.89,1.21-.29.67-.32,1.23-.08,1.67.13.25.38.48.76.7l-.53,1.2c-.93-.44-1.46-1.03-1.57-1.79s0-1.52.35-2.29c.4-.9.89-1.56,1.48-1.97.59-.41,1.25-.45,1.97-.13l4.41,1.94c.13.06.25.08.36.06.1-.02.2-.12.27-.29.03-.06.05-.12.07-.2.02-.08.05-.16.07-.24l.95.42c-.03.23-.06.39-.09.5s-.09.26-.17.44c-.2.44-.5.7-.9.76-.21.03-.48,0-.81-.09.23.41.36.92.4,1.52.04.6-.07,1.2-.33,1.79-.31.71-.78,1.2-1.41,1.46-.63.26-1.27.25-1.92-.04-.71-.31-1.16-.78-1.36-1.39-.2-.61-.18-1.3.04-2.06l.64-2.17ZM268.05,218.74c.33-.18.58-.45.75-.82.2-.45.29-.94.26-1.46-.03-.87-.45-1.48-1.24-1.82l-1.04-.46c.03.2.03.44-.02.72-.04.28-.1.54-.18.79l-.24.82c-.14.5-.2.89-.17,1.18.05.5.32.85.81,1.07.37.16.72.16,1.06-.02Z"/>
        <path class="cls-2" d="M264.37,209.27l.44-1.26,1.12.39c-.33-.54-.52-1.05-.58-1.54-.05-.49,0-.99.19-1.5.39-1.12,1.05-1.74,1.97-1.86.5-.07,1.15.04,1.95.32l5.06,1.78-.47,1.35-4.98-1.75c-.48-.17-.89-.23-1.24-.2-.57.06-.97.41-1.19,1.02-.11.31-.17.58-.17.81-.02.4.08.8.31,1.19.18.31.4.55.66.71s.64.34,1.16.52l4.13,1.45-.47,1.33-7.89-2.77Z"/>
        <path class="cls-2" d="M264.16,200.11l.4-1.37,1.53.45-.4,1.37-1.53-.45ZM267.19,200.99l.4-1.37,8,2.33-.4,1.37-7.99-2.33Z"/>
        <path class="cls-2" d="M275.04,199.96l-4.69-6.22-1.07,4.47-1.22-.29,1.51-6.31,1.12.27,4.65,6.18,1.18-4.94,1.22.29-1.63,6.81-1.08-.26Z"/>
        <path class="cls-2" d="M273.86,186.17c.01-.33-.09-.56-.3-.71-.11-.08-.29-.14-.52-.18-.47-.08-.84.03-1.11.34-.27.3-.45.77-.56,1.39-.12.72,0,1.27.33,1.64.19.21.49.37.91.49l-.21,1.3c-1.01-.19-1.67-.64-1.96-1.34-.29-.7-.37-1.47-.24-2.31.16-.97.47-1.73.94-2.28.47-.54,1.09-.75,1.87-.62l4.76.78c.14.02.27.01.36-.03.1-.04.16-.16.19-.35,0-.06.02-.13.02-.21,0-.08,0-.16,0-.25l1.03.17c.03.23.04.4.04.51,0,.12-.02.27-.05.47-.08.48-.3.8-.68.96-.2.08-.47.12-.8.11.32.34.58.8.77,1.38.19.58.22,1.18.12,1.82-.12.77-.46,1.35-1.01,1.76-.54.41-1.17.56-1.86.44-.77-.13-1.32-.46-1.66-1.01s-.5-1.22-.47-2.01l.08-2.26ZM277.14,189.71c.28-.25.45-.58.52-.98.08-.49.04-.98-.11-1.47-.25-.83-.8-1.32-1.65-1.46l-1.12-.18c.08.19.13.42.16.7.03.28.04.55.03.81l-.03.86c-.01.51.03.91.13,1.18.17.47.52.74,1.05.83.4.07.74-.03,1.02-.28Z"/>
        <path class="cls-2" d="M268.09,181.08l.16-1.42,1.59.17-.16,1.42-1.58-.17ZM271.22,181.43l.16-1.42,8.28.91-.16,1.42-8.28-.91Z"/>
        <path class="cls-2" d="M272.71,172c.75-.71,1.82-1.04,3.21-.98,1.35.06,2.45.43,3.3,1.12.85.69,1.25,1.73,1.19,3.11-.05,1.15-.47,2.05-1.28,2.69-.81.64-1.87.94-3.18.88-1.41-.06-2.51-.46-3.31-1.21-.8-.75-1.18-1.72-1.13-2.92.04-1.08.44-1.97,1.19-2.69ZM278.24,173.1c-.69-.38-1.47-.58-2.33-.62-.78-.03-1.42.07-1.92.3-.79.36-1.2,1.03-1.24,2-.04.86.27,1.5.91,1.91.64.42,1.42.65,2.35.68.89.04,1.64-.13,2.25-.49s.93-.97.97-1.82c.04-.93-.29-1.58-.98-1.96Z"/>
        <path class="cls-2" d="M269.62,168.97v-1.42s2.34,0,2.34,0v-1.34s1.15,0,1.15,0v1.34s5.46,0,5.46,0c.29,0,.49-.1.58-.3.06-.11.09-.29.09-.55,0-.07,0-.14,0-.22,0-.08,0-.17-.02-.27h1.11c.05.16.08.33.1.51.02.17.03.36.03.57,0,.66-.17,1.1-.51,1.33-.34.23-.77.35-1.31.35h-5.54s0,1.12,0,1.12h-1.15s0-1.13,0-1.13h-2.34Z"/>
        <path class="cls-2" d="M271.98,164.97l-.08-1.33,1.19-.07c-.51-.37-.88-.77-1.12-1.2-.24-.43-.37-.92-.4-1.46-.07-1.19.3-2.01,1.11-2.47.44-.25,1.08-.4,1.92-.45l5.36-.29.08,1.43-5.26.29c-.51.03-.92.13-1.22.29-.51.28-.74.75-.71,1.4.02.33.07.6.15.81.14.38.38.7.74.98.29.22.58.35.88.41.3.05.72.07,1.27.04l4.38-.24.08,1.4-8.35.46Z"/>
      </g>
      <circle class="cls-1" cx="157.64" cy="157.64" r="146.31"/>
      <circle class="cls-1" cx="157.64" cy="157.64" r="156.14"/>
    </g>
  </g>
</svg>