<?xml version="1.0" standalone="no"?>
<!DOCTYPE svg PUBLIC "-//W3C//DTD SVG 20010904//EN"
 "http://www.w3.org/TR/2001/REC-SVG-20010904/DTD/svg10.dtd">
<svg version="1.0" xmlns="http://www.w3.org/2000/svg"
 width="309.000000pt" height="550.000000pt" viewBox="0 0 309.000000 550.000000"
 preserveAspectRatio="xMidYMid meet">

<g transform="translate(0.000000,550.000000) scale(0.100000,-0.100000)"
fill="#000000" stroke="none">
<path d="M1300 4265 c-83 -14 -204 -45 -265 -68 -22 -8 -56 -20 -75 -28 -51
-19 -222 -108 -245 -128 -11 -9 -47 -34 -80 -56 -70 -45 -264 -235 -322 -315
-120 -166 -221 -380 -262 -552 -26 -114 -31 -139 -42 -248 -11 -112 -10 -146
10 -315 39 -335 203 -664 450 -903 134 -130 340 -267 486 -323 11 -5 36 -15
56 -22 134 -54 318 -87 395 -72 37 7 38 8 15 16 -14 6 -59 14 -100 20 -124 17
-294 71 -426 136 -153 75 -260 149 -377 261 -186 179 -334 413 -396 627 -22
77 -52 201 -62 261 -13 78 -15 351 -2 384 5 14 12 48 16 75 7 49 39 164 76
275 17 50 31 78 95 199 11 21 32 54 48 74 15 20 27 39 27 43 0 31 304 339 353
357 12 4 30 16 40 25 33 29 170 103 282 150 250 105 610 132 880 65 135 -33
307 -99 382 -146 21 -13 65 -39 98 -57 137 -76 368 -304 436 -431 6 -13 28
-48 48 -79 65 -101 149 -327 177 -475 26 -139 29 -352 6 -490 -21 -126 -37
-190 -57 -240 -7 -16 -16 -41 -20 -54 -13 -44 -85 -194 -122 -255 -95 -156
-220 -291 -408 -440 -84 -67 -295 -175 -410 -209 -128 -39 -247 -60 -377 -66
-75 -4 -139 -9 -143 -12 -3 -4 15 -12 40 -19 113 -32 377 10 583 91 87 35 248
117 290 148 200 154 275 227 388 376 115 154 219 384 254 561 7 33 16 77 21
99 5 22 12 114 16 205 4 131 2 186 -11 265 -73 434 -314 814 -666 1047 -92 61
-294 160 -375 183 -33 10 -79 24 -103 31 -132 43 -456 58 -622 29z"/>
<path d="M1325 4170 c-16 -4 -61 -13 -100 -20 -119 -22 -330 -99 -376 -137 -8
-7 -20 -13 -25 -13 -5 0 -25 -13 -44 -28 -19 -16 -55 -40 -80 -55 -70 -41
-268 -241 -332 -337 -201 -302 -290 -631 -259 -961 7 -70 19 -152 28 -181 8
-29 18 -71 23 -93 5 -23 25 -76 44 -119 20 -43 36 -83 36 -88 0 -19 97 -178
161 -263 210 -281 516 -469 884 -542 88 -18 409 -23 425 -7 6 6 -62 10 -163
10 -206 1 -352 25 -474 80 -17 8 -34 14 -37 14 -4 0 -41 16 -82 35 -41 19 -77
35 -80 35 -3 0 -50 29 -105 65 -275 183 -528 532 -587 810 -6 28 -18 77 -26
110 -22 82 -31 299 -17 410 11 93 50 273 72 335 14 41 80 175 117 240 40 70
132 189 192 250 67 68 194 180 204 180 6 0 64 38 76 50 3 3 57 31 120 61 150
74 289 119 415 136 85 11 401 8 455 -4 107 -25 201 -54 271 -83 40 -17 86 -35
100 -40 36 -11 162 -90 254 -160 109 -82 254 -245 343 -385 32 -51 122 -245
122 -264 0 -11 7 -38 15 -58 28 -71 56 -228 62 -346 10 -209 -30 -422 -117
-622 -10 -22 -23 -51 -29 -65 -58 -136 -237 -357 -378 -467 -15 -12 -41 -33
-58 -46 -122 -96 -305 -186 -455 -223 -139 -34 -172 -43 -178 -48 -19 -19 160
20 276 60 153 53 236 99 422 230 52 36 152 136 229 228 107 127 242 405 273
561 25 131 29 170 34 310 5 146 0 202 -35 370 -12 53 -62 196 -95 268 -14 32
-26 60 -26 63 0 3 -17 31 -37 62 -21 31 -40 62 -43 68 -15 31 -167 206 -217
249 -31 28 -75 66 -97 86 -69 60 -235 153 -346 193 -58 20 -115 41 -128 47
-13 5 -36 9 -53 9 -16 0 -37 4 -47 9 -42 23 -124 31 -304 30 -106 0 -206 -4
-223 -9z"/>
<path d="M1513 4023 c-36 -18 -44 -36 -31 -72 8 -22 6 -23 -22 -19 -35 5 -47
-6 -30 -27 13 -16 6 -35 -13 -35 -13 0 -41 57 -38 78 3 21 -29 25 -49 7 -22
-20 -26 -45 -9 -62 19 -19 -11 -27 -31 -8 -18 16 -20 16 -26 1 -9 -24 22 -66
49 -66 13 0 28 -5 35 -12 8 -8 15 -8 25 0 8 7 27 9 46 6 28 -6 32 -4 42 25 8
22 24 38 53 53 53 27 52 25 32 47 -20 22 -14 61 10 61 17 0 16 32 -1 36 -5 1
-24 -5 -42 -13z"/>
<path d="M1620 3959 c-20 -37 -9 -63 30 -70 34 -5 75 -24 115 -54 17 -12 25
-12 45 -2 22 11 25 19 23 62 -3 79 -7 87 -30 64 -8 -8 -16 -7 -30 2 -11 7 -28
9 -37 6 -14 -6 -14 -10 -4 -27 9 -14 10 -22 1 -31 -15 -15 -53 6 -53 31 0 11
-9 24 -19 30 -26 14 -29 13 -41 -11z m180 -57 c0 -13 -12 -22 -22 -16 -10 6
-1 24 13 24 5 0 9 -4 9 -8z"/>
<path d="M1136 3903 c-14 -21 -26 -50 -26 -65 0 -15 -4 -30 -10 -33 -18 -11
-11 -43 10 -50 64 -20 119 130 65 175 -10 9 -19 3 -39 -27z"/>
<path d="M1992 3910 c-6 -11 -12 -28 -12 -38 0 -9 -7 -28 -16 -40 -12 -18 -19
-20 -29 -12 -8 6 -12 17 -9 25 8 19 -14 29 -31 15 -22 -19 -18 -57 8 -74 15
-10 39 -14 75 -11 40 3 52 1 52 -10 0 -19 32 -35 57 -29 27 7 60 -10 68 -36 3
-11 12 -20 18 -20 7 0 20 -14 29 -30 11 -20 25 -30 40 -30 13 0 32 -9 41 -21
11 -12 25 -18 33 -15 9 3 24 1 35 -5 26 -14 73 -115 74 -159 0 -33 3 -37 68
-67 55 -27 67 -37 67 -57 0 -13 7 -37 15 -52 19 -36 19 -48 0 -64 -28 -23 -18
-58 19 -74 24 -10 44 -31 68 -71 18 -32 38 -57 43 -56 6 0 10 25 10 54 0 45
-3 53 -23 62 -18 8 -21 15 -17 36 6 26 -10 52 -37 61 -16 6 0 28 21 28 18 0
41 18 41 32 0 14 -40 8 -46 -7 -4 -8 -10 -15 -15 -15 -4 0 -6 6 -3 14 3 8 -3
16 -15 19 -32 8 -26 42 9 57 28 12 42 40 20 40 -5 0 -10 9 -10 20 0 28 -30 38
-46 16 -16 -23 -34 -12 -34 20 0 16 -6 24 -17 25 -86 4 -78 -1 -78 58 0 54 0
55 -34 62 -40 8 -51 23 -51 67 0 22 -6 35 -17 39 -10 3 -28 15 -41 26 -17 16
-25 18 -34 9 -16 -16 -28 -15 -28 3 0 8 -14 30 -32 50 -28 33 -35 36 -69 30
-28 -5 -39 -3 -46 9 -4 8 -17 14 -28 13 -17 -2 -20 4 -20 35 0 24 -8 44 -24
62 -29 31 -33 32 -49 6z m38 -50 c0 -11 -7 -20 -15 -20 -8 0 -15 9 -15 20 0
11 7 20 15 20 8 0 15 -9 15 -20z"/>
<path d="M979 3780 c-26 -30 -41 -40 -65 -40 -23 0 -34 -6 -42 -25 -7 -15 -20
-25 -32 -25 -24 0 -56 -15 -82 -38 -13 -11 -15 -18 -7 -28 14 -17 3 -34 -21
-34 -12 0 -20 -8 -22 -22 -2 -18 -11 -24 -34 -26 -27 -3 -33 1 -38 22 -3 15
-11 26 -16 26 -16 0 -32 -51 -25 -78 5 -20 10 -23 35 -17 26 6 30 4 30 -14 0
-12 -4 -21 -9 -21 -5 0 -12 -9 -16 -19 -3 -11 -16 -21 -27 -23 -27 -4 -35 -26
-13 -34 20 -8 60 28 85 77 10 19 36 51 57 70 21 19 48 47 60 62 12 15 50 43
86 61 57 30 65 32 74 17 9 -13 14 -14 29 -3 11 7 34 22 52 33 39 26 43 65 9
97 -13 12 -26 22 -28 22 -3 0 -21 -18 -40 -40z"/>
<path d="M671 3607 c-6 -8 -8 -17 -5 -20 9 -8 44 11 44 23 0 15 -26 12 -39 -3z"/>
<path d="M1536 3473 c-10 -3 -41 -18 -68 -34 -27 -16 -52 -29 -57 -29 -4 0
-18 -10 -30 -22 l-23 -21 38 -33 c36 -31 44 -33 111 -34 l71 0 57 55 c64 63
63 69 -9 104 -42 21 -55 23 -90 14z"/>
<path d="M1702 3348 c-75 -81 -87 -101 -84 -136 3 -34 15 -42 147 -98 17 -7
61 -27 99 -43 106 -48 113 -33 64 136 -22 78 -57 133 -83 133 -7 0 -23 8 -36
19 -48 37 -64 35 -107 -11z"/>
<path d="M520 3321 c-5 -11 -7 -26 -4 -35 3 -9 -3 -20 -15 -28 -23 -14 -28
-57 -9 -76 9 -9 7 -12 -9 -12 -18 0 -23 -7 -28 -47 -3 -27 -12 -72 -21 -100
-8 -29 -18 -75 -21 -102 -4 -39 -10 -51 -30 -60 l-25 -11 19 -33 c11 -17 25
-32 32 -32 16 0 37 60 46 129 20 150 48 229 79 225 44 -5 61 24 39 69 -14 28
-14 39 -3 71 7 22 9 44 6 50 -11 18 -44 13 -56 -8z"/>
<path d="M1160 3264 c-151 -85 -170 -99 -170 -125 0 -10 -12 -24 -27 -31 -27
-13 -28 -16 -31 -99 l-3 -86 103 -101 c61 -60 106 -98 112 -92 9 9 -9 122 -25
153 -5 9 -16 17 -24 17 -26 0 -55 50 -55 95 0 29 -6 47 -20 60 -23 21 -26 45
-5 45 8 0 29 -9 47 -20 50 -30 134 -27 201 7 117 60 125 67 129 120 4 46 2 50
-40 91 -24 23 -47 42 -51 42 -3 -1 -67 -35 -141 -76z"/>
<path d="M2662 3299 c2 -6 8 -10 13 -10 5 0 11 4 13 10 2 6 -4 11 -13 11 -9 0
-15 -5 -13 -11z"/>
<path d="M1970 3243 c0 -5 11 -39 25 -77 23 -66 37 -86 61 -86 5 0 23 -13 38
-29 26 -28 28 -34 23 -88 -5 -51 -2 -65 26 -120 49 -99 57 -87 57 85 0 187 -8
204 -125 274 -77 45 -105 56 -105 41z"/>
<path d="M1586 3097 c-18 -13 -17 -20 26 -143 25 -71 56 -167 69 -214 l24 -85
40 -6 c47 -8 83 4 91 28 10 31 86 177 102 196 15 16 15 21 0 50 -9 18 -19 41
-22 53 -4 13 -22 26 -54 36 -26 9 -92 35 -146 57 -114 47 -106 45 -130 28z"/>
<path d="M1380 3085 c-6 -8 -22 -17 -33 -21 -12 -3 -35 -16 -52 -29 -16 -12
-40 -25 -52 -29 -16 -5 -23 -15 -23 -33 0 -15 -7 -34 -16 -44 -14 -15 -15 -31
-9 -94 5 -52 11 -78 22 -84 25 -14 53 -1 59 28 7 28 107 235 123 255 5 6 12
23 16 39 5 20 4 27 -8 27 -8 0 -20 -7 -27 -15z"/>
<path d="M1470 3044 c-6 -14 -10 -30 -10 -36 0 -5 -8 -22 -18 -36 -21 -30 -82
-154 -82 -166 0 -4 -9 -19 -20 -33 -26 -33 -25 -46 5 -91 14 -20 25 -46 25
-59 0 -33 10 -53 28 -53 9 0 47 -10 85 -22 68 -22 69 -22 79 -3 6 11 28 37 50
57 l38 37 -59 178 c-32 98 -62 191 -65 208 -12 49 -41 59 -56 19z"/>
<path d="M2682 2918 c-17 -17 -15 -53 3 -68 18 -15 64 -5 72 16 4 10 -5 25
-23 40 -34 27 -36 28 -52 12z"/>
<path d="M1938 2751 l-66 -131 29 -36 c16 -20 34 -54 41 -75 6 -22 16 -39 22
-40 6 0 61 -1 121 -1 l110 0 3 91 c3 100 -7 131 -70 209 -18 22 -42 56 -53 74
-13 21 -30 34 -46 36 -24 3 -31 -7 -91 -127z"/>
<path d="M936 2823 c-8 -8 -6 -361 3 -392 14 -49 34 -47 90 9 29 29 52 60 51
69 0 9 -2 53 -3 98 -2 73 -5 84 -29 110 -15 15 -45 47 -66 70 -22 23 -42 39
-46 36z"/>
<path d="M403 2664 c-42 -18 -44 -23 -44 -96 0 -67 35 -221 51 -226 6 -2 10
-12 10 -23 0 -12 10 -23 27 -30 20 -7 23 -13 15 -21 -17 -17 -15 -63 3 -78 13
-11 22 -35 39 -111 3 -16 20 -35 40 -47 19 -12 52 -46 72 -76 20 -31 41 -56
47 -56 5 0 16 -8 23 -17 12 -17 14 -17 43 4 l30 23 6 -21 c4 -12 2 -26 -4 -32
-15 -15 -14 -37 2 -37 6 0 26 -16 42 -36 43 -51 127 -113 220 -163 44 -24 88
-51 98 -59 11 -10 40 -17 75 -18 65 -3 164 -16 236 -33 27 -7 50 -10 51 -9 2
2 6 22 10 46 7 46 0 51 -50 32 -18 -7 -42 -5 -82 5 -32 8 -74 15 -95 15 -20 0
-39 4 -43 10 -3 5 -33 19 -65 31 -33 12 -71 32 -85 45 -15 13 -34 24 -43 24
-10 0 -32 13 -50 30 -18 16 -48 36 -66 45 -19 9 -42 26 -52 37 -50 55 -127
128 -136 128 -14 0 -50 47 -70 92 -9 21 -24 41 -33 44 -17 7 -58 83 -69 131
-10 36 -34 63 -58 63 -16 0 -18 8 -17 58 0 41 -6 70 -22 102 -20 39 -23 58
-21 143 1 53 0 97 -1 96 -1 0 -16 -7 -34 -15z m1057 -1129 c0 -8 -4 -15 -10
-15 -5 0 -10 7 -10 15 0 8 5 15 10 15 6 0 10 -7 10 -15z"/>
<path d="M2731 2646 c-15 -18 -51 -156 -62 -234 -9 -65 -44 -142 -65 -142 -6
0 -14 -18 -17 -39 -11 -86 -115 -251 -158 -251 -18 0 -59 -44 -59 -64 0 -7 13
-19 28 -28 26 -16 31 -16 51 -2 12 9 26 27 31 40 5 13 16 24 25 24 9 0 15 9
15 21 0 15 5 20 23 18 33 -5 47 9 47 46 0 19 5 37 11 41 6 3 27 41 46 83 19
42 43 92 54 112 21 41 71 238 69 272 -1 12 -1 24 0 27 1 3 3 20 5 38 3 38 -24
62 -44 38z m-281 -727 c0 -25 -33 -22 -38 4 -2 12 3 17 17 17 15 0 21 -6 21
-21z"/>
<path d="M1340 2500 c-6 -11 -25 -27 -42 -36 l-31 -16 7 -110 c4 -60 11 -120
16 -132 8 -23 162 -116 192 -116 9 0 20 10 23 21 4 12 27 51 51 87 41 61 55
102 36 102 -16 0 -52 91 -52 130 0 21 -4 42 -10 45 -12 7 -150 44 -167 45 -7
0 -17 -9 -23 -20z"/>
<path d="M1073 2408 c-29 -30 -53 -56 -53 -59 0 -2 21 -16 48 -29 26 -14 49
-28 52 -31 3 -4 25 -16 49 -28 54 -28 71 -18 53 32 -7 18 -12 54 -12 78 0 54
-15 77 -55 84 -26 6 -36 0 -82 -47z"/>
<path d="M1940 2374 c-28 -65 -26 -92 6 -100 18 -5 39 1 67 16 109 61 162 97
165 113 3 15 -8 17 -107 17 l-110 0 -21 -46z"/>
<path d="M1815 2253 c-27 -10 -59 -13 -101 -9 l-61 5 -23 -42 c-13 -23 -39
-64 -57 -91 -58 -84 -22 -88 115 -12 217 120 212 117 212 143 0 27 -25 29 -85
6z"/>
<path d="M2313 1847 c-21 -25 -165 -123 -218 -149 -94 -46 -122 -58 -137 -58
-9 0 -23 -7 -31 -15 -13 -13 -17 -13 -27 0 -15 18 -31 10 -24 -10 4 -10 -2
-14 -23 -14 -15 1 -41 -2 -58 -6 -31 -8 -166 -10 -220 -4 -29 4 -30 3 -31 -39
-1 -23 1 -44 5 -46 4 -3 43 0 87 5 43 5 92 10 107 10 15 0 30 6 33 14 4 10 12
11 35 3 20 -7 38 -7 57 0 15 6 36 13 47 18 11 4 25 8 30 9 70 11 99 21 120 41
15 13 33 24 41 24 7 0 14 5 14 10 0 6 7 10 16 10 15 0 112 64 194 129 25 19
47 36 49 38 6 4 -29 53 -37 53 -5 0 -18 -11 -29 -23z m-713 -307 c0 -19 -11
-26 -23 -14 -8 8 3 34 14 34 5 0 9 -9 9 -20z"/>
</g>
</svg>
