<?xml version="1.0" encoding="UTF-8"?>
<svg id="Layer_2" data-name="Layer 2" xmlns="http://www.w3.org/2000/svg" viewBox="0 0 407.75 407.75">
  <defs>
    <style>
      .cls-1 {
        stroke-width: 4px;
      }

      .cls-1, .cls-2 {
        fill: none;
        stroke: #fff;
        stroke-miterlimit: 10;
      }

      .cls-2 {
        stroke-width: 8px;
      }

      .cls-3 {
        fill: #fff;
        stroke-width: 0px;
      }
    </style>
  </defs>
  <g id="logo">
    <g>
      <path class="cls-3" d="M197.4,110.84c-1.51.42-6.21,2.52-10.29,4.77s-7.87,4.07-8.63,4.07c-.61,0-2.72,1.4-4.54,3.08l-3.48,2.94,5.75,4.63c5.45,4.35,6.66,4.63,16.8,4.77h10.75l8.63-7.71c9.69-8.83,9.54-9.67-1.36-14.58-6.36-2.94-8.32-3.22-13.62-1.96Z"/>
      <path class="cls-3" d="M222.52,128.37c-11.35,11.36-13.17,14.16-12.71,19.07.45,4.77,2.27,5.89,22.25,13.74,2.57.98,9.23,3.79,14.98,6.03,16.04,6.73,17.1,4.63,9.69-19.07-3.33-10.94-8.63-18.65-12.56-18.65-1.06,0-3.48-1.12-5.45-2.66-7.27-5.19-9.69-4.91-16.2,1.54Z"/>
      <path class="cls-3" d="M140.49,140.14c-22.85,11.92-25.73,13.88-25.73,17.52,0,1.4-1.82,3.36-4.09,4.35-4.09,1.82-4.24,2.24-4.69,13.88l-.45,12.06,15.59,14.16c9.23,8.41,16.04,13.74,16.95,12.9,1.36-1.26-1.36-17.1-3.78-21.45-.76-1.26-2.42-2.38-3.63-2.38-3.94,0-8.32-7.01-8.32-13.32,0-4.07-.91-6.59-3.03-8.41-3.48-2.94-3.94-6.31-.76-6.31,1.21,0,4.39,1.26,7.11,2.8,7.57,4.21,20.28,3.79,30.42-.98,17.71-8.41,18.92-9.39,19.52-16.82.61-6.45.3-7.01-6.05-12.76-3.63-3.22-7.11-5.89-7.72-5.89-.45.14-10.14,4.91-21.34,10.65Z"/>
      <path class="cls-3" d="M263.09,143.09c0,.7,1.66,5.47,3.78,10.79,3.48,9.25,5.6,12.06,9.23,12.06.76,0,3.48,1.82,5.75,4.07,3.94,3.93,4.24,4.77,3.48,12.34-.76,7.15-.3,9.11,3.94,16.82,7.42,13.88,8.63,12.2,8.63-11.92,0-26.22-1.21-28.6-18.92-38.41-11.65-6.31-15.89-7.85-15.89-5.75Z"/>
      <path class="cls-3" d="M204.97,163.56c-2.72,1.82-2.57,2.8,3.94,20.05,3.78,9.95,8.48,23.41,10.44,30l3.63,11.92,6.05.84c7.11,1.12,12.56-.56,13.77-3.93,1.51-4.35,13.02-24.81,15.44-27.48,2.27-2.24,2.27-2.94,0-7.01-1.36-2.52-2.88-5.75-3.33-7.43-.61-1.82-3.33-3.65-8.17-5.05-3.94-1.26-13.92-4.91-22.1-7.99-17.25-6.59-16.04-6.31-19.68-3.93Z"/>
      <path class="cls-3" d="M173.79,165.24c-.91,1.12-3.33,2.38-4.99,2.94-1.82.42-5.3,2.24-7.87,4.07-2.42,1.68-6.05,3.5-7.87,4.07-2.42.7-3.48,2.1-3.48,4.63,0,2.1-1.06,4.77-2.42,6.17-2.12,2.1-2.27,4.35-1.36,13.18.76,7.29,1.66,10.94,3.33,11.78,3.78,1.96,8.02.14,8.93-3.93,1.06-3.93,16.2-32.95,18.62-35.75.76-.84,1.82-3.22,2.42-5.47.76-2.8.61-3.79-1.21-3.79-1.21,0-3.03.98-4.09,2.1Z"/>
      <path class="cls-3" d="M187.41,170.99c-.91,1.96-1.51,4.21-1.51,5.05,0,.7-1.21,3.08-2.72,5.05-3.18,4.21-12.41,21.59-12.41,23.27,0,.56-1.36,2.66-3.03,4.63-3.94,4.63-3.78,6.45.76,12.76,2.12,2.8,3.78,6.45,3.78,8.27,0,4.63,1.51,7.43,4.24,7.43,1.36,0,7.11,1.4,12.87,3.08,10.29,3.08,10.44,3.08,11.96.42.91-1.54,4.24-5.19,7.57-7.99l5.75-5.19-8.93-24.95c-4.84-13.74-9.38-26.78-9.84-29.16-1.82-6.87-6.21-8.27-8.48-2.66Z"/>
      <path class="cls-3" d="M258.24,212.06l-9.99,18.37,4.39,5.05c2.42,2.8,5.15,7.57,6.21,10.51.91,3.08,2.42,5.47,3.33,5.61.91,0,9.23.14,18.31.14h16.65l.45-12.76c.45-14.02-1.06-18.37-10.59-29.3-2.72-3.08-6.36-7.85-8.02-10.37-1.97-2.94-4.54-4.77-6.96-5.05-3.63-.42-4.69.98-13.77,17.8Z"/>
      <path class="cls-3" d="M106.58,201.97c-1.21,1.12-.91,50.61.45,54.96,2.12,6.87,5.15,6.59,13.62-1.26,4.39-4.07,7.87-8.41,7.72-9.67,0-1.26-.3-7.43-.45-13.74-.3-10.23-.76-11.78-4.39-15.42-2.27-2.1-6.81-6.59-9.99-9.81-3.33-3.22-6.36-5.47-6.96-5.05Z"/>
      <path class="cls-3" d="M167.73,247.25c-.91,1.54-3.78,3.79-6.36,5.05l-4.69,2.24,1.06,15.42c.61,8.41,1.66,16.82,2.42,18.51,1.21,3.22,24.52,16.26,29.06,16.26,1.36,0,3.03-1.4,3.48-2.94.61-1.68,4.09-7.15,7.72-12.2,6.21-8.55,8.32-14.3,5.45-14.3-2.42,0-7.87-12.76-7.87-18.23,0-2.94-.61-5.89-1.51-6.31-1.82-.98-22.7-6.17-25.28-6.31-1.06,0-2.57,1.26-3.48,2.8Z"/>
      <path class="cls-3" d="M127.32,260.15c-4.39,4.21-8.02,7.85-8.02,8.27,0,.28,3.18,2.24,7.27,4.07,3.94,1.96,7.42,3.93,7.87,4.35.45.56,3.78,2.24,7.42,3.93,8.17,3.93,10.75,2.52,8.02-4.49-1.06-2.52-1.82-7.57-1.82-10.94,0-7.57-2.27-10.79-8.32-11.78-3.94-.84-5.45,0-12.41,6.59Z"/>
      <path class="cls-3" d="M258.55,264.92c-4.24,9.11-3.94,12.9.91,14.02,2.72.7,5.9-.14,10.14-2.24,16.5-8.55,24.52-13.6,24.97-15.84.45-2.1-1.21-2.38-16.2-2.38h-16.65l-3.18,6.45Z"/>
      <path class="cls-3" d="M239.63,281.88c-4.09,1.4-8.93,1.82-15.29,1.26l-9.23-.7-3.48,5.89c-1.97,3.22-5.9,8.97-8.63,12.76-8.78,11.78-3.33,12.34,17.41,1.68,32.84-16.82,32.09-16.4,32.09-20.05s-3.78-4.07-12.87-.84Z"/>
    </g>
    <g>
      <path class="cls-3" d="M57.71,190.36c-.07,1.65-.53,2.78-1.41,3.4-.24.17-.49.29-.75.35-.26.06-.52.1-.77.1-.25,0-.48-.02-.7-.07-.22-.05-.39-.1-.53-.16-.37-.19-.71-.41-1.02-.66-.31-.25-.58-.52-.82-.8-.24-.28-.46-.57-.65-.87-.19-.3-.35-.59-.49-.86-.14-.28-.26-.54-.35-.79-.1-.25-.18-.46-.24-.64-.51.03-.89.06-1.13.07-.24.01-.36.02-.37.02l-.34-1.9h0c.06,0,.19-.01.38-.03.19-.01.41-.03.68-.04.26-.02.54-.03.83-.05.3-.02.57-.04.83-.05.26-.02.48-.03.67-.04.19-.01.31-.02.36-.03.88-.07,1.59-.13,2.15-.19.56-.06,1-.12,1.33-.17.33-.05.57-.1.71-.13.14-.04.23-.06.28-.08.19-.07.34-.15.47-.25.13-.09.23-.21.3-.34.08-.13.13-.28.17-.46.04-.17.06-.37.07-.59.01-.26.12-.48.31-.66.2-.18.44-.26.72-.25.14,0,.26.04.38.09s.22.13.31.22c.09.09.15.19.2.31.05.12.07.24.06.37-.01.24-.04.53-.1.87s-.17.67-.35.99c-.28.5-.71.91-1.29,1.22.05.4.08.77.1,1.12.02.35.02.68,0,.99ZM52.05,189.21c.06.16.14.34.23.56.09.21.19.44.31.67.12.23.24.46.39.69.14.23.3.43.46.61.17.18.35.33.54.45.2.11.4.18.62.19.22,0,.41-.05.55-.18.14-.12.26-.29.34-.5.09-.2.15-.44.19-.7.04-.26.06-.52.07-.79,0-.27,0-.52-.02-.76-.02-.24-.04-.45-.07-.61-.39.06-.88.12-1.45.18-.57.06-1.29.13-2.16.2Z"/>
      <path class="cls-3" d="M57.96,186.73c-.13-.02-.25-.06-.36-.13-.11-.07-.2-.15-.28-.25-.08-.1-.14-.21-.17-.33-.04-.12-.05-.24-.04-.36v-.09c.05-.27.02-.53-.1-.79-.12-.26-.28-.51-.48-.75-.2-.24-.44-.47-.7-.68-.26-.21-.52-.41-.78-.58-.25-.17-.5-.32-.75-.46-.25-.14-.48-.26-.7-.38-.22-.11-.42-.21-.59-.29-.18-.08-.32-.14-.42-.19-.15-.05-.23-.08-.23-.08l.8-1.76s.03.02.07.03c.04.01.09.04.16.06.15.06.37.14.65.23.29.1.61.19.96.29.57.15,1.08.23,1.53.25.44.02.79-.02,1.04-.13.19-.06.31-.19.35-.38.03-.07.05-.14.06-.2.03-.24-.02-.48-.15-.73-.19-.32-.5-.64-.95-.98-.45-.34-1.01-.66-1.69-.97-.31-.15-.61-.28-.9-.39-.29-.11-.53-.19-.73-.26-.16-.05-.29-.1-.39-.13-.1-.03-.15-.05-.16-.05l.64-1.81s.06.03.15.06c.1.02.23.06.4.12s.38.11.63.17c.25.06.51.11.79.15.61.11,1.14.15,1.6.13.46-.02.82-.11,1.07-.26.1-.06.2-.14.29-.25.09-.11.15-.28.19-.51.05-.33-.03-.61-.25-.85-.22-.25-.56-.47-1.02-.66-.46-.19-1.02-.35-1.67-.47-.3-.05-.58-.09-.84-.13-.26-.03-.48-.06-.67-.07-.17,0-.31,0-.41-.02-.1-.01-.16-.02-.17-.02l.11-1.89s.23,0,.57.03c.14,0,.31,0,.49,0,.18,0,.38,0,.6-.01.22-.01.44-.03.68-.05.24-.02.48-.05.71-.09,1.71-.29,2.63-.88,2.76-1.78l.02-.11v-.08c.05-.27.18-.48.39-.63.21-.15.46-.21.74-.17.28.04.49.15.66.36.16.2.23.44.19.7v.08s-.03.11-.03.11c-.07.52-.26.98-.55,1.4-.29.42-.68.78-1.16,1.08-.23.15-.51.29-.83.42.39.23.7.49.94.76.3.33.51.69.64,1.09.12.4.15.81.09,1.25-.07.47-.23.89-.47,1.25s-.57.66-.97.88c-.13.07-.27.14-.42.2-.14.06-.3.11-.46.15.5.43.88.87,1.16,1.34.34.62.46,1.25.37,1.88-.01.09-.03.17-.05.26-.02.08-.05.17-.07.25-.25.73-.74,1.25-1.45,1.57-.12.05-.25.09-.38.12s-.27.07-.41.1c.26.25.48.49.66.74.7.89.98,1.81.84,2.76v.09c-.03.13-.07.24-.14.35-.07.11-.15.2-.26.27-.1.07-.22.13-.34.16-.13.03-.26.04-.39.03Z"/>
      <path class="cls-3" d="M60.49,169.58c-.12-.03-.24-.08-.34-.15s-.19-.15-.26-.25c-.07-.1-.12-.21-.14-.32-.02-.12-.03-.24-.01-.36.09-.37.1-.72.03-1.05-.07-.33-.21-.64-.4-.92-.2-.29-.43-.55-.72-.8-.28-.25-.59-.48-.91-.69-.33-.21-.66-.4-1-.56-.34-.17-.67-.32-.97-.46l.89-1.75c.14.09.33.19.56.32.23.13.48.26.75.4.27.13.55.26.83.38.29.12.56.21.81.27.18.04.35.06.53.07.18,0,.34,0,.49-.05.15-.04.28-.12.39-.24.11-.11.2-.27.25-.47.08-.32.06-.62-.06-.92-.12-.3-.3-.57-.55-.84-.25-.26-.54-.51-.87-.74-.34-.23-.69-.44-1.05-.63-.36-.19-.72-.37-1.06-.52-.35-.15-.65-.28-.91-.38l.8-1.71c.41.17.76.31,1.05.42.29.12.61.23.94.35.34.12.64.21.91.27.24.06.48.09.71.11.23.02.44,0,.62-.03.19-.04.35-.11.49-.21.14-.1.25-.25.31-.43.11-.28.17-.52.17-.72,0-.2-.02-.37-.07-.49-.05-.13-.11-.23-.18-.3-.07-.07-.13-.12-.16-.15h0c-.12-.11-.27-.21-.45-.29s-.37-.14-.58-.19c-.38-.09-.79-.13-1.25-.13-.46,0-.91.01-1.36.05-.45.04-.87.09-1.27.15-.4.06-.71.12-.95.17l-.49-1.84c.07-.02.22-.05.43-.09.21-.05.46-.09.77-.14.3-.05.64-.09,1.01-.14.37-.04.76-.07,1.16-.08s.81,0,1.22.02c.41.03.8.08,1.18.17.56.13,1.06.32,1.47.58.42.25.75.57,1,.94s.4.81.46,1.3c.06.49,0,1.04-.15,1.64-.06.24-.16.47-.3.69-.14.22-.3.42-.49.61-.19.19-.4.35-.63.5-.23.14-.47.26-.71.34.36.48.62.99.77,1.52.15.53.15,1.07.02,1.6-.06.23-.15.46-.28.69-.13.23-.28.45-.46.64-.18.19-.39.36-.62.5-.23.14-.48.23-.75.28.32.47.54.97.66,1.5s.1,1.12-.05,1.79l-.04.15c-.04.12-.1.22-.17.31s-.17.17-.28.23c-.11.06-.22.1-.35.11-.13.02-.25.01-.39-.02Z"/>
      <path class="cls-3" d="M70.8,155.13c.15-1,.19-1.92.11-2.78-.07-.85-.23-1.62-.48-2.29-.24-.67-.56-1.25-.93-1.72-.38-.47-.8-.82-1.25-1.05-.09.26-.2.56-.33.9-.13.35-.28.68-.43,1-.58,1.28-1.39,2.1-2.45,2.45-.47.15-.97.19-1.48.1-.51-.09-1.01-.25-1.49-.49-.48-.24-.92-.53-1.33-.88-.41-.35-.73-.71-.98-1.07-.29-.44-.47-.87-.54-1.3s-.04-.84.11-1.23c.32-.86,1.02-1.51,2.11-1.95.4-.15.82-.27,1.27-.35s.92-.12,1.41-.12c.48,0,.98.04,1.48.11.5.07.99.18,1.48.34l.25-.68c.05-.13.12-.24.2-.33.09-.09.19-.17.31-.22.12-.05.24-.08.37-.09s.27,0,.4.05c.13.04.24.11.33.19.09.08.17.18.22.29.06.11.09.23.09.35,0,.12-.01.25-.06.38l-.31.81c.88.5,1.6,1.11,2.19,1.84.58.73,1.03,1.53,1.35,2.39.32.86.5,1.77.55,2.72.05.95-.01,1.89-.19,2.81l-2-.2ZM61.22,147.41c-.07.17-.06.36.03.57.08.21.21.41.39.61.18.2.39.39.63.57.25.18.5.33.76.45.26.12.51.21.75.26.24.05.45.04.62-.02.16-.05.31-.13.44-.24.13-.11.25-.23.35-.37.1-.13.2-.27.27-.41.08-.14.14-.26.19-.37.17-.37.31-.72.42-1.04.11-.32.2-.6.27-.84-.41-.12-.81-.2-1.2-.25-.39-.05-.77-.07-1.12-.07-.35,0-.68.04-.99.1-.31.06-.58.14-.82.22-.09.04-.18.08-.28.13-.1.05-.2.11-.29.18-.09.07-.18.14-.25.23-.08.09-.13.18-.17.28Z"/>
      <path class="cls-3" d="M67.67,145.72c-.25-.11-.43-.28-.52-.51-.09-.24-.09-.48,0-.72h0c.23-.5.34-.95.33-1.37-.01-.41-.1-.8-.27-1.17-.16-.37-.39-.72-.66-1.06-.28-.34-.56-.68-.86-1.02-.26-.29-.51-.58-.75-.85-.23-.28-.43-.57-.59-.88-.44-.81-.48-1.59-.13-2.34.41-.89,1.13-1.46,2.15-1.74.81-.22,1.69-.19,2.63.09.45.12.88.28,1.27.5.39.21.74.46,1.04.74.37.36.63.73.79,1.14s.2.81.14,1.22c-.12.73-.55,1.44-1.28,2.12-.5.47-1.13.92-1.91,1.34.02.06.04.1.04.12.55,1.27.51,2.58-.11,3.92h0c-.11.25-.29.41-.55.51-.25.09-.51.08-.76-.02ZM68.02,139.55c.66-.36,1.19-.72,1.58-1.09.39-.36.61-.71.66-1.04.02-.11,0-.24-.08-.38-.07-.14-.19-.29-.34-.43-.15-.14-.35-.28-.58-.41-.23-.13-.49-.23-.79-.31-.05-.01-.13-.03-.24-.05-.12-.02-.25-.03-.4-.05s-.31,0-.48,0c-.17.01-.34.04-.5.1-.16.05-.31.13-.44.23-.14.1-.25.24-.33.42-.05.12-.07.24-.05.37.02.13.09.28.19.45.1.16.24.35.41.56.17.21.37.45.61.72l.79.9Z"/>
      <path class="cls-3" d="M87.74,109.62c.16-.23.37-.36.63-.41.26-.05.51,0,.75.14.23.14.38.34.43.59.06.25,0,.49-.15.71-.62.89-1.36,1.58-2.22,2.09-.86.51-1.81.78-2.84.82.09.18.16.37.21.57.05.2.08.4.09.6.01.2.01.41,0,.61-.01.2-.03.4-.07.6-.25,1.45-1,3.08-2.27,4.9l-.51.74c-.4.57-.8,1.09-1.2,1.56-.31.38-.62.75-.95,1.08s-.67.66-1.03.96c-.06.05-.16.13-.28.23-.13.1-.26.19-.4.29-.14.1-.27.19-.39.27-.12.08-.21.14-.26.17-.4.22-.79.38-1.18.49-.26.08-.53.14-.82.16-.29.03-.59.03-.91,0,0,0-.02,0-.04-.01-.27-.03-.54-.1-.82-.19-.28-.09-.55-.21-.83-.37-.27-.15-.54-.35-.79-.57-.25-.23-.49-.5-.7-.81-.29-.42-.51-.78-.66-1.08-.16-.31-.25-.48-.28-.54l1.88-.64c.08.17.17.34.26.48.07.13.15.26.23.39.08.13.16.23.22.31.55.69,1.13,1.07,1.76,1.14.58.07,1.22-.12,1.93-.57.71-.45,1.47-1.14,2.26-2.07.28-.35.54-.67.77-.99.23-.31.43-.58.59-.82.4-.53.74-1.03,1.02-1.49.28-.46.51-.88.7-1.26.19-.38.33-.73.43-1.03.1-.31.18-.57.23-.79.14-.58.15-1.07.05-1.45-.1-.39-.29-.69-.57-.92-.28-.22-.62-.38-1.04-.46-.42-.08-.87-.12-1.36-.11-.49.01-1.01.06-1.54.15-.53.09-1.05.19-1.56.32-.5.12-.98.25-1.43.38-.45.13-.84.25-1.16.36l-1.62-1.27,1.74-9.24,1.96.36-1.59,8.12c.65-.24,1.3-.45,1.96-.61s1.31-.29,1.95-.36c.64-.08,1.27-.1,1.87-.08s1.17.1,1.69.23c.33.08.67.16,1.02.22.35.06.71.1,1.08.11.37,0,.74-.03,1.12-.12.38-.08.77-.24,1.16-.46.5-.29.98-.75,1.43-1.39l.04-.06ZM74.94,107.01c.15-.21.35-.39.6-.52.25-.14.52-.22.82-.26.28-.03.56-.02.82.04.27.06.51.15.73.29.22.13.4.31.57.52.16.21.29.45.37.71.09.28.12.55.08.82-.03.27-.13.51-.27.73-.15.22-.35.4-.6.53-.25.14-.53.22-.83.25-.28.03-.56.02-.83-.04-.27-.06-.51-.15-.73-.29-.22-.14-.41-.31-.57-.52-.16-.21-.28-.45-.36-.7-.08-.28-.11-.55-.07-.82.03-.27.13-.51.28-.73ZM77.75,108.77c.07-.1.11-.22.11-.35,0-.13-.01-.26-.06-.39-.04-.13-.11-.25-.19-.36-.08-.11-.18-.2-.29-.27-.11-.07-.23-.11-.37-.14-.14-.03-.28-.04-.42-.03-.14,0-.27.05-.4.1-.12.06-.22.14-.29.24-.07.11-.11.22-.12.35,0,.13.02.26.06.39.04.13.11.25.19.36.08.11.18.2.29.26.11.07.23.12.37.15.14.03.28.04.43.02.14-.01.28-.05.4-.1.12-.05.22-.13.3-.24Z"/>
      <path class="cls-3" d="M83.37,101.79l.22,2.19-2.33.22-.23-2.2,2.34-.21ZM86.03,98.76l.23,2.2-2.34.21-.22-2.19,2.33-.22ZM87.84,111.6c-.22-.17-.34-.38-.37-.64-.03-.26.05-.49.23-.69l.49-.56c.36-.41.68-.83.96-1.25s.48-.83.59-1.23c.11-.4.12-.78.02-1.14-.1-.36-.34-.68-.74-.96-.3-.22-.62-.43-.97-.64-.35-.21-.77-.41-1.26-.62l.79-1.71c.22.1.45.21.68.32.24.12.47.24.7.38.23.13.47.27.7.41s.45.29.66.44c.2.14.42.28.67.41s.5.23.76.28.52.05.77-.01c.26-.06.49-.22.71-.47.18-.21.41-.32.68-.35.27-.03.52.04.74.21.11.09.19.18.25.3.06.11.09.23.1.35.01.12,0,.24-.04.36-.04.12-.1.23-.18.32-.43.5-.89.84-1.36,1.01-.47.18-.94.26-1.41.24.03.32-.02.67-.13,1.05-.12.38-.29.77-.5,1.17-.22.4-.47.8-.75,1.2-.29.4-.58.78-.9,1.13l-.49.56c-.18.21-.41.32-.67.35s-.51-.05-.73-.22Z"/>
      <path class="cls-3" d="M90.29,92.14l.02,2.21-2.35.02-.03-2.21,2.35-.02ZM92.96,105.33c-.1-.09-.17-.19-.22-.31-.05-.11-.08-.23-.08-.36,0-.12.02-.24.07-.36.05-.12.12-.23.22-.32l1.3-1.26c.63-.61,1.18-1.26,1.64-1.94.46-.68.87-1.38,1.22-2.09.35-.71.66-1.44.93-2.18.27-.74.53-1.47.78-2.21l.06-.18c-.44.2-.88.38-1.32.55-.44.16-.87.32-1.3.47-.32.11-.64.23-.95.34-.31.11-.6.23-.87.35-.27.12-.52.25-.74.37-.22.13-.41.27-.56.41-.2.19-.34.41-.43.66-.09.25-.14.51-.16.77-.02.26,0,.52.03.78.03.26.08.48.13.69.05.2.12.43.21.68l-1.88.69s-.03-.06-.06-.16c-.04-.1-.08-.24-.13-.42-.05-.18-.11-.38-.16-.62-.05-.23-.09-.48-.12-.75-.07-.77-.01-1.46.17-2.08s.5-1.15.95-1.58c.23-.22.49-.42.77-.6.29-.18.6-.34.93-.49.33-.15.68-.29,1.04-.43.36-.14.73-.27,1.11-.4.42-.14.84-.29,1.25-.45.42-.15.82-.32,1.22-.5.39-.18.77-.38,1.12-.61s.67-.47.96-.75l1.65,1c-.12.29-.24.59-.35.9-.11.3-.22.61-.33.92.24.12.48.18.72.19.24,0,.49-.02.73-.09.24-.06.47-.15.69-.27s.42-.24.61-.37c.19-.13.36-.26.5-.39.15-.13.26-.23.35-.32l.04-.04.06-.06c.1-.1.21-.17.33-.21.12-.05.25-.07.38-.07.13,0,.25.02.38.07s.23.11.33.2c.2.19.3.41.3.66,0,.25-.1.48-.3.67l-.1.1c-.47.45-.95.83-1.43,1.13-.49.3-.97.52-1.45.67-.48.14-.95.21-1.42.2-.47,0-.92-.1-1.34-.27-.24.7-.5,1.41-.78,2.13-.28.72-.61,1.44-.98,2.15-.37.71-.8,1.41-1.29,2.1-.49.69-1.06,1.35-1.71,1.98l-1.31,1.25c-.2.19-.43.29-.7.3-.27,0-.5-.08-.71-.27Z"/>
      <path class="cls-3" d="M104.39,94.25c-.18-.2-.25-.43-.23-.68.02-.25.14-.47.34-.64h0c.43-.35.74-.72.92-1.09.18-.37.28-.76.31-1.16.02-.4-.01-.81-.1-1.23-.09-.42-.19-.84-.3-1.27-.1-.37-.19-.73-.27-1.08-.08-.35-.12-.69-.12-1.03-.02-.91.31-1.63.97-2.16.78-.62,1.69-.85,2.74-.67.83.14,1.61.53,2.32,1.17.35.3.65.62.91.97.25.35.45.72.59,1.1.16.47.22.92.18,1.35-.05.43-.19.81-.44,1.16-.45.61-1.16,1.07-2.14,1.37-.67.22-1.44.35-2.33.41,0,.06-.01.11-.02.13-.1,1.37-.74,2.53-1.92,3.47h0c-.21.18-.45.25-.72.23-.27-.02-.49-.13-.67-.34ZM107.56,88.85c.76-.05,1.4-.15,1.92-.32.52-.16.87-.38,1.07-.66.07-.09.11-.22.11-.37s-.04-.34-.11-.53c-.07-.19-.18-.4-.33-.61-.15-.21-.33-.41-.56-.61-.04-.03-.1-.08-.2-.15-.1-.07-.21-.14-.34-.21-.13-.07-.28-.14-.44-.2-.16-.06-.32-.1-.49-.12s-.34-.01-.51.02c-.17.04-.33.12-.49.24-.1.08-.17.19-.21.32-.04.13-.05.29-.04.48.02.19.05.41.11.67.06.26.13.56.21.9l.3,1.14Z"/>
      <path class="cls-3" d="M119.16,83.36c.35.45.62.93.81,1.45.19.52.31,1.06.37,1.63.06.56.05,1.14-.01,1.73-.06.59-.17,1.18-.33,1.78-.15.59-.35,1.18-.59,1.75-.24.58-.5,1.13-.79,1.67l-1.77-.88c.24-.47.47-.95.68-1.44.21-.5.38-1,.52-1.5.14-.5.24-1,.3-1.5.06-.5.06-.97.01-1.43-.05-.46-.16-.89-.33-1.3-.17-.41-.42-.79-.74-1.12h.01c-.27-.25-.57-.53-.91-.81-.34-.28-.69-.55-1.03-.81-.35-.26-.68-.5-.99-.72-.31-.22-.58-.41-.79-.55l1.19-1.52c.67.45,1.27.82,1.8,1.1.53.28,1,.48,1.41.6.42.12.79.16,1.11.12.32-.04.62-.15.9-.34l.04-.03c.11-.08.24-.13.37-.16.13-.03.26-.03.39-.01s.25.06.36.12c.11.06.21.15.29.25.17.22.23.45.19.7-.04.25-.18.45-.41.61h0c-.08.06-.18.13-.3.21-.13.08-.28.15-.46.22-.18.07-.38.12-.59.15-.22.03-.46.03-.71,0l.02.03Z"/>
      <path class="cls-3" d="M119.41,82.75c-.16-.22-.21-.46-.15-.71.06-.25.2-.45.43-.59l.94-.58c.2-.12.42-.25.65-.4.23-.15.46-.3.68-.47.22-.17.43-.34.64-.53.2-.18.37-.37.51-.56.14-.19.25-.39.32-.59.07-.2.09-.39.06-.59-.05-.3-.24-.65-.58-1.04-.34-.4-.8-.82-1.37-1.28-.18-.13-.38-.28-.6-.43-.22-.15-.43-.29-.63-.41-.23-.15-.46-.29-.7-.43l1.02-1.65s.07.05.2.12.29.17.49.3c.2.13.43.28.69.45.26.17.52.37.79.57,1.59,1.21,2.49,2.37,2.69,3.48.2,1.11-.12,2.12-.96,3.03-.12.14-.29.29-.51.46s-.45.34-.69.51c-.24.17-.48.32-.7.46-.22.14-.4.25-.52.33l-1.23.76-.08.05c-.23.14-.48.19-.75.14-.27-.05-.48-.19-.63-.41ZM123.14,83.7l2.28.46-.48,2.18-2.28-.46.48-2.18ZM126.78,85.07l2.08.41-.43,1.98-2.08-.41.43-1.98ZM126.84,81.39l2.27.45-.48,2.18-2.28-.45.48-2.18Z"/>
      <path class="cls-3" d="M137.12,79.17c.84-.62,1.54-1.26,2.11-1.93s1.01-1.32,1.33-1.97c.32-.65.51-1.26.58-1.85.07-.59.02-1.11-.14-1.57-.25.12-.55.27-.9.43-.35.16-.7.31-1.05.44-1.35.54-2.54.6-3.56.16-.45-.2-.83-.5-1.14-.9s-.55-.84-.72-1.33c-.17-.49-.28-.99-.32-1.51-.04-.52-.01-.99.08-1.42.11-.51.3-.94.56-1.29.26-.36.59-.63.97-.81.86-.41,1.84-.42,2.95-.03.48.17.94.42,1.4.73.46.31.88.67,1.28,1.08.4.41.76.87,1.09,1.36s.6,1.02.82,1.56c.27.66.43,1.32.49,1.98.06.66.03,1.3-.08,1.93-.11.63-.3,1.25-.57,1.85-.27.6-.6,1.17-.99,1.71-.39.54-.83,1.05-1.33,1.53-.5.48-1.03.91-1.6,1.3l-1.3-1.46ZM135.84,67.31c-.17.08-.31.23-.4.43-.09.2-.14.43-.16.69-.02.26,0,.53.04.82.05.29.12.56.21.82.1.26.21.49.35.68.14.19.3.33.46.4.15.07.31.11.49.11.18,0,.35,0,.53-.03.17-.03.34-.07.5-.12.16-.05.3-.1.41-.14.39-.16.75-.32,1.06-.47.32-.16.58-.3.81-.43-.21-.35-.44-.67-.68-.97-.25-.29-.5-.56-.76-.78-.26-.23-.52-.42-.79-.58-.26-.16-.52-.28-.76-.38-.09-.03-.19-.06-.3-.09-.11-.03-.22-.05-.34-.06s-.23-.01-.35,0c-.12.01-.23.04-.33.09Z"/>
      <path class="cls-3" d="M145.42,69.92c-.52-1.37-1.05-2.66-1.57-3.85-.53-1.2-1.03-2.29-1.52-3.29-.49-1-.94-1.89-1.37-2.67-.42-.78-.79-1.44-1.11-1.99-.32-.54-.56-.96-.74-1.24-.18-.29-.28-.44-.28-.45l1.7-1.02s.24.37.63,1.01c.2.32.4.66.61,1.04.21.38.43.78.67,1.21.24.43.46.85.66,1.24.2.39.4.78.58,1.14.53,1.07,1.11,2.29,1.74,3.66.62,1.37,1.25,2.89,1.88,4.54l-1.87.66Z"/>
      <path class="cls-3" d="M165.92,54.17c.42-.21.84-.36,1.26-.45.42-.09.79-.14,1.12-.16.33-.02.61-.02.82,0,.21.02.33.03.35.03l-.33,1.92c-.28-.02-.52-.03-.73-.01-.21.01-.45.05-.72.11s-.54.15-.8.29c-.27.1-.52.26-.78.47-.25.22-.48.47-.69.76s-.38.61-.53.94-.26.68-.32,1.01c-.06.34-.07.66-.03.98.04.32.15.59.33.83.15.2.36.35.61.42.25.08.54.12.85.14.31.01.65,0,1-.02.35-.03.71-.04,1.06-.04.35,0,.69.02,1.03.07.33.05.63.15.91.31.27.16.5.39.69.69.19.3.31.7.37,1.19.07.63-.05,1.27-.35,1.9-.3.63-.77,1.23-1.41,1.79-.61.54-1.34,1.03-2.19,1.45-.85.43-1.81.79-2.87,1.08-1.23.34-2.36.47-3.41.4-1.05-.07-1.97-.35-2.77-.82-.71-.43-1.29-1-1.74-1.7-.45-.7-.76-1.52-.92-2.46-.07-.41-.13-.85-.17-1.3-.04-.45-.07-.9-.09-1.33-.02-.43-.03-.85-.02-1.25,0-.4,0-.75.01-1.06,0-.31.02-.56.02-.75,0-.19.02-.3.02-.33l2.05.11c-.03.94-.04,1.87-.03,2.8s.09,1.85.24,2.78c.04.23.09.48.17.73.08.26.18.52.32.77.14.25.31.49.51.72.2.23.44.42.73.59.54.33,1.2.51,1.96.54.76.03,1.61-.08,2.54-.34.92-.25,1.73-.55,2.43-.89.7-.34,1.27-.7,1.73-1.08.45-.38.78-.75.98-1.12.2-.37.27-.72.21-1.04-.03-.15-.13-.26-.28-.32-.15-.06-.35-.1-.59-.12-.24-.02-.51-.01-.81,0-.3.02-.62.03-.95.03-.33,0-.67-.01-1.01-.04-.34-.03-.67-.09-.98-.19-.31-.1-.6-.24-.87-.43-.26-.19-.49-.45-.66-.77-.25-.46-.43-.93-.52-1.43-.09-.5-.12-1-.08-1.5.04-.5.15-1,.33-1.48.17-.48.41-.94.69-1.37.29-.43.63-.82,1.02-1.18s.82-.65,1.3-.9Z"/>
      <path class="cls-3" d="M178.65,59.62c.11.55.13,1.09.07,1.64-.06.55-.2,1.09-.4,1.62-.2.53-.47,1.05-.8,1.56-.33.51-.7,1-1.11,1.47-.41.47-.85.92-1.33,1.34s-.96.82-1.47,1.18l-1.2-1.52c.43-.32.85-.66,1.27-1.02.41-.36.8-.74,1.15-1.14.35-.4.67-.81.95-1.23.28-.42.5-.85.66-1.28.16-.44.26-.87.3-1.31.03-.44-.02-.88-.15-1.32v.02c-.12-.35-.26-.72-.44-1.12-.18-.4-.37-.78-.56-1.15-.2-.38-.39-.73-.57-1.06-.18-.33-.33-.6-.46-.82l1.76-.89c.4.68.77,1.26,1.12,1.73.35.47.68.84,1,1.12.32.28.64.46.95.56.31.1.63.12.96.06h.05c.14-.04.27-.03.4,0s.25.08.35.15c.11.07.2.15.27.26.07.1.12.22.15.34.05.26,0,.5-.15.71-.15.21-.37.34-.65.39h0c-.09.02-.22.04-.37.06-.15.02-.32.03-.51.01-.19-.01-.39-.05-.61-.1-.21-.06-.42-.16-.64-.29v.04ZM177,64.73c.26-.05.54-.04.81.04.28.07.53.2.77.38.22.17.4.36.55.59.14.22.24.45.29.7.05.24.05.49,0,.75-.05.26-.14.51-.28.74-.15.26-.33.46-.56.63-.23.17-.48.27-.74.32-.27.05-.55.04-.82-.04s-.53-.2-.77-.39c-.22-.17-.4-.37-.55-.59-.15-.22-.24-.46-.29-.7-.05-.25-.05-.5,0-.75.05-.26.14-.5.28-.74.15-.25.34-.46.57-.62.23-.17.48-.27.75-.32ZM177.64,67.86c.13-.02.24-.08.34-.17.1-.09.19-.19.25-.31.06-.12.11-.25.13-.38s.02-.26,0-.38c-.02-.12-.07-.23-.15-.35-.07-.11-.17-.21-.27-.3-.11-.09-.23-.16-.35-.2-.13-.05-.26-.06-.38-.03-.13.02-.25.08-.35.17-.1.09-.18.19-.25.31-.07.12-.12.25-.14.38-.02.13-.02.26,0,.38.02.12.07.24.15.35.08.12.17.22.28.31.11.09.23.15.35.2.13.05.26.06.39.03Z"/>
      <path class="cls-3" d="M179.02,59.17c-.04-.27.03-.5.21-.71.18-.21.42-.33.75-.37l1.06-.13c.4-.05.82-.11,1.26-.17.43-.06.85-.15,1.24-.27.39-.11.74-.26,1.04-.45.31-.18.53-.42.68-.71.18-.34.26-.71.25-1.09-.01-.38-.11-.78-.29-1.2-.11-.25-.34-.56-.68-.93-.35-.37-.77-.76-1.26-1.16-.49-.41-1.04-.82-1.63-1.24s-1.2-.8-1.8-1.15l-.04-1.98,7.81-4.37,1.01,1.64-6.81,3.75c.37.23.76.48,1.2.76.43.28.87.6,1.31.95.58.47,1.07.93,1.47,1.38.4.45.71.88.95,1.29.24.42.42.82.53,1.2.11.38.18.75.19,1.1s-.01.67-.08.98c-.06.31-.15.59-.26.85-.46,1.08-1.38,1.83-2.77,2.25-.25.08-.54.13-.87.17l-3.25.4c-.32.04-.6-.02-.82-.17-.23-.15-.36-.36-.39-.62Z"/>
      <path class="cls-3" d="M200.46,58.24s-.12,0-.25,0c-.13,0-.3-.02-.49-.04-.2-.02-.42-.06-.67-.12-.25-.05-.5-.14-.75-.25-.65-.27-1.15-.64-1.49-1.12-.35-.48-.53-1.05-.54-1.71-.03-1.15.49-2.37,1.57-3.66.22-.25.43-.48.63-.69.2-.2.38-.37.53-.51-.21-.17-.37-.3-.5-.39s-.19-.14-.19-.15l1.24-1.5s.08.07.22.18c.14.11.32.25.54.44.22.19.47.41.76.66s.57.53.87.83c.85.87,1.48,1.69,1.91,2.46.43.77.65,1.48.66,2.14.02.66-.12,1.24-.42,1.73s-.74.88-1.33,1.17c-.21.11-.43.19-.65.26-.22.07-.43.12-.64.16-.2.04-.39.07-.57.08-.18.02-.33.02-.45.02ZM200.42,51.48c-.19.17-.41.39-.67.65-.25.26-.49.55-.71.86-.22.31-.41.64-.56.98s-.22.67-.21.99c0,.1.01.2.03.3.02.1.06.2.12.3.06.1.14.19.25.29.11.09.26.18.44.25.13.05.26.1.4.13.14.03.26.06.38.07.12.02.22.03.32.03.1,0,.17,0,.21,0,.06,0,.15,0,.26,0,.11,0,.23-.02.37-.04.13-.02.26-.05.4-.09.14-.04.27-.09.4-.15.25-.13.42-.29.53-.48.11-.19.16-.42.15-.71-.01-.42-.19-.91-.54-1.49-.35-.57-.86-1.19-1.52-1.86,0,0-.01-.01-.02-.02,0,0-.01-.01-.03-.02Z"/>
      <path class="cls-3" d="M210.57,58.34c-.32-.01-.71-.07-1.14-.17s-.87-.21-1.31-.35c-.43-.14-.83-.29-1.18-.45-.36-.16-.62-.32-.78-.48l.92-1.77c.24.17.53.33.88.49.34.16.71.3,1.11.43.39.12.8.22,1.22.29.42.07.83.1,1.22.08.39-.01.76-.08,1.11-.19.34-.11.64-.29.88-.55.19-.19.23-.56.13-1.11-.06-.32-.16-.65-.31-1-.15-.35-.33-.7-.55-1.05-.22-.35-.46-.7-.72-1.04-.27-.34-.55-.65-.84-.95-.29-.29-.59-.55-.9-.79-.31-.23-.61-.42-.91-.56l.91-1.71c.39.19.78.43,1.17.73.39.29.77.62,1.13.98.36.36.71.75,1.04,1.17.33.42.62.84.88,1.28.26.44.49.88.67,1.31s.32.87.4,1.28c.06.36.09.69.07.97-.01.29-.06.54-.12.76-.07.22-.15.41-.26.57-.1.16-.21.3-.33.42-.66.68-1.55,1.11-2.67,1.29-.26.05-.53.09-.82.1-.29.01-.59.01-.9,0Z"/>
      <path class="cls-3" d="M220.69,52.85c.12.61.24,1.22.34,1.81.04.26.08.52.13.8.04.27.08.55.12.82.03.27.06.54.08.8.02.26.03.5.03.71,0,.07,0,.15,0,.24,0,.09-.01.19-.02.3-.06.55-.21,1.08-.44,1.59-.23.51-.52.98-.88,1.43-.36.45-.77.88-1.24,1.27-.47.4-.97.76-1.51,1.1-.54.34-1.1.64-1.68.92s-1.17.52-1.77.72l-.69-1.77c.74-.26,1.47-.58,2.18-.95.71-.37,1.36-.79,1.94-1.25.58-.46,1.06-.97,1.44-1.52.38-.55.6-1.13.67-1.75,0-.03,0-.08,0-.16,0-.07,0-.15,0-.22h0c0-.19,0-.41-.03-.65-.02-.24-.05-.48-.08-.73s-.07-.5-.11-.75c-.04-.25-.08-.5-.12-.73-.1-.55-.21-1.1-.34-1.66l1.98-.38ZM221.57,49.02l-1.82,1.4-1.48-1.73,1.82-1.39,1.48,1.73Z"/>
      <path class="cls-3" d="M234.19,57.89c-.26.2-.51.47-.75.81-.21.29-.43.67-.66,1.14-.23.47-.43,1.06-.6,1.76-.1.41-.13.8-.09,1.16.04.36.13.7.27,1,.14.31.31.58.53.83.21.25.44.46.68.65.24.18.48.34.72.45.24.12.46.2.66.24.3.07.64.12,1.01.16.37.04.74.05,1.12.02s.76-.09,1.13-.2c.37-.11.73-.27,1.05-.5.33-.22.61-.51.86-.87.25-.36.44-.8.57-1.33.12-.49.26-1.08.41-1.77.15-.69.32-1.42.49-2.21.17-.79.34-1.6.52-2.45.17-.84.34-1.67.51-2.47.39-1.89.8-3.87,1.21-5.95l1.95.36c-.23,1.13-.46,2.3-.7,3.5-.11.51-.22,1.05-.33,1.62-.11.57-.24,1.16-.36,1.76-.13.61-.25,1.21-.38,1.82-.13.61-.25,1.21-.38,1.79-.07.4-.06.77.02,1.1.03.15.08.29.15.44.07.14.16.28.27.41.11.13.26.24.43.34.17.1.38.18.62.23.14.03.26.09.37.16s.19.17.26.27.11.22.13.34c.02.12.02.25-.01.37-.07.26-.21.46-.44.59-.23.13-.48.16-.76.1-.23-.05-.43-.11-.62-.17-.18-.06-.34-.13-.49-.2-.14-.07-.28-.15-.39-.23s-.23-.17-.34-.26c-.03.17-.07.33-.11.49-.04.16-.07.3-.11.44-.2.79-.47,1.45-.82,1.98-.35.54-.75.97-1.21,1.31-.45.34-.94.59-1.46.76-.52.16-1.05.27-1.59.31-.54.04-1.07.04-1.6-.02-.52-.06-1.01-.13-1.47-.24-.45-.1-.88-.24-1.31-.43-.42-.19-.82-.43-1.19-.71-.37-.28-.69-.6-.98-.97-.29-.37-.51-.78-.68-1.24-.16-.45-.26-.95-.28-1.49-.03-.54.04-1.13.2-1.76.22-.87.46-1.59.74-2.17.28-.58.55-1.06.81-1.42.3-.42.6-.76.92-1.01l1.48,1.33Z"/>
      <path class="cls-3" d="M243.35,62.34c.09-.26.25-.44.49-.56.24-.12.49-.14.76-.05l.73.22c.54.16,1.07.29,1.59.38s.99.11,1.42.06c.43-.05.81-.18,1.12-.4.31-.22.54-.55.67-1,.1-.35.19-.71.27-1.09.08-.38.12-.83.14-1.34l1.97.06c-.02.23-.04.47-.06.72s-.06.5-.11.76c-.04.26-.09.51-.15.77-.06.26-.12.51-.18.75-.06.23-.12.48-.15.74-.04.26-.04.52,0,.77.04.25.14.48.3.68.15.2.4.35.73.45.27.08.47.24.6.46.13.23.15.47.06.72-.04.13-.11.24-.2.33-.09.09-.19.17-.3.22-.11.06-.24.09-.36.1-.13.01-.26,0-.39-.04-.65-.2-1.15-.47-1.5-.82-.35-.35-.6-.74-.76-1.15-.3.14-.66.23-1.08.27-.42.04-.86.03-1.33,0-.47-.04-.96-.11-1.46-.22-.5-.1-.98-.22-1.44-.37l-.73-.22c-.27-.08-.47-.24-.59-.46-.12-.23-.14-.47-.05-.72ZM248.35,63.73c.26.08.49.21.69.4.21.19.37.42.48.68.11.25.17.5.18.76.02.26-.02.51-.1.75-.08.23-.2.45-.38.66-.17.21-.38.38-.62.52-.26.16-.53.26-.81.3-.28.04-.55.02-.81-.06-.26-.08-.5-.22-.7-.41-.2-.19-.37-.42-.48-.69-.11-.25-.17-.5-.18-.77-.02-.26.02-.51.1-.74.08-.24.21-.46.38-.66.17-.2.38-.38.62-.52.26-.15.53-.25.81-.29.28-.04.56-.02.82.06ZM247.32,66.77c.12.04.25.04.39.01.13-.03.26-.08.38-.16.12-.08.22-.17.31-.27.09-.11.15-.22.19-.34.04-.11.05-.24.05-.37,0-.14-.04-.26-.09-.39s-.12-.24-.21-.34c-.09-.1-.2-.17-.32-.2-.13-.04-.26-.04-.39-.01-.13.03-.26.08-.38.16-.12.07-.23.16-.31.27-.09.1-.15.21-.19.33s-.05.24-.05.38c0,.14.04.27.09.4.05.13.12.24.21.34.09.1.2.17.32.2ZM250.24,54.72l-2.06,1.01-1.08-1.97,2.07-1.02,1.08,1.98ZM254.2,55.92l-2.07,1.02-1.08-1.98,2.07-1.01,1.08,1.97Z"/>
      <path class="cls-3" d="M253.51,70.4l-2.12.9-.96-2.03,2.12-.91.96,2.04ZM251.3,64.68c.1-.25.28-.43.52-.54.25-.11.5-.11.77-.01l.72.26c.53.19,1.05.35,1.56.46.51.12.98.16,1.42.13s.82-.14,1.14-.34c.33-.2.57-.52.73-.96.12-.34.23-.7.33-1.07s.17-.82.22-1.33l1.96.17c-.03.23-.06.47-.11.72-.04.25-.09.5-.15.75-.06.25-.12.51-.19.76s-.15.5-.23.74c-.08.23-.14.47-.2.73-.05.26-.07.52-.04.77.03.25.12.48.26.69.14.21.38.37.7.49.26.1.46.26.57.5.12.23.12.48.02.73-.05.13-.12.23-.22.32-.09.09-.2.15-.32.2-.12.05-.24.08-.37.08-.13,0-.26-.02-.38-.06-.64-.23-1.12-.53-1.45-.9-.33-.37-.56-.77-.69-1.19-.31.13-.68.2-1.1.21-.42.02-.86,0-1.33-.08-.47-.07-.95-.17-1.44-.3-.49-.13-.96-.28-1.42-.44l-.72-.26c-.27-.1-.45-.26-.56-.49s-.11-.47-.01-.72ZM257.38,71.82l-2.13.9-.96-2.03,2.12-.9.96,2.03Z"/>
      <path class="cls-3" d="M259.11,67.24c.06-.12.14-.21.24-.3.1-.08.21-.14.33-.18s.25-.06.38-.05c.13,0,.26.04.39.09l1.67.77c.82.37,1.64.66,2.46.86.83.2,1.65.34,2.48.43.83.09,1.65.13,2.48.14.83,0,1.64,0,2.46,0h.2c-.34-.33-.67-.67-.97-1.01-.3-.35-.6-.68-.88-1.01-.21-.26-.43-.5-.64-.74-.21-.24-.42-.46-.63-.67s-.41-.39-.61-.55c-.2-.16-.4-.28-.59-.37-.26-.12-.52-.18-.8-.17-.28,0-.55.03-.82.11-.27.07-.52.16-.77.27-.24.11-.46.22-.64.33-.19.11-.39.25-.61.41l-1.29-1.47s.05-.04.14-.11c.09-.07.22-.15.38-.25.16-.1.35-.22.57-.34.22-.12.45-.24.71-.35.74-.31,1.45-.48,2.13-.51.68-.03,1.31.09,1.89.35.29.13.57.3.85.51.27.2.54.43.79.68.25.25.51.51.76.8.25.28.5.57.76.86.27.33.56.66.84.98.29.32.59.63.89.93s.63.57.96.82c.34.25.69.45,1.06.62l-.48,1.8c-.33-.02-.66-.03-1.01-.03-.34,0-.68,0-1.03,0-.05.25-.03.49.04.71.07.22.18.43.32.63.14.2.3.37.49.53.18.16.37.3.56.43.19.13.37.24.55.33.18.09.32.16.43.21l.06.02.07.03c.13.06.23.14.32.23.09.1.15.2.19.32.04.11.06.24.05.36,0,.12-.04.25-.1.36-.12.24-.31.4-.57.48-.25.08-.51.06-.77-.06l-.13-.06c-.6-.28-1.13-.58-1.59-.93-.46-.34-.83-.7-1.13-1.09s-.52-.79-.66-1.21c-.14-.43-.19-.86-.16-1.29-.77,0-1.56,0-2.38-.02-.81-.03-1.64-.09-2.47-.2-.83-.11-1.67-.27-2.52-.49-.85-.22-1.69-.52-2.53-.91l-1.67-.77c-.25-.12-.43-.3-.52-.53-.09-.24-.08-.48.05-.72ZM266.67,75.62l-2.21.73-.77-2.11,2.21-.73.77,2.1Z"/>
      <path class="cls-3" d="M275.23,79.79l-2.25.55-.59-2.15,2.26-.55.58,2.16ZM273.32,73.77c.14-.23.35-.38.61-.44.26-.06.51-.02.75.11l.97.54c.2.12.42.25.66.38.24.13.49.25.75.37.26.11.52.22.78.31.26.09.51.15.76.19.24.04.48.04.7.02.22-.03.42-.09.59-.21.26-.17.51-.49.73-.96.22-.47.43-1.04.61-1.73.05-.21.09-.44.14-.7.05-.25.08-.49.11-.71.04-.26.07-.52.1-.78l2.01.14s-.01.08-.02.22c-.01.14-.03.32-.07.55-.03.23-.07.49-.13.78-.05.3-.12.6-.2.92-.45,1.89-1.15,3.16-2.12,3.82-.97.66-2.07.83-3.29.52-.19-.04-.41-.12-.67-.23s-.52-.23-.78-.37c-.26-.13-.51-.26-.75-.39-.23-.13-.42-.23-.54-.3l-1.27-.71-.08-.05c-.24-.13-.39-.32-.46-.57-.07-.25-.03-.49.11-.72ZM278.8,81.81l-2.26.55-.58-2.16,2.25-.54.59,2.15Z"/>
      <path class="cls-3" d="M285.87,82.24c-.27-.17-.56-.41-.88-.71-.32-.3-.62-.62-.92-.95-.29-.33-.54-.66-.76-.98-.21-.32-.34-.58-.4-.79l1.77-1.04c.11.26.27.54.48.85.2.31.44.61.7.91.27.3.56.59.87.86.32.27.65.5.99.68s.69.31,1.05.39c.35.08.71.07,1.05-.03.27-.06.51-.36.73-.88.13-.3.22-.63.29-1.01.07-.37.11-.76.12-1.17.01-.41,0-.82-.04-1.24-.04-.42-.1-.83-.19-1.22-.09-.39-.2-.77-.33-1.12-.13-.35-.29-.66-.46-.93l1.72-1c.22.36.42.76.59,1.2.17.44.31.91.42,1.4.11.49.19.99.23,1.51.05.52.06,1.03.04,1.53-.02.5-.07.99-.16,1.45-.08.47-.21.89-.37,1.29-.15.34-.31.63-.48.86-.17.24-.35.43-.53.59-.18.15-.36.28-.54.36-.18.09-.35.15-.51.19-.94.25-1.94.17-2.99-.24-.25-.08-.5-.19-.75-.32-.25-.13-.5-.28-.77-.45ZM287.74,82.42c.22.15.4.34.54.58.14.24.23.5.26.78.03.27.01.53-.06.78-.06.25-.17.48-.32.69-.14.2-.33.38-.56.53s-.48.26-.75.33c-.3.08-.59.1-.87.06-.28-.04-.54-.13-.76-.28-.23-.15-.41-.34-.55-.58-.14-.24-.22-.5-.25-.79-.03-.27,0-.53.06-.78.07-.26.17-.48.32-.68.15-.21.34-.38.56-.53.23-.15.48-.26.75-.33.29-.07.58-.09.86-.05.28.04.54.13.77.28ZM285.83,85.05c.11.07.23.11.37.12.14,0,.27,0,.41-.05s.26-.1.38-.18c.12-.08.21-.17.29-.27.07-.1.13-.22.16-.35.03-.13.05-.26.04-.4-.01-.13-.04-.26-.1-.38s-.14-.21-.24-.28c-.11-.07-.23-.11-.37-.12-.13,0-.27,0-.41.05-.14.04-.26.1-.38.17-.12.07-.21.16-.28.26-.07.1-.13.22-.16.35-.04.13-.05.27-.03.4.01.14.04.26.1.38s.14.21.25.28Z"/>
      <path class="cls-3" d="M300.36,93.01c-.24-.21-.5-.48-.78-.81s-.54-.69-.78-1.06c-.24-.37-.45-.72-.62-1.06-.17-.34-.26-.62-.29-.84l1.89-.82c.08.27.2.57.36.9.16.33.35.66.58.99.22.33.47.65.75.95.28.31.58.57.89.79.32.22.64.4.99.51.34.12.69.15,1.05.1.28-.03.56-.3.84-.79.16-.28.31-.6.42-.96.12-.36.21-.74.28-1.14.07-.4.11-.81.13-1.24.02-.42.01-.83-.02-1.24-.03-.4-.09-.78-.17-1.15-.08-.36-.19-.69-.33-.98l1.84-.78c.18.38.32.8.43,1.26.11.46.18.94.22,1.44.04.5.05,1.01.03,1.53-.02.52-.08,1.03-.17,1.52-.09.5-.2.97-.35,1.42-.14.45-.32.86-.54,1.23-.19.32-.39.59-.59.8-.2.21-.41.39-.61.52-.2.13-.39.23-.58.29-.19.06-.37.11-.53.13-.96.14-1.94-.06-2.94-.59-.24-.12-.47-.25-.7-.41-.23-.16-.46-.34-.7-.54Z"/>
      <path class="cls-3" d="M306.19,105.17c.84.61,1.67,1.1,2.49,1.46.82.36,1.6.6,2.34.73.74.13,1.42.15,2.04.07.62-.08,1.14-.26,1.57-.52-.19-.2-.41-.44-.67-.72-.25-.28-.49-.56-.71-.85-.89-1.11-1.24-2.18-1.05-3.22.09-.47.3-.89.63-1.27.33-.38.73-.71,1.18-.99.46-.28.94-.5,1.46-.66.52-.16,1.01-.26,1.47-.28.54-.02,1.03.04,1.46.19.43.15.79.38,1.08.69.63.69.89,1.59.76,2.7-.05.4-.15.81-.3,1.22-.15.41-.34.82-.58,1.22-.24.4-.51.79-.83,1.17s-.66.73-1.04,1.06l.5.54c.09.1.16.21.2.33.04.12.06.24.05.36,0,.12-.04.24-.1.35-.06.11-.14.22-.25.31-.1.08-.21.14-.34.18-.12.03-.25.05-.38.04-.13,0-.25-.04-.37-.1-.12-.05-.22-.13-.32-.23l-.6-.65c-.89.48-1.81.78-2.77.9-.96.12-1.91.1-2.86-.06-.95-.16-1.87-.45-2.77-.88-.9-.42-1.73-.93-2.49-1.54l1.17-1.55ZM317.99,101.05c-.13-.14-.31-.23-.54-.26-.23-.03-.48-.02-.75.03-.27.05-.55.13-.83.25-.28.12-.55.25-.79.4-.24.15-.44.32-.61.5-.16.18-.26.35-.29.52-.04.16-.03.32,0,.48.04.16.09.32.17.48.07.15.15.29.25.43.09.14.17.25.25.34.26.32.51.61.75.86.24.25.45.46.64.64.31-.28.58-.57.82-.87.24-.3.44-.6.61-.89.17-.3.3-.58.39-.87.09-.28.16-.55.2-.79,0-.09.01-.19.01-.3,0-.11,0-.22-.02-.33-.02-.11-.05-.22-.09-.32-.04-.1-.1-.2-.18-.28Z"/>
      <path class="cls-3" d="M316.34,107.29c.23-.16.47-.23.74-.19.27.03.49.15.66.36l.64.78c.21.28.42.53.64.77.22.24.44.44.67.6.24.16.48.27.74.34.26.06.55.06.85,0,.31-.07.66-.28,1.05-.63.39-.36.8-.82,1.24-1.4.12-.18.26-.38.4-.6.14-.22.27-.43.38-.63.14-.23.27-.46.4-.69l1.81.83s-.04.07-.11.19c-.06.12-.16.29-.27.49-.12.2-.26.43-.42.68-.16.26-.34.52-.54.79-1.15,1.6-2.3,2.53-3.45,2.81-1.15.27-2.24.05-3.26-.67-.31-.21-.58-.44-.81-.69-.23-.25-.44-.49-.62-.71l-.85-1.04-.06-.07c-.17-.21-.24-.44-.21-.69.03-.26.16-.46.38-.63ZM329.27,105.07l-2.32-.28.3-2.21,2.32.28-.3,2.21Z"/>
      <path class="cls-3" d="M324.05,118.7c-.43-.58-.73-1.12-.89-1.62-.16-.51-.2-1-.11-1.48.05-.29.15-.56.29-.79.14-.23.3-.44.47-.62.17-.18.35-.34.53-.46.18-.13.34-.24.47-.33l.16-.1s.11-.07.31-.19.47-.3.8-.52c.34-.22.72-.48,1.16-.77.44-.29.9-.6,1.38-.93.48-.32.97-.65,1.47-1.01.51-.35.99-.7,1.46-1.04.47-.34.89-.67,1.27-.98.38-.31.68-.57.9-.79l1.44,1.34c-.25.24-.56.51-.94.82-.38.31-.8.64-1.27.98-.46.35-.95.7-1.47,1.06-.51.36-1.02.71-1.52,1.04-.48.33-.95.65-1.39.95-.45.3-.84.56-1.19.8-.35.23-.64.42-.86.57-.23.15-.36.24-.41.27l-.15.1c-.25.16-.46.31-.63.45-.17.14-.27.32-.3.52-.08.41.12.94.6,1.6l.05.07c.08.1.13.22.16.34.03.12.03.25,0,.37-.02.12-.07.23-.14.34-.07.11-.16.2-.27.27-.23.15-.48.21-.75.16-.27-.05-.48-.18-.64-.39Z"/>
      <path class="cls-3" d="M324.14,117.08c.24-.14.49-.19.75-.13.26.06.47.2.62.42l.57.83c.18.29.37.57.56.82.19.26.4.47.62.65.22.18.45.31.71.4.25.08.54.11.85.07.32-.04.69-.22,1.11-.54s.87-.75,1.36-1.29c.14-.17.29-.36.45-.57.16-.21.31-.4.44-.59.16-.22.31-.44.46-.66l1.73.98s-.05.06-.12.18c-.08.12-.18.27-.32.46-.14.19-.3.4-.48.65-.19.24-.39.49-.61.74-1.29,1.49-2.53,2.33-3.7,2.51-1.18.18-2.24-.14-3.19-.94-.29-.24-.53-.49-.74-.75-.21-.27-.39-.52-.56-.77l-.75-1.11-.05-.07c-.15-.22-.2-.46-.14-.71.05-.25.2-.45.44-.59ZM337.23,115.95l-2.29-.47.5-2.18,2.28.47-.5,2.18Z"/>
      <path class="cls-3" d="M328.61,125.58c1.38-.65,2.66-1.3,3.85-1.93,1.19-.63,2.28-1.24,3.27-1.82.99-.58,1.87-1.11,2.64-1.6.77-.49,1.42-.92,1.95-1.28.53-.36.94-.64,1.22-.85.28-.21.43-.31.44-.32l1.27,1.48s-.36.27-.98.71c-.31.22-.65.46-1.02.7-.37.24-.77.5-1.19.77-.43.27-.84.53-1.22.77s-.76.46-1.13.68c-1.05.63-2.26,1.32-3.63,2.06-1.37.75-2.88,1.51-4.54,2.3l-.91-1.69Z"/>
      <path class="cls-3" d="M325.97,130.92c.66.78,1.35,1.44,2.06,1.98.71.53,1.41.94,2.09,1.23.69.29,1.34.47,1.96.53.62.06,1.18,0,1.66-.15-.14-.24-.29-.52-.47-.85-.18-.33-.33-.66-.48-.98-.59-1.28-.66-2.4-.22-3.37.21-.43.52-.8.94-1.09.42-.3.88-.53,1.4-.7s1.04-.27,1.59-.32c.54-.04,1.04-.03,1.5.06.54.1.99.27,1.37.52.38.25.67.55.87.92.44.81.46,1.74.06,2.79-.15.38-.35.75-.6,1.12-.25.37-.54.72-.87,1.05-.33.34-.69.65-1.09.95-.4.3-.82.56-1.27.8l.35.64c.06.12.1.24.11.37,0,.12,0,.24-.04.36s-.1.23-.18.32c-.08.1-.19.18-.31.24-.12.06-.25.09-.38.1-.13,0-.26,0-.38-.05-.12-.04-.23-.1-.34-.18-.1-.08-.18-.18-.25-.3l-.42-.77c-.98.26-1.95.35-2.91.25-.96-.09-1.88-.33-2.76-.7-.88-.37-1.71-.86-2.47-1.48-.77-.61-1.45-1.3-2.03-2.05l1.52-1.25ZM338.46,129.56c-.09-.16-.24-.29-.46-.37-.22-.08-.46-.13-.74-.14s-.56,0-.87.05c-.3.05-.59.12-.86.21-.27.09-.51.21-.71.34-.2.14-.34.28-.41.44-.07.14-.11.3-.12.47,0,.17.01.33.04.5.03.16.08.32.13.47.05.15.11.28.16.38.17.37.34.7.51,1,.17.29.32.55.46.76.37-.2.71-.42,1.01-.66.31-.24.58-.48.82-.73.24-.25.44-.5.6-.75.16-.25.29-.49.39-.72.03-.09.06-.18.09-.29.03-.1.05-.21.06-.32.01-.11.01-.22,0-.33-.02-.11-.05-.21-.1-.31Z"/>
      <path class="cls-3" d="M335.42,135.03c.26-.1.52-.1.77,0s.43.28.54.53l.76,1.76c.34.79.77,1.55,1.27,2.27.5.72,1.05,1.42,1.64,2.08.59.66,1.22,1.29,1.87,1.89.65.6,1.31,1.16,1.95,1.7-.03-.46-.03-.91-.02-1.36.01-.44.03-.88.05-1.31.02-.33.03-.66.05-.97.02-.31.02-.61.01-.89,0-.28-.03-.55-.06-.79-.04-.25-.1-.46-.17-.64-.11-.24-.26-.45-.47-.63-.21-.18-.44-.32-.69-.44-.25-.12-.51-.22-.77-.29s-.5-.12-.72-.16c-.22-.04-.4-.06-.54-.08-.14-.01-.22-.02-.22-.02l.06-1.9s.08,0,.2.01c.12,0,.27.02.46.05.19.02.41.06.65.11.24.05.5.12.77.2.78.23,1.44.55,1.96.96.52.41.91.9,1.15,1.47.12.29.22.59.28.91.06.32.1.66.11,1.01.02.35.02.71,0,1.08s-.03.74-.05,1.13c-.02.42-.04.84-.06,1.26-.01.43,0,.84.01,1.26.02.41.07.82.15,1.21.07.39.19.77.35,1.14l-1.63,1.03c-.36-.34-.74-.68-1.13-1.01-.39-.33-.79-.67-1.21-1.02-.63-.52-1.28-1.08-1.94-1.7-.67-.62-1.32-1.28-1.95-1.99-.64-.71-1.23-1.47-1.79-2.28-.56-.81-1.03-1.66-1.41-2.56l-.73-1.69-.03-.07c-.05-.12-.08-.25-.08-.37,0-.13.03-.24.07-.36.05-.11.12-.22.21-.31.09-.09.2-.16.33-.21ZM350.38,136.63c-.01-.08-.03-.16-.05-.26-.02-.08-.04-.18-.07-.28-.03-.1-.06-.21-.11-.32-.04-.09-.09-.18-.14-.26-.06-.09-.13-.17-.21-.25h.02c-.17-.16-.37-.26-.6-.31-.23-.05-.44-.03-.65.05-.11.04-.21.11-.31.2h0c-.18.16-.3.37-.36.64-.06.27-.03.53.08.78.03.06.06.13.09.18.03.06.08.11.14.17.12.13.25.26.39.38.14.12.28.22.41.31.15.1.29.19.44.28l-.5.81c-.28-.16-.6-.37-.96-.64s-.79-.6-1.31-.99l-2.06-1.56.63-.74,1.63,1.22c0-.28.06-.56.18-.82.12-.26.28-.49.48-.69.18-.17.39-.3.64-.4.19-.07.39-.12.6-.14.21-.02.42,0,.62.04.2.04.4.11.59.21.19.1.36.22.51.37.24.23.43.5.56.8.06.14.11.27.14.4.03.13.06.25.08.36.02.12.04.25.06.37l-.97.09Z"/>
      <path class="cls-3" d="M344.39,161.73c-.08-.3-.13-.66-.16-1.09-.03-.43-.04-.86-.03-1.29.01-.43.05-.84.11-1.21.06-.37.15-.65.25-.84l2.05.32c-.1.27-.17.58-.23.94-.06.36-.1.73-.11,1.13-.01.39,0,.79.06,1.19.05.4.14.78.27,1.13.13.35.3.67.51.95.21.28.49.49.81.64.25.12.63.05,1.16-.21.3-.15.61-.34.92-.57.31-.24.61-.5.9-.8.3-.3.57-.62.84-.96.26-.34.5-.69.71-1.04s.39-.7.53-1.04.25-.67.3-.98l1.99.32c-.08.41-.21.83-.39,1.27-.18.44-.4.88-.66,1.32-.26.44-.55.86-.88,1.28-.32.42-.67.81-1.04,1.17-.37.37-.74.7-1.13,1-.39.3-.78.54-1.17.74-.35.16-.67.28-.96.35-.3.07-.56.11-.81.11-.24,0-.46-.02-.66-.06-.19-.05-.37-.1-.52-.17-.88-.4-1.58-1.08-2.09-2.05-.13-.22-.24-.46-.34-.71-.1-.25-.18-.53-.26-.82Z"/>
    </g>
    <g>
      <path class="cls-3" d="M59.42,209.5v2.14s-7.01,3.91-7.01,3.91l7.04,3.87v2.15s-8.74-5.09-8.74-5.09l-5.89.02v-1.84s5.89-.02,5.89-.02l8.71-5.14Z"/>
      <path class="cls-3" d="M55.06,228.22c-.84.94-2.15,1.47-3.92,1.59-1.71.12-3.16-.17-4.34-.87s-1.83-1.86-1.96-3.48c-.11-1.35.3-2.46,1.23-3.33.93-.86,2.22-1.35,3.89-1.47,1.79-.12,3.24.2,4.37.97,1.12.77,1.74,1.86,1.86,3.27.1,1.27-.27,2.37-1.11,3.31ZM47.91,227.68c.93.35,1.94.48,3.04.41.99-.07,1.79-.27,2.39-.61.94-.53,1.37-1.37,1.28-2.51-.08-1.01-.55-1.72-1.43-2.12-.87-.4-1.9-.56-3.07-.48-1.13.08-2.06.37-2.77.88-.72.51-1.04,1.27-.96,2.27.09,1.1.6,1.82,1.53,2.16Z"/>
      <path class="cls-3" d="M56.72,232.84l-7,.98c-.54.07-.97.21-1.28.42-.58.38-.81.97-.68,1.76.19,1.14.86,1.84,2.03,2.1.63.14,1.46.14,2.49,0l5.18-.72.27,1.64-10.54,1.47-.25-1.55,1.56-.2c-.43-.16-.82-.37-1.14-.65-.65-.55-1.05-1.27-1.2-2.16-.23-1.39.12-2.41,1.04-3.05.49-.35,1.19-.59,2.09-.71l7.16-1,.27,1.68Z"/>
      <path class="cls-3" d="M61.26,241.15l.37,1.64-2.91.57.35,1.54-1.43.28-.35-1.54-6.81,1.32c-.36.07-.58.23-.65.49-.04.14-.03.36.04.65.02.08.04.16.06.25.02.09.05.19.1.31l-1.38.27c-.1-.18-.19-.36-.26-.56-.07-.2-.13-.41-.19-.65-.17-.76-.08-1.31.28-1.66.36-.35.87-.59,1.54-.72l6.91-1.34-.3-1.31,1.43-.28.3,1.31,2.91-.57Z"/>
      <path class="cls-3" d="M63.25,245.37l.47,1.6-5.26,1.32c.63.25,1.1.5,1.39.75.52.43.89,1.02,1.11,1.79.4,1.38.16,2.45-.74,3.21-.49.41-1.24.74-2.26.99l-6.6,1.65-.48-1.65,6.49-1.63c.76-.19,1.28-.42,1.58-.68.48-.43.6-1.05.37-1.85-.19-.66-.62-1.21-1.27-1.62-.65-.42-1.66-.45-3.03-.11l-5.46,1.37-.47-1.6,14.16-3.55Z"/>
      <path class="cls-3" d="M67.89,259.97l2.25,5.07c.77,1.72.7,3.31-.2,4.76-.81,1.3-2.15,2.3-4.01,3.01-1.44.55-2.85.79-4.23.73-2.44-.1-4.14-1.22-5.09-3.37l-2.24-5.05,13.52-5.15ZM58.03,269.25c.25.57.53,1.02.82,1.34.53.57,1.23.93,2.1,1.09.69.13,1.5.1,2.42-.08.55-.11,1.04-.25,1.48-.41,1.67-.64,2.84-1.44,3.49-2.41.65-.97.67-2.14.07-3.51l-1.34-3.01-10.39,3.96,1.34,3.03Z"/>
      <path class="cls-3" d="M69.79,273.43l.8,1.52-9.53,4.32-.8-1.52,9.53-4.32ZM73.4,271.8l.8,1.52-1.82.83-.8-1.52,1.83-.83Z"/>
      <path class="cls-3" d="M74.25,282.06c-.04.38-.17.81-.38,1.3l1.17-.61.8,1.34-8.47,4.37c-1.18.61-2.21.93-3.09.96-1.63.05-2.94-.76-3.95-2.43-.56-.93-.8-1.83-.74-2.69.07-.87.56-1.58,1.47-2.15l.88,1.47c-.37.29-.61.59-.71.92-.15.51-.01,1.11.41,1.81.67,1.11,1.53,1.62,2.58,1.53.62-.05,1.57-.42,2.84-1.09-.65-.04-1.21-.21-1.69-.5-.48-.29-.92-.77-1.32-1.44-.56-.93-.69-1.94-.4-3.01.29-1.07,1.27-2.03,2.92-2.88,1.56-.8,2.99-1.08,4.29-.82,1.3.26,2.25.88,2.85,1.88.41.68.58,1.36.53,2.05ZM72.68,283.1c.29-.73.23-1.43-.18-2.11-.61-1.02-1.55-1.45-2.81-1.3-.67.09-1.45.36-2.35.82-1.05.54-1.73,1.15-2.04,1.83-.31.68-.27,1.35.13,2.01.62,1.04,1.57,1.51,2.84,1.41.71-.06,1.46-.29,2.22-.68,1.15-.59,1.88-1.26,2.17-1.98Z"/>
      <path class="cls-3" d="M77.25,286.03l.97,1.43-8.99,5.23-.97-1.43,8.99-5.23ZM80.65,284.06l.97,1.43-1.72,1-.97-1.43,1.72-1Z"/>
      <path class="cls-3" d="M82.33,288.17l1.01,1.39-2.47,1.55.95,1.31-1.21.76-.95-1.31-5.76,3.61c-.31.19-.44.42-.41.68.02.15.12.34.3.59.05.07.1.14.16.21.06.07.13.16.22.25l-1.17.73c-.16-.13-.32-.27-.47-.43-.15-.16-.29-.34-.44-.53-.47-.64-.61-1.19-.42-1.64.19-.45.56-.85,1.13-1.21l5.84-3.66-.81-1.11,1.21-.76.81,1.11,2.47-1.55Z"/>
      <path class="cls-3" d="M82.85,300.21c.29.27.59.38.91.32.17-.03.38-.13.62-.3.48-.34.71-.75.66-1.23s-.31-1.01-.8-1.61c-.57-.69-1.17-1.04-1.81-1.04-.36,0-.77.12-1.25.38l-1.02-1.23c1.07-.71,2.05-.91,2.96-.6.91.31,1.69.87,2.34,1.67.76.92,1.19,1.81,1.28,2.65.09.84-.26,1.54-1.07,2.11l-4.88,3.45c-.15.1-.24.22-.29.34-.04.12,0,.27.16.45.05.06.11.12.18.19.07.07.15.14.23.21l-1.05.74c-.23-.16-.4-.29-.51-.39-.11-.1-.23-.24-.39-.42-.37-.46-.47-.91-.29-1.36.09-.24.29-.5.6-.78-.6,0-1.25-.15-1.94-.46-.69-.31-1.29-.76-1.79-1.37-.6-.73-.85-1.49-.75-2.29.1-.8.51-1.45,1.22-1.96.79-.56,1.58-.76,2.39-.61.81.15,1.56.56,2.27,1.22l2.02,1.9ZM76.7,300.16c0,.45.15.86.46,1.24.38.46.87.83,1.46,1.1.99.46,1.92.38,2.8-.24l1.15-.81c-.25-.08-.51-.23-.79-.43-.28-.2-.54-.41-.77-.64l-.77-.72c-.46-.43-.87-.71-1.21-.85-.58-.23-1.14-.15-1.69.23-.41.29-.62.66-.63,1.1Z"/>
      <path class="cls-3" d="M92.66,299.44l1.16,1.26-11.15,8.77-1.16-1.26,11.15-8.77Z"/>
      <path class="cls-3" d="M106.47,312.84l-1.22,1.15-3.52-3.19-9.01,8.52-1.44-1.3,9.01-8.52-3.52-3.19,1.22-1.15,8.48,7.69Z"/>
      <path class="cls-3" d="M104.27,315.8l1.28,1.03-1.21,1.29c.34-.16.88-.26,1.63-.29.75-.03,1.39.17,1.93.6.02.02.06.06.12.11.06.05.15.14.28.28l-1.24,1.32c-.07-.08-.13-.15-.2-.21s-.14-.12-.22-.19c-.68-.55-1.39-.77-2.14-.66-.75.11-1.37.43-1.87.96l-4.02,4.28-1.35-1.09,7-7.45Z"/>
      <path class="cls-3" d="M111.16,326.07c.36.19.68.22.97.09.16-.07.33-.22.51-.44.37-.45.47-.9.29-1.34s-.59-.9-1.23-1.36c-.74-.53-1.42-.72-2.04-.57-.34.08-.71.3-1.1.67l-1.33-.94c.83-.95,1.72-1.38,2.69-1.29.96.09,1.87.43,2.73,1.04.99.71,1.65,1.46,1.99,2.25.32.79.18,1.55-.44,2.29l-3.74,4.51c-.11.14-.17.27-.18.39,0,.13.08.26.28.4.06.04.14.09.22.14.08.05.18.1.28.15l-.81.97c-.27-.1-.47-.18-.6-.25-.13-.07-.29-.17-.49-.31-.49-.35-.71-.76-.66-1.24.02-.25.14-.55.35-.9-.58.15-1.25.15-2,.03s-1.46-.42-2.11-.89c-.78-.56-1.24-1.23-1.37-2.03-.13-.79.08-1.52.63-2.19.6-.73,1.32-1.11,2.14-1.17.82-.05,1.67.16,2.54.63l2.48,1.35ZM105.21,327.5c.12.43.38.79.79,1.09.5.35,1.07.59,1.72.71,1.08.21,1.96-.09,2.63-.9l.88-1.06c-.26-.02-.55-.09-.88-.22-.33-.13-.64-.27-.93-.43l-.95-.51c-.57-.3-1.04-.48-1.41-.53-.63-.08-1.15.13-1.57.63-.31.38-.41.79-.3,1.22Z"/>
      <path class="cls-3" d="M118.1,325.98l1.5.96-6.01,8.1-1.5-.96,6.01-8.1ZM120.38,322.92l1.5.96-1.15,1.55-1.5-.96,1.15-1.55Z"/>
      <path class="cls-3" d="M121.72,328.26l1.45.82-.79,1.19c.76-.25,1.44-.34,2.07-.29.62.06,1.23.25,1.82.59,1.29.73,1.89,1.64,1.79,2.73-.05.6-.36,1.32-.92,2.17l-3.57,5.4-1.55-.88,3.51-5.31c.34-.51.53-.97.57-1.38.07-.68-.24-1.22-.96-1.62-.36-.21-.68-.34-.96-.4-.5-.12-1.02-.1-1.56.07-.44.13-.79.33-1.07.58-.27.25-.59.65-.95,1.21l-2.91,4.41-1.53-.87,5.56-8.42Z"/>
      <path class="cls-3" d="M131.29,333.57l1.6.8-5.05,8.64-1.6-.8,5.05-8.64ZM133.2,330.3l1.6.8-.97,1.65-1.6-.8.97-1.65Z"/>
      <path class="cls-3" d="M135.13,335.46l1.54.68-.65,1.27c.72-.32,1.4-.48,2.02-.49.63,0,1.25.13,1.88.4,1.37.6,2.07,1.45,2.09,2.54.01.6-.21,1.35-.67,2.25l-2.93,5.72-1.65-.72,2.88-5.62c.28-.54.42-1.02.41-1.43,0-.68-.38-1.19-1.14-1.52-.38-.17-.72-.27-1-.31-.51-.07-1.02,0-1.54.22-.42.18-.75.4-.99.68-.24.28-.51.71-.81,1.29l-2.39,4.67-1.62-.71,4.57-8.92Z"/>
      <path class="cls-3" d="M150.6,342.13c.23.31.43.72.6,1.22l.48-1.16,1.54.55-3.47,8.38c-.48,1.17-1.05,2.03-1.7,2.57-1.21,1-2.78,1.16-4.71.48-1.07-.38-1.88-.92-2.43-1.63-.55-.7-.67-1.55-.36-2.52l1.7.6c-.09.44-.06.82.09,1.13.24.48.76.86,1.57,1.15,1.28.46,2.3.33,3.04-.36.44-.41.91-1.25,1.42-2.53-.53.35-1.08.56-1.64.62s-1.24-.04-2.01-.32c-1.08-.38-1.88-1.07-2.39-2.07-.52-1-.44-2.31.24-3.95.64-1.54,1.55-2.6,2.72-3.18s2.34-.66,3.49-.25c.78.28,1.39.7,1.82,1.26ZM150.12,343.86c-.28-.73-.81-1.24-1.6-1.52-1.18-.42-2.19-.19-3.05.67-.45.46-.86,1.14-1.23,2.02-.43,1.04-.53,1.91-.3,2.61.23.7.73,1.19,1.5,1.47,1.2.43,2.26.22,3.16-.61.51-.47.92-1.09,1.23-1.84.47-1.14.57-2.08.29-2.81Z"/>
      <path class="cls-3" d="M165.35,349.98c.41.05.72-.04.93-.27.12-.13.21-.32.29-.59.15-.55.05-1-.3-1.34s-.92-.61-1.7-.8c-.91-.22-1.61-.14-2.12.22-.28.2-.53.54-.72,1.02l-1.62-.39c.36-1.17,1-1.89,1.92-2.16.92-.27,1.91-.28,2.95-.03,1.22.29,2.14.74,2.78,1.35.63.61.82,1.36.57,2.27l-1.53,5.51c-.04.17-.04.31,0,.43s.19.21.43.26c.08.02.16.03.26.05.1.01.21.03.32.03l-.33,1.19c-.29,0-.51,0-.65-.01-.15-.02-.34-.05-.58-.11-.6-.14-.98-.44-1.14-.9-.08-.24-.1-.56-.05-.96-.47.34-1.08.6-1.83.75-.75.16-1.52.14-2.32-.05-.96-.23-1.66-.68-2.12-1.37s-.57-1.43-.35-2.24c.25-.89.74-1.5,1.47-1.85.73-.35,1.6-.46,2.6-.34l2.86.34ZM160.49,353.46c.29.35.69.59,1.19.71.61.15,1.24.16,1.88.03,1.08-.21,1.76-.8,2.04-1.79l.36-1.3c-.25.07-.55.11-.91.12-.36,0-.7-.01-1.03-.06l-1.09-.12c-.65-.07-1.16-.06-1.52.03-.61.15-1,.54-1.17,1.15-.13.46-.05.87.25,1.23Z"/>
      <path class="cls-3" d="M171.6,347.37l1.68.28-.26,1.38c.6-.49,1.21-.81,1.81-.97.6-.16,1.24-.18,1.92-.07,1.49.24,2.4.89,2.74,1.94.19.57.19,1.35,0,2.33l-1.2,6.23-1.79-.29,1.18-6.13c.11-.59.11-1.09,0-1.48-.2-.66-.71-1.05-1.53-1.19-.42-.07-.77-.09-1.05-.05-.51.05-.98.25-1.43.59-.36.27-.61.57-.76.9s-.29.81-.41,1.44l-.98,5.09-1.76-.29,1.86-9.72Z"/>
      <path class="cls-3" d="M188.37,349.93c.3.21.62.57.98,1.06l.54-4.96,1.71.16-1.47,13.52-1.6-.15.15-1.37c-.48.57-1.02.96-1.62,1.17s-1.26.29-1.99.22c-1.18-.11-2.16-.66-2.92-1.67-.76-1-1.06-2.27-.9-3.79.16-1.43.68-2.63,1.59-3.61s2.09-1.39,3.55-1.26c.81.07,1.48.3,1.99.67ZM183.57,356.92c.41.75,1.14,1.18,2.2,1.28.83.08,1.54-.19,2.14-.8.6-.61.97-1.53,1.1-2.75.13-1.24-.04-2.18-.52-2.83s-1.13-1.01-1.93-1.08c-.9-.08-1.66.17-2.29.75-.63.58-1.01,1.49-1.14,2.73-.11,1.05.03,1.95.44,2.71Z"/>
      <path class="cls-3" d="M199.33,346.6l5.92-.13c2.01-.04,3.59.58,4.73,1.88,1.02,1.17,1.55,2.69,1.6,4.55.03,1.44-.22,2.74-.78,3.92-.98,2.07-2.72,3.14-5.23,3.19l-5.9.13-.33-13.54ZM205.15,358.45c.67-.01,1.22-.09,1.65-.23.76-.26,1.38-.73,1.86-1.42.38-.55.64-1.26.79-2.12.09-.51.12-.99.11-1.42-.04-1.68-.43-2.97-1.18-3.88s-1.92-1.35-3.51-1.32l-3.51.07.26,10.39,3.53-.08Z"/>
      <path class="cls-3" d="M220.15,349.4c.75.25,1.33.62,1.76,1.1.42.46.72,1.01.92,1.66.16.44.3,1.16.42,2.15l-7.77.79c.15.99.5,1.77,1.05,2.32.55.55,1.32.78,2.31.68.93-.1,1.64-.46,2.12-1.08.28-.36.46-.77.54-1.21l1.75-.18c0,.37-.11.78-.32,1.25-.21.47-.46.86-.75,1.18-.48.54-1.11.94-1.89,1.19-.42.14-.9.24-1.44.3-1.32.13-2.49-.2-3.51-.99-1.02-.79-1.63-1.99-1.82-3.59-.19-1.58.12-2.9.93-3.98.81-1.08,1.95-1.69,3.45-1.84.75-.08,1.5.01,2.24.27ZM221.26,353.19c-.16-.71-.39-1.26-.71-1.66-.58-.74-1.44-1.06-2.58-.94-.82.08-1.47.43-1.96,1.03s-.7,1.33-.63,2.17l5.89-.6Z"/>
      <path class="cls-3" d="M225.4,348.43l4.38,7.43,1.35-8.4,1.93-.33-2.02,10.38-1.88.32-5.8-9.05,2.05-.35Z"/>
      <path class="cls-3" d="M240.79,345.56c.78.15,1.42.44,1.92.86.48.4.87.9,1.17,1.52.23.42.47,1.1.75,2.07l-7.56,1.82c.3.96.77,1.68,1.4,2.15.63.47,1.43.59,2.39.36.91-.22,1.55-.67,1.93-1.35.22-.4.33-.82.34-1.27l1.7-.41c.05.36.01.79-.12,1.28-.13.49-.32.91-.55,1.26-.39.6-.95,1.08-1.68,1.44-.39.2-.85.36-1.38.48-1.28.31-2.49.14-3.63-.51-1.13-.65-1.92-1.75-2.36-3.31-.43-1.53-.33-2.89.3-4.06.63-1.17,1.67-1.94,3.12-2.29.73-.18,1.49-.19,2.26-.04ZM242.48,349.16c-.27-.68-.59-1.19-.96-1.55-.69-.66-1.6-.85-2.71-.59-.8.19-1.39.62-1.78,1.28-.39.66-.49,1.41-.29,2.24l5.73-1.38Z"/>
      <path class="cls-3" d="M243.91,340.59l1.71-.5,4.44,12.9-1.71.5-4.44-12.9Z"/>
      <path class="cls-3" d="M256.86,341.28c1.21.48,2.13,1.49,2.76,3.03.61,1.49.72,2.86.34,4.1s-1.4,2.16-3.05,2.73c-1.37.48-2.64.43-3.79-.14-1.16-.58-2.03-1.59-2.62-3.04-.63-1.55-.71-2.94-.24-4.15.47-1.22,1.43-2.08,2.86-2.58,1.28-.45,2.53-.43,3.74.05ZM258.33,347.78c.09-.92-.05-1.86-.44-2.82-.35-.86-.79-1.51-1.31-1.95-.82-.69-1.8-.83-2.96-.42-1.02.36-1.62.98-1.79,1.87-.17.89-.05,1.84.37,2.87.4.98.97,1.72,1.7,2.21s1.61.56,2.62.21c1.11-.39,1.71-1.05,1.81-1.97Z"/>
      <path class="cls-3" d="M259.45,339.28l1.58-.68.6,1.19c.12-.55.31-1.02.59-1.4.38-.57.94-1.02,1.68-1.34,1.09-.47,2.22-.49,3.37-.04s2.1,1.39,2.83,2.83c.99,1.95,1.14,3.58.46,4.89-.43.83-1.11,1.45-2.03,1.85-.73.32-1.41.43-2.05.35-.37-.04-.84-.19-1.4-.44l2.31,4.57-1.62.71-6.3-12.46ZM269.09,343.65c.21-.81.01-1.79-.58-2.96-.36-.71-.78-1.28-1.26-1.69-.92-.8-1.94-.96-3.06-.48-1.12.49-1.63,1.34-1.52,2.56.06.65.31,1.41.74,2.27.35.69.76,1.23,1.22,1.62.89.74,1.89.87,3.01.38.76-.33,1.24-.9,1.44-1.7Z"/>
      <path class="cls-3" d="M275.48,331.98c.79-.04,1.49.09,2.09.37.58.27,1.09.67,1.55,1.19.33.35.76.95,1.29,1.82l-6.8,3.56c.56.86,1.21,1.44,1.95,1.75s1.54.24,2.42-.22c.82-.43,1.31-1.01,1.5-1.77.1-.43.09-.87-.02-1.31l1.53-.8c.15.34.23.76.24,1.27,0,.51-.05.96-.19,1.35-.21.68-.62,1.27-1.23,1.79-.32.28-.72.55-1.19.79-1.16.6-2.37.73-3.65.37-1.28-.36-2.35-1.24-3.2-2.64-.84-1.38-1.12-2.71-.84-4,.28-1.28,1.08-2.27,2.38-2.95.66-.34,1.38-.53,2.18-.57ZM278.11,335.05c-.45-.59-.9-1.02-1.36-1.27-.85-.47-1.78-.45-2.78.07-.72.38-1.17.93-1.37,1.66-.19.73-.08,1.48.34,2.23l5.16-2.7Z"/>
      <path class="cls-3" d="M279.18,329.76l1.45-.94.86,1.15c.05-.62.15-1.12.29-1.48.25-.62.69-1.13,1.3-1.52.7-.45,1.38-.65,2.04-.61.38.03.79.15,1.26.38,0-.64.14-1.21.43-1.71.28-.49.7-.92,1.25-1.27,1.18-.76,2.27-.88,3.29-.37.55.28,1.09.77,1.63,1.49l4.06,5.39-1.53.99-4.23-5.63c-.4-.54-.83-.82-1.27-.83-.44-.01-.88.11-1.29.38-.58.37-.94.87-1.09,1.5-.15.63.09,1.36.72,2.2l3.54,4.71-1.5.96-3.98-5.29c-.41-.55-.79-.9-1.12-1.06-.51-.23-1.07-.15-1.68.24-.56.36-.91.88-1.07,1.57-.16.69.16,1.56.95,2.6l3.23,4.3-1.47.95-6.09-8.1Z"/>
      <path class="cls-3" d="M297.97,316.99c.77-.17,1.48-.17,2.13,0,.62.17,1.21.47,1.76.9.4.28.95.81,1.64,1.57l-5.96,4.67c.72.74,1.48,1.21,2.27,1.38s1.56-.04,2.33-.63c.72-.56,1.09-1.22,1.11-1.99.01-.44-.08-.87-.29-1.28l1.34-1.05c.22.31.38.71.49,1.2.11.5.14.95.09,1.36-.07.7-.36,1.36-.85,1.97-.26.33-.6.66-1.01.99-1.01.79-2.18,1.13-3.51,1-1.33-.13-2.55-.81-3.68-2.04-1.11-1.21-1.65-2.47-1.63-3.78.02-1.31.6-2.41,1.74-3.31.58-.45,1.25-.77,2.02-.94ZM301.18,319.56c-.56-.51-1.09-.84-1.59-1.01-.93-.32-1.84-.13-2.71.56-.63.49-.96,1.12-1.01,1.87-.04.75.22,1.46.79,2.13l4.52-3.54Z"/>
      <path class="cls-3" d="M301.13,314.05l1.21-1.11,1.06,1c-.08-.74-.01-1.38.2-1.93.21-.54.56-1.04,1.05-1.49,1.08-.98,2.18-1.3,3.3-.95.61.19,1.3.64,2.05,1.35l4.8,4.51-1.3,1.18-4.71-4.43c-.46-.43-.89-.71-1.31-.85-.69-.23-1.34-.07-1.93.47-.3.28-.52.53-.65.77-.25.41-.35.89-.31,1.42.03.43.15.79.35,1.1.2.31.55.69,1.03,1.15l3.92,3.68-1.28,1.16-7.48-7.03Z"/>
      <path class="cls-3" d="M306.99,304.62l1.22-1.24,2.2,1.85,1.14-1.17,1.08.91-1.14,1.17,5.16,4.33c.27.23.55.3.81.2.15-.05.33-.19.55-.41.06-.06.12-.12.18-.19.06-.07.14-.15.22-.25l1.05.88c-.09.18-.21.35-.33.52-.13.17-.28.34-.46.52-.56.57-1.1.83-1.62.77-.52-.06-1.03-.3-1.53-.73l-5.23-4.39-.97.99-1.08-.91.97-.99-2.2-1.85Z"/>
      <path class="cls-3" d="M321.89,288.88c1.62-.02,3.24.51,4.88,1.61,1.77,1.19,2.91,2.59,3.43,4.21.61,1.9.21,3.75-1.2,5.56-1.32,1.69-2.96,2.61-4.92,2.77-1.84.08-3.64-.47-5.41-1.66-1.6-1.07-2.69-2.36-3.25-3.86-.72-1.93-.36-3.81,1.09-5.67,1.51-1.94,3.31-2.92,5.38-2.95ZM328.41,295.25c-.56-1.27-1.49-2.34-2.81-3.22-1.39-.93-2.78-1.35-4.15-1.24s-2.52.74-3.44,1.91c-.89,1.13-1.19,2.34-.91,3.62.28,1.28,1.24,2.47,2.88,3.57,1.31.88,2.66,1.31,4.04,1.3,1.38-.01,2.61-.71,3.69-2.08,1.03-1.31,1.26-2.6.7-3.86Z"/>
      <path class="cls-3" d="M325.17,287.22l.89-1.34,1.57.89c-.23-.28-.42-.77-.58-1.44-.15-.68-.04-1.3.33-1.86.02-.03.05-.07.1-.13.05-.06.13-.16.25-.3l1.61.92c-.07.07-.13.14-.19.21-.05.07-.11.14-.16.23-.47.71-.59,1.4-.35,2.06.24.66.68,1.18,1.33,1.55l5.22,2.97-.94,1.41-9.08-5.17Z"/>
      <path class="cls-3" d="M331.77,277.38c.36-.18.82-.31,1.38-.4l-1.18-.59.78-1.35,8.56,4.23c1.19.59,2.04,1.22,2.55,1.88.93,1.24.9,2.7-.07,4.39-.54.94-1.22,1.62-2.05,2.03-.82.41-1.74.42-2.75.02l.86-1.49c.46.14.87.16,1.22.06.54-.16,1.02-.59,1.43-1.3.65-1.12.64-2.07,0-2.84-.39-.46-1.23-.99-2.53-1.62.31.53.47,1.06.46,1.59,0,.53-.2,1.13-.59,1.81-.54.94-1.38,1.59-2.51,1.94-1.13.35-2.53.11-4.2-.71-1.58-.78-2.6-1.74-3.07-2.89-.47-1.15-.42-2.23.16-3.24.39-.68.92-1.19,1.58-1.52ZM333.57,278.04c-.82.17-1.42.59-1.82,1.28-.59,1.03-.48,1.99.35,2.88.44.48,1.11.94,2.01,1.38,1.06.52,1.98.72,2.76.6.78-.13,1.37-.52,1.75-1.2.61-1.05.52-2.05-.26-2.98-.44-.53-1.05-.98-1.82-1.36-1.16-.57-2.16-.78-2.97-.61Z"/>
      <path class="cls-3" d="M339.87,269.7c.12-.37.07-.67-.14-.89-.11-.13-.31-.25-.58-.36-.56-.23-1.05-.21-1.48.06-.43.26-.8.74-1.13,1.43-.38.79-.41,1.45-.11,1.97.17.29.49.56.97.83l-.67,1.42c-1.19-.52-1.85-1.22-2-2.11s0-1.79.44-2.71c.51-1.06,1.13-1.84,1.88-2.32.75-.48,1.59-.53,2.51-.16l5.62,2.29c.17.07.32.09.46.07.13-.02.25-.14.35-.35.03-.07.06-.15.09-.23.03-.09.06-.18.09-.29l1.21.49c-.04.27-.08.46-.12.6s-.11.3-.21.52c-.25.52-.63.82-1.14.9-.27.04-.61,0-1.03-.11.29.49.46,1.09.51,1.8.05.71-.09,1.41-.43,2.11-.4.84-1,1.41-1.8,1.72-.8.31-1.62.29-2.44-.04-.91-.37-1.48-.91-1.73-1.64-.25-.72-.23-1.54.06-2.43l.82-2.55ZM342.79,274.7c.43-.21.74-.53.95-.97.25-.54.36-1.11.34-1.72-.04-1.02-.57-1.74-1.58-2.15l-1.32-.54c.04.24.03.52-.02.85-.05.33-.13.64-.22.94l-.31.97c-.18.58-.26,1.05-.22,1.39.06.58.41,1,1.04,1.26.47.19.92.18,1.35-.03Z"/>
      <path class="cls-3" d="M338.1,263.53l.56-1.49,1.43.46c-.42-.63-.67-1.24-.74-1.81-.07-.58,0-1.17.24-1.77.5-1.32,1.34-2.05,2.51-2.19.64-.08,1.47.05,2.48.38l6.45,2.1-.6,1.59-6.34-2.06c-.61-.2-1.14-.28-1.58-.23-.73.07-1.24.48-1.51,1.21-.14.37-.22.69-.22.95-.02.47.11.94.4,1.4.23.37.51.65.84.84s.82.4,1.47.61l5.27,1.71-.59,1.57-10.06-3.27Z"/>
      <path class="cls-3" d="M337.84,252.72l.51-1.62,1.95.53-.51,1.62-1.95-.53ZM341.69,253.76l.51-1.62,10.19,2.75-.51,1.62-10.19-2.75Z"/>
      <path class="cls-3" d="M351.7,252.55l-5.97-7.34-1.36,5.27-1.56-.35,1.92-7.44,1.42.31,5.93,7.29,1.5-5.83,1.56.34-2.07,8.03-1.37-.3Z"/>
      <path class="cls-3" d="M350.2,236.28c.01-.38-.11-.66-.38-.83-.15-.1-.36-.17-.66-.21-.6-.09-1.08.04-1.42.4-.34.36-.58.9-.71,1.64-.15.85,0,1.5.43,1.93.24.24.63.43,1.16.58l-.27,1.53c-1.29-.23-2.12-.75-2.5-1.58-.38-.82-.48-1.73-.3-2.72.2-1.15.6-2.04,1.2-2.68.59-.64,1.39-.88,2.39-.73l6.06.92c.18.03.34.01.46-.04.12-.05.21-.19.25-.42.01-.07.02-.16.03-.25,0-.09,0-.19,0-.3l1.31.2c.03.27.05.47.04.6,0,.14-.03.32-.07.55-.1.56-.39.94-.86,1.13-.25.1-.59.14-1.02.13.41.41.74.95.98,1.62.24.68.29,1.39.15,2.14-.16.9-.59,1.6-1.28,2.08-.69.48-1.49.66-2.38.52-.98-.15-1.68-.54-2.12-1.19s-.64-1.44-.6-2.37l.11-2.66ZM354.38,240.45c.36-.3.57-.69.66-1.16.1-.58.06-1.16-.14-1.74-.32-.98-1.02-1.56-2.11-1.72l-1.42-.22c.1.22.17.5.21.82.03.33.05.65.03.96l-.04,1.01c-.02.61.04,1.07.17,1.4.22.55.66.88,1.34.98.51.08.94-.03,1.3-.34Z"/>
      <path class="cls-3" d="M342.84,230.27l.2-1.68,2.02.21-.2,1.68-2.02-.21ZM346.83,230.68l.2-1.68,10.55,1.08-.2,1.68-10.55-1.08Z"/>
      <path class="cls-3" d="M348.74,219.56c.95-.84,2.32-1.23,4.1-1.16,1.72.07,3.12.51,4.2,1.32,1.09.82,1.59,2.04,1.52,3.67-.06,1.36-.6,2.42-1.63,3.18-1.03.76-2.38,1.11-4.05,1.04-1.79-.07-3.2-.54-4.22-1.43-1.02-.88-1.5-2.03-1.44-3.45.06-1.27.56-2.33,1.52-3.17ZM355.78,220.86c-.88-.44-1.87-.69-2.97-.73-1-.04-1.81.08-2.45.35-1,.43-1.53,1.21-1.58,2.36-.04,1.01.34,1.77,1.15,2.26.82.49,1.81.76,2.99.81,1.13.04,2.09-.15,2.87-.58s1.19-1.15,1.23-2.15c.05-1.1-.37-1.87-1.24-2.31Z"/>
      <path class="cls-3" d="M344.8,215.99v-1.68s2.98,0,2.98,0v-1.58s1.47,0,1.47,0v1.58s6.96,0,6.96,0c.37,0,.62-.12.75-.35.07-.13.11-.34.11-.64,0-.08,0-.17,0-.26,0-.09,0-.2-.02-.32h1.41c.06.19.1.39.13.6.03.21.04.43.04.67,0,.77-.22,1.3-.65,1.57-.43.28-.98.41-1.66.41h-7.06s0,1.33,0,1.33h-1.46s0-1.34,0-1.34h-2.98Z"/>
      <path class="cls-3" d="M347.8,211.26l-.1-1.57,1.51-.08c-.65-.43-1.13-.91-1.43-1.41-.3-.51-.47-1.08-.51-1.72-.08-1.4.39-2.37,1.41-2.91.56-.3,1.38-.48,2.45-.53l6.83-.35.1,1.68-6.71.34c-.65.03-1.17.15-1.56.35-.64.33-.94.88-.9,1.65.02.39.09.71.19.96.17.45.49.83.95,1.15.37.26.74.42,1.12.48.38.06.92.08,1.61.04l5.58-.29.1,1.66-10.64.54Z"/>
    </g>
    <circle class="cls-1" cx="203.87" cy="203.87" r="181.81"/>
    <circle class="cls-2" cx="203.87" cy="203.87" r="199.87"/>
  </g>
</svg>