<svg width="48" height="48" viewBox="0 0 48 48" fill="none" xmlns="http://www.w3.org/2000/svg">
<path fill-rule="evenodd" clip-rule="evenodd" d="M13.5396 6.16389C20.4917 5.39329 27.5076 5.39329 34.4596 6.16389C38.2576 6.58789 41.3196 9.57789 41.7656 13.3899C42.5901 20.4392 42.5901 27.5606 41.7656 34.6099C41.3196 38.4219 38.2576 41.4119 34.4616 41.8379C27.5089 42.6087 20.4923 42.6087 13.5396 41.8379C9.74164 41.4119 6.67964 38.4219 6.23364 34.6119C5.4091 27.5619 5.4091 20.4399 6.23364 13.3899C6.67964 9.57789 9.74164 6.58789 13.5396 6.16389ZM32.8196 17.9599L34.4996 16.3539V15.9999H28.6956L24.5576 26.3199L19.8536 15.9999H13.7656V16.3539L15.7256 18.7139C15.8209 18.7992 15.8946 18.9058 15.9408 19.025C15.987 19.1442 16.0044 19.2727 15.9916 19.3999V28.6819C16.0196 28.8468 16.0085 29.0159 15.9592 29.1757C15.9099 29.3355 15.8237 29.4815 15.7076 29.6019L13.4996 32.2819V32.6319H19.7536V32.2799L17.5476 29.6039C17.4305 29.4837 17.3422 29.3383 17.2895 29.1789C17.2369 29.0196 17.2212 28.8503 17.2436 28.6839V20.6559L22.7336 32.6339H23.3736L28.0876 20.6559V30.2019C28.0876 30.4559 28.0876 30.5039 27.9196 30.6719L26.2236 32.3179V32.6699H34.4576V32.3179L32.8216 30.7099C32.7505 30.6561 32.6954 30.5839 32.6623 30.501C32.6291 30.4182 32.6192 30.3279 32.6336 30.2399V18.4299C32.6192 18.3419 32.6291 18.2516 32.6623 18.1687C32.6954 18.0859 32.7485 18.0137 32.8196 17.9599Z" fill="white"/>
</svg>
