<?xml version="1.0" encoding="UTF-8"?>
<svg id="Layer_2" data-name="Layer 2" xmlns="http://www.w3.org/2000/svg" viewBox="0 0 324.89 324.89">
  <defs>
    <style>
      .cls-1 {
        stroke-width: 4px;
      }

      .cls-1, .cls-2 {
        fill: none;
        stroke: #fff;
        stroke-miterlimit: 10;
      }

      .cls-2 {
        stroke-width: 8px;
      }

      .cls-3 {
        fill: #fff;
        stroke-width: 0px;
      }
    </style>
  </defs>
  <g id="logo">
    <g>
      <path class="cls-3" d="M158.31,59.69c-1.45.43-5.94,2.61-9.85,4.93-3.91,2.32-7.54,4.2-8.26,4.2-.58,0-2.61,1.45-4.35,3.19l-3.33,3.04,5.51,4.78c5.22,4.49,6.38,4.78,16.09,4.93h10.29l8.26-7.97c9.27-9.13,9.13-10-1.3-15.07-6.09-3.04-7.97-3.33-13.04-2.03Z"/>
      <path class="cls-3" d="M182.37,77.81c-10.87,11.74-12.61,14.64-12.17,19.71.43,4.93,2.17,6.09,21.3,14.2,2.46,1.01,8.84,3.91,14.35,6.23,15.36,6.96,16.38,4.78,9.27-19.71-3.19-11.3-8.26-19.27-12.03-19.27-1.01,0-3.33-1.16-5.22-2.75-6.96-5.36-9.27-5.07-15.51,1.59Z"/>
      <path class="cls-3" d="M103.82,89.98c-21.88,12.32-24.64,14.35-24.64,18.11,0,1.45-1.74,3.48-3.91,4.49-3.91,1.88-4.06,2.32-4.49,14.35l-.43,12.46,14.93,14.64c8.84,8.69,15.36,14.2,16.23,13.33,1.3-1.3-1.3-17.68-3.62-22.17-.72-1.3-2.32-2.46-3.48-2.46-3.77,0-7.97-7.25-7.97-13.77,0-4.2-.87-6.81-2.9-8.69-3.33-3.04-3.77-6.52-.72-6.52,1.16,0,4.2,1.3,6.81,2.9,7.25,4.35,19.42,3.91,29.13-1.01,16.96-8.69,18.11-9.71,18.69-17.39.58-6.67.29-7.25-5.8-13.19-3.48-3.33-6.81-6.09-7.39-6.09-.43.14-9.71,5.07-20.43,11.01Z"/>
      <path class="cls-3" d="M221.21,93.02c0,.72,1.59,5.65,3.62,11.16,3.33,9.56,5.36,12.46,8.84,12.46.72,0,3.33,1.88,5.51,4.2,3.77,4.06,4.06,4.93,3.33,12.75-.72,7.39-.29,9.42,3.77,17.39,7.1,14.35,8.26,12.61,8.26-12.32,0-27.1-1.16-29.56-18.11-39.71-11.16-6.52-15.22-8.12-15.22-5.94Z"/>
      <path class="cls-3" d="M165.56,114.18c-2.61,1.88-2.46,2.9,3.77,20.72,3.62,10.29,8.12,24.2,10,31.01l3.48,12.32,5.8.87c6.81,1.16,12.03-.58,13.19-4.06,1.45-4.49,12.46-25.65,14.78-28.4,2.17-2.32,2.17-3.04,0-7.25-1.3-2.61-2.75-5.94-3.19-7.68-.58-1.88-3.19-3.77-7.83-5.22-3.77-1.3-13.33-5.07-21.16-8.26-16.52-6.81-15.36-6.52-18.84-4.06Z"/>
      <path class="cls-3" d="M135.71,115.92c-.87,1.16-3.19,2.46-4.78,3.04-1.74.43-5.07,2.32-7.54,4.2-2.32,1.74-5.8,3.62-7.54,4.2-2.32.72-3.33,2.17-3.33,4.78,0,2.17-1.01,4.93-2.32,6.38-2.03,2.17-2.17,4.49-1.3,13.62.72,7.54,1.59,11.3,3.19,12.17,3.62,2.03,7.68.14,8.55-4.06,1.01-4.06,15.51-34.06,17.82-36.95.72-.87,1.74-3.33,2.32-5.65.72-2.9.58-3.91-1.16-3.91-1.16,0-2.9,1.01-3.91,2.17Z"/>
      <path class="cls-3" d="M148.75,121.86c-.87,2.03-1.45,4.35-1.45,5.22,0,.72-1.16,3.19-2.61,5.22-3.04,4.35-11.88,22.32-11.88,24.06,0,.58-1.3,2.75-2.9,4.78-3.77,4.78-3.62,6.67.72,13.19,2.03,2.9,3.62,6.67,3.62,8.55,0,4.78,1.45,7.68,4.06,7.68,1.3,0,6.81,1.45,12.32,3.19,9.85,3.19,10,3.19,11.45.43.87-1.59,4.06-5.36,7.25-8.26l5.51-5.36-8.55-25.8c-4.64-14.2-8.98-27.68-9.42-30.14-1.74-7.1-5.94-8.55-8.12-2.75Z"/>
      <path class="cls-3" d="M216.57,164.32l-9.56,18.98,4.2,5.22c2.32,2.9,4.93,7.83,5.94,10.87.87,3.19,2.32,5.65,3.19,5.8.87,0,8.84.14,17.53.14h15.94l.43-13.19c.43-14.49-1.01-18.98-10.14-30.29-2.61-3.19-6.09-8.12-7.68-10.72-1.88-3.04-4.35-4.93-6.67-5.22-3.48-.43-4.49,1.01-13.19,18.4Z"/>
      <path class="cls-3" d="M71.36,153.89c-1.16,1.16-.87,52.31.43,56.81,2.03,7.1,4.93,6.81,13.04-1.3,4.2-4.2,7.54-8.69,7.39-10,0-1.3-.29-7.68-.43-14.2-.29-10.58-.72-12.17-4.2-15.94-2.17-2.17-6.52-6.81-9.56-10.14-3.19-3.33-6.09-5.65-6.67-5.22Z"/>
      <path class="cls-3" d="M129.91,200.7c-.87,1.59-3.62,3.91-6.09,5.22l-4.49,2.32,1.01,15.94c.58,8.69,1.59,17.39,2.32,19.13,1.16,3.33,23.48,16.81,27.82,16.81,1.3,0,2.9-1.45,3.33-3.04.58-1.74,3.91-7.39,7.39-12.61,5.94-8.84,7.97-14.78,5.22-14.78-2.32,0-7.54-13.19-7.54-18.84,0-3.04-.58-6.09-1.45-6.52-1.74-1.01-21.74-6.38-24.2-6.52-1.01,0-2.46,1.3-3.33,2.9Z"/>
      <path class="cls-3" d="M91.22,214.03c-4.2,4.35-7.68,8.12-7.68,8.55,0,.29,3.04,2.32,6.96,4.2,3.77,2.03,7.1,4.06,7.54,4.49.43.58,3.62,2.32,7.1,4.06,7.83,4.06,10.29,2.61,7.68-4.64-1.01-2.61-1.74-7.83-1.74-11.3,0-7.83-2.17-11.16-7.97-12.17-3.77-.87-5.22,0-11.88,6.81Z"/>
      <path class="cls-3" d="M216.86,218.95c-4.06,9.42-3.77,13.33.87,14.49,2.61.72,5.65-.14,9.71-2.32,15.8-8.84,23.48-14.06,23.91-16.38.43-2.17-1.16-2.46-15.51-2.46h-15.94l-3.04,6.67Z"/>
      <path class="cls-3" d="M198.74,236.49c-3.91,1.45-8.55,1.88-14.64,1.3l-8.84-.72-3.33,6.09c-1.88,3.33-5.65,9.27-8.26,13.19-8.41,12.17-3.19,12.75,16.67,1.74,31.45-17.39,30.72-16.96,30.72-20.72s-3.62-4.2-12.32-.87Z"/>
    </g>
    <circle class="cls-1" cx="162.44" cy="162.44" r="136.99"/>
    <circle class="cls-2" cx="162.44" cy="162.44" r="158.44"/>
  </g>
</svg>