<?xml version="1.0" encoding="UTF-8"?>
<svg id="Layer_2" data-name="Layer 2" xmlns="http://www.w3.org/2000/svg" viewBox="0 0 872.7 590.18">
  <defs>
    <style>
      .cls-1 {
        fill: #3f3d56;
      }

      .cls-1, .cls-2, .cls-3, .cls-4, .cls-5, .cls-6, .cls-7, .cls-8, .cls-9, .cls-10 {
        stroke-width: 0px;
      }

      .cls-2 {
        fill: #ffb8b8;
      }

      .cls-3 {
        fill: #f2f2f2;
      }

      .cls-4 {
        fill: #2f2e41;
      }

      .cls-5 {
        fill: #e6e6e6;
      }

      .cls-6 {
        fill: #6c63ff;
      }

      .cls-7 {
        fill: #ffb6b6;
      }

      .cls-8 {
        fill: #fff;
      }

      .cls-9 {
        fill: #9e616a;
      }

      .cls-10 {
        fill: #e4e4e4;
      }
    </style>
  </defs>
  <g id="Layer_1-2" data-name="Layer 1">
    <path class="cls-3" d="M58.73,444.73c-4.14,0-8.3.17-12.35.52l-.59.05C18.89,447.68-.79,461.47.02,477.39l.16,2.88c.1,1.82.21,3.78.3,5.95.05,1.07,1.51,1.89,3.33,1.89h661.64c46.65-.28,93.13-.64,138.14-1.06,8.44.02,16.88-.42,25.27-1.31,12.51-1.48,21.19-4.41,26.55-8.97h0c6.66-5.65,6.87-12.77,6.47-20.8-.82-16.23-1.63-33.29-2.45-50.29-.72-14.98-1.43-29.93-2.14-44.23-.44-8.49-1.42-15.98-8.98-21.71-8.2-6.19-23.14-9.33-44.42-9.33-.26,0-.51,0-.77,0-66.7.24-132.78,23.17-164.45,57.07-3.65,3.9-7.04,8.08-10.33,12.12-4.86,5.97-9.87,12.14-15.86,17.66-3.24,3.03-6.75,5.76-10.48,8.17-.26.18-.55.37-.86.55-.71.46-1.46.91-2.18,1.31-4.25,2.45-8.72,4.49-13.36,6.08l-.47.16c-.35.13-.73.25-1.12.37-2.68.86-5.46,1.6-8.25,2.21-12.07,2.66-25.79,3.3-40.79,1.89-13.77-1.32-27.37-4.09-40.56-8.26-13.89-4.39-26.88-9.86-39.45-15.15-5.52-2.33-11.23-4.73-16.94-7.01-1.07-.43-2.13-.85-3.2-1.27-6.97-2.71-13.28-4.96-19.31-6.85-14.93-4.72-30.38-7.58-46.01-8.52-16.59-.91-31.21.8-43.44,5.08-3.37,1.17-6.66,2.59-9.83,4.23-14.49,7.52-23.42,18.63-32.06,29.37-10.74,13.36-21.85,27.17-43.79,34.33-25.31,8.27-62.26,4.83-88.4-1.14-8.22-1.88-16.43-4.04-24.37-6.13-3.21-.84-6.41-1.68-9.63-2.52-6.31-1.63-11.47-2.88-16.25-3.93l-1.51-.34c-.84-.18-1.68-.37-2.54-.54-5.67-1.19-10.96-2.13-16.16-2.87l-1.23-.18c-2.47-.33-4.78-.6-7.04-.82l-.9-.09c-4.43-.42-9.02-.63-13.62-.63Z"/>
    <path class="cls-5" d="M742.9,462.5c18.62-16.78,46.31-25.21,69.54-15.8-23.83,13.23-42.21,34.46-51.89,59.93-3.7,9.84-6.79,21.17-15.88,26.43-5.66,3.28-12.7,3.44-19.05,1.86-6.35-1.58-12.16-4.75-17.9-7.89l-1.63-.04c7.33-23.97,18.19-47.71,36.81-64.49Z"/>
    <path class="cls-8" d="M812.31,447.2c-20.57,2.66-39.78,11.73-54.91,25.93-3.31,3-6.13,6.5-8.35,10.38-2.04,3.85-3.01,8.17-2.82,12.52.1,4.06.67,8.2-.21,12.21-.98,4.14-3.68,7.66-7.42,9.69-4.55,2.61-9.76,3.44-14.89,4.07-5.69.7-11.62,1.33-16.54,4.52-.6.39-1.16-.56-.57-.95,8.57-5.55,19.42-3.53,28.64-7.24,4.3-1.73,8.11-4.77,9.45-9.36,1.18-4.01.59-8.28.45-12.39-.25-4.24.54-8.48,2.3-12.34,2.01-3.98,4.69-7.58,7.92-10.66,7.15-7.05,15.36-12.92,24.33-17.42,10.21-5.19,21.24-8.59,32.6-10.06.7-.09.71,1.01.01,1.1h0Z"/>
    <path class="cls-8" d="M762.01,468.27c-4.21-5.91-3.52-14,1.63-19.1.51-.5,1.31.26.8.76-4.81,4.75-5.44,12.29-1.48,17.77.42.58-.54,1.14-.95.57h0Z"/>
    <path class="cls-8" d="M745.92,493.97c7.07,1.25,14.35-.21,20.39-4.08.6-.38,1.16.56.57.95-6.3,4.02-13.88,5.53-21.23,4.21-.7-.13-.43-1.2.27-1.07Z"/>
    <path class="cls-8" d="M790.01,452.43c1.13,2.58,3.49,4.42,6.27,4.89.7.12.43,1.19-.27,1.07-3.07-.54-5.67-2.56-6.95-5.4-.15-.26-.06-.59.19-.76.26-.15.6-.07.76.19h0Z"/>
    <path class="cls-5" d="M838.02,527.6c-.44-.06-.88-.12-1.33-.18-5.93-.79-11.91-1.09-17.88-.91-.46,0-.93.02-1.39.04-14.39.59-28.55,3.85-41.75,9.61-5.25,2.3-10.32,4.99-15.16,8.06-6.69,4.23-13.6,9.36-21.08,11.08-.78.19-1.57.33-2.36.42l-30.89-26.75c-.04-.1-.09-.19-.13-.28l-1.28-1.01c.24-.18.49-.35.73-.53.14-.1.28-.2.42-.3.09-.07.19-.13.27-.2.03-.02.06-.04.09-.06.08-.07.16-.12.24-.18,1.4-.99,2.81-1.98,4.24-2.95t.02,0c10.76-7.55,22.37-13.79,34.6-18.6.37-.14.74-.28,1.12-.41,5.51-2.05,11.17-3.64,16.94-4.77,3.16-.61,6.35-1.05,9.55-1.33,8.28-.72,16.63-.12,24.72,1.75,16.14,3.74,30.91,12.61,39.66,26.43.22.35.44.7.66,1.06Z"/>
    <path class="cls-8" d="M837.61,527.93c-18.03-10.26-38.83-14.59-59.45-12.35-4.45.4-8.81,1.5-12.91,3.26-3.94,1.84-7.32,4.71-9.78,8.3-2.36,3.3-4.4,6.95-7.52,9.62-3.28,2.72-7.55,3.9-11.76,3.27-5.2-.65-9.86-3.13-14.33-5.72-4.96-2.87-10.08-5.93-15.93-6.35-.71-.05-.59-1.15.12-1.1,10.19.73,17.63,8.87,27.22,11.46,4.48,1.21,9.34,1.08,13.18-1.78,3.36-2.5,5.46-6.26,7.82-9.62,2.35-3.54,5.53-6.44,9.27-8.47,4-1.96,8.31-3.23,12.74-3.75,9.95-1.32,20.04-1.07,29.92.74,11.28,2.01,22.13,5.93,32.09,11.6.62.35-.04,1.24-.66.89h0Z"/>
    <path class="cls-8" d="M784.76,514.47c.2-7.25,5.62-13.29,12.81-14.27.7-.09.88,1,.18,1.09-6.7.9-11.74,6.54-11.88,13.3-.02.71-1.11.59-1.1-.12h0Z"/>
    <path class="cls-8" d="M756.44,525.3c4.89,5.26,11.58,8.48,18.74,9.02.71.05.59,1.15-.12,1.1-7.45-.58-14.41-3.94-19.48-9.42-.48-.52.38-1.21.86-.69Z"/>
    <path class="cls-8" d="M816.65,518.67c-.65,2.74.12,5.63,2.06,7.68.49.52-.37,1.21-.86.69-2.13-2.28-2.99-5.46-2.3-8.49.04-.3.31-.51.61-.49.3.03.52.31.49.61h0Z"/>
    <path class="cls-5" d="M255.54,479.18c15.24-23.12,42.51-39.85,69.98-36.25-21.8,20.78-35.56,48.6-38.82,78.54-1.22,11.55-1.37,24.53-9.63,32.69-5.14,5.08-12.63,7.21-19.85,7.28-7.23.07-14.33-1.7-21.34-3.46l-1.76.41c1.17-27.67,6.18-56.09,21.43-79.21Z"/>
    <path class="cls-8" d="M325.52,443.52c-21.26,8.57-39.29,23.62-51.51,43.01-2.71,4.13-4.74,8.66-6.04,13.42-1.11,4.68-.95,9.57.47,14.17,1.24,4.31,3,8.58,3.17,13.12.1,4.7-1.81,9.22-5.25,12.43-4.14,4.06-9.48,6.39-14.79,8.49-5.89,2.33-12.05,4.66-16.43,9.44-.53.58-1.4-.28-.87-.86,7.62-8.33,19.79-9.18,28.61-15.71,4.12-3.05,7.34-7.35,7.51-12.64.14-4.62-1.67-9.02-2.96-13.38-1.45-4.46-1.78-9.21-.97-13.84,1.05-4.81,2.91-9.41,5.5-13.6,5.68-9.52,12.83-18.1,21.18-25.4,9.48-8.39,20.33-15.1,32.07-19.83.73-.29,1.04.89.32,1.18h0Z"/>
    <path class="cls-8" d="M277.58,480.05c-6.15-5.15-7.66-13.99-3.57-20.89.4-.67,1.47-.08,1.07.59-3.82,6.42-2.39,14.66,3.36,19.42.6.5-.26,1.37-.86.87h0Z"/>
    <path class="cls-8" d="M267.53,512.01c7.91-.63,15.29-4.21,20.68-10.04.53-.58,1.4.28.87.86-5.61,6.05-13.3,9.77-21.54,10.4-.78.06-.79-1.16,0-1.22h0Z"/>
    <path class="cls-8" d="M303.12,455.31c1.93,2.45,4.96,3.76,8.07,3.49.78-.07.79,1.15,0,1.22-3.43.28-6.78-1.16-8.93-3.84-.23-.24-.23-.62,0-.86.24-.24.62-.24.86,0h0Z"/>
    <path class="cls-5" d="M375.38,522.35c-.49.06-.98.12-1.47.18-6.56.81-13.04,2.15-19.38,4-.49.14-.99.28-1.48.43-15.23,4.64-29.46,12.06-41.98,21.89-4.98,3.92-9.65,8.21-13.98,12.83-5.97,6.39-11.94,13.79-19.46,17.72-.78.42-1.58.79-2.41,1.11l-40.48-20.01c-.07-.09-.14-.17-.21-.27l-1.65-.73c.21-.25.43-.51.63-.77.12-.15.25-.29.37-.44.08-.1.17-.19.23-.29.03-.03.05-.06.08-.09.07-.09.14-.17.21-.25,1.22-1.45,2.46-2.9,3.71-4.34t.02-.01c9.54-10.95,20.08-21.2,31.83-29.52.35-.25.71-.51,1.08-.75,5.32-3.72,10.94-7,16.79-9.81,3.21-1.53,6.5-2.89,9.85-4.08,8.66-3.07,17.75-4.76,26.93-5,18.31-.49,36.57,4.89,49.77,17.24.34.32.67.63,1,.95Z"/>
    <path class="cls-8" d="M375.04,522.82c-22.14-5.96-45.59-4.8-67.02,3.33-4.65,1.67-9,4.06-12.9,7.08-3.71,3.07-6.52,7.07-8.16,11.6-1.61,4.19-2.77,8.66-5.37,12.38-2.75,3.82-6.99,6.28-11.67,6.76-5.75.75-11.42-.61-16.92-2.13-6.11-1.69-12.43-3.54-18.81-2.36-.77.14-.95-1.06-.18-1.21,11.1-2.06,21.33,4.58,32.31,4.68,5.12.05,10.29-1.45,13.6-5.57,2.9-3.6,4.1-8.21,5.69-12.47,1.53-4.44,4.12-8.43,7.55-11.64,3.74-3.21,7.99-5.76,12.58-7.55,10.27-4.18,21.14-6.72,32.2-7.53,12.62-.99,25.32.19,37.54,3.48.76.2.3,1.34-.46,1.13h0Z"/>
    <path class="cls-8" d="M314.76,523.12c-1.81-7.81,2.31-15.78,9.73-18.83.73-.3,1.22.82.49,1.12-6.91,2.82-10.74,10.26-9.01,17.53.18.76-1.03.94-1.21.18h0Z"/>
    <path class="cls-8" d="M287.49,542.59c6.69,4.26,14.75,5.84,22.55,4.43.77-.14.95,1.07.18,1.21-8.13,1.45-16.5-.21-23.46-4.66-.66-.42.07-1.4.73-.98Z"/>
    <path class="cls-8" d="M350.05,518.75c.07,3.12,1.7,5.99,4.34,7.64.67.42-.06,1.39-.73.98-2.91-1.84-4.71-5.01-4.82-8.45-.04-.33.19-.63.51-.69.33-.05.64.18.69.51Z"/>
    <path class="cls-7" d="M364.04,305.83c3.82-3.8,3.84-9.98.04-13.8-.41-.41-.85-.78-1.32-1.11l15.93-77.11-17.19,5.42-12.82,74.59c-2.81,4.63-1.33,10.67,3.3,13.48,3.88,2.35,8.86,1.74,12.05-1.48h0Z"/>
    <path class="cls-5" d="M400.86,99.72l-10.65-8.04s-9.39-.67-11.06,16.27-12.08,81.95-12.08,81.95l-16.29,75.46,22.55,4.95,17.45-81.44,17.47-56.18-7.4-32.98Z"/>
    <path class="cls-1" d="M392.75,239.35l-51.08-39.71c-1.66-1.29-1.96-3.68-.67-5.34l34.75-44.69c1.29-1.66,3.68-1.96,5.34-.67l51.08,39.71c1.66,1.29,1.96,3.68.67,5.34l-34.75,44.69c-1.29,1.66-3.68,1.96-5.34.67Z"/>
    <path class="cls-8" d="M392.47,235.24l-46.74-36.34c-1.47-1.15-1.74-3.27-.59-4.74l31.5-40.52c1.15-1.47,3.27-1.74,4.74-.59l46.74,36.34c1.47,1.15,1.74,3.27.59,4.74l-31.5,40.52c-1.15,1.47-3.27,1.74-4.74.59Z"/>
    <path class="cls-10" d="M351.86,197.87c-.37-.29-.43-.82-.15-1.18l15.89-20.44c.29-.37.82-.43,1.18-.15.37.29.43.82.15,1.18h0l-15.89,20.44c-.29.37-.82.43-1.18.15Z"/>
    <path class="cls-10" d="M354.49,199.92c-.37-.29-.43-.82-.15-1.18l15.89-20.44c.29-.37.82-.43,1.18-.15.37.29.43.82.15,1.18l-15.89,20.44c-.29.37-.82.43-1.18.15Z"/>
    <path class="cls-10" d="M366.13,190.38c-.37-.29-.43-.82-.15-1.18l6.89-8.86c.29-.37.82-.43,1.18-.15.37.29.43.82.15,1.18h0l-6.89,8.86c-.29.37-.82.43-1.18.15Z"/>
    <path class="cls-10" d="M369.68,207.77c-.37-.29-.43-.82-.15-1.18l25.09-32.27c.29-.37.82-.43,1.18-.15.37.29.43.82.15,1.18h0l-25.09,32.27c-.29.37-.82.43-1.18.15Z"/>
    <path class="cls-10" d="M372.31,209.82c-.37-.29-.43-.82-.15-1.18l25.09-32.27c.29-.37.82-.43,1.18-.15.37.29.43.82.15,1.18l-25.09,32.27c-.29.37-.82.43-1.18.15Z"/>
    <path class="cls-10" d="M378.29,214.47c-.37-.29-.43-.82-.15-1.18l25.09-32.27c.29-.37.82-.43,1.18-.15.37.29.43.82.15,1.18l-25.09,32.27c-.29.37-.82.43-1.18.15Z"/>
    <path class="cls-10" d="M380.93,216.52c-.37-.29-.43-.82-.15-1.18l25.09-32.27c.29-.37.82-.43,1.18-.15.37.29.43.82.15,1.18l-25.09,32.27c-.29.37-.82.43-1.18.15Z"/>
    <path class="cls-10" d="M386.91,221.17c-.37-.29-.43-.82-.15-1.18l25.09-32.27c.29-.37.82-.43,1.18-.15.37.29.43.82.15,1.18h0l-25.09,32.27c-.29.37-.82.43-1.18.15Z"/>
    <path class="cls-10" d="M389.54,223.21c-.37-.29-.43-.82-.15-1.18l25.09-32.27c.29-.37.82-.43,1.19-.14.37.29.43.81.15,1.18l-25.09,32.27c-.29.37-.82.43-1.18.15Z"/>
    <circle class="cls-8" cx="347.61" cy="260.34" r=".35"/>
    <path class="cls-4" d="M398.13,21.8c-1.22,6.55-3.22,12.93-5.96,19.01-15.67,33.16,28.96,22.35,44.91,22.35,17.44,0,34.13,9.17,31.58-31.58-1.09-17.41-14.14-31.58-31.58-31.58-14.9,0-35.84,6.62-38.96,21.8Z"/>
    <polygon class="cls-7" points="453.34 508.09 438.48 508.09 431.41 450.77 453.34 450.77 453.34 508.09"/>
    <path class="cls-4" d="M461.18,533.83h-10.66l-1.9-10.06-4.87,10.06h-28.26c-3.51,0-6.35-2.84-6.35-6.35,0-2.09,1.03-4.04,2.74-5.23l22.57-15.59v-10.17l23.74,1.42,2.99,35.92Z"/>
    <polygon class="cls-7" points="541.62 489.33 529.69 498.2 489.82 456.43 507.42 443.34 541.62 489.33"/>
    <path class="cls-4" d="M563.27,505.31l-8.55,6.36-7.53-6.94,2.09,10.98-22.68,16.86c-2.82,2.09-6.8,1.51-8.89-1.31-1.25-1.68-1.59-3.86-.92-5.83l8.81-25.98-6.07-8.16,19.89-13.03,23.84,27.04Z"/>
    <polygon class="cls-7" points="404.68 244.31 475.21 233.33 461.18 191.13 404.68 191.13 404.68 244.31"/>
    <path class="cls-4" d="M470.64,212.38s28.19,24.36,15.18,93.79l-15.88,68.04,43.27,75.12-22,12-53.32-74.11-24.4-57.23-12.91-100.3,70.05-17.31Z"/>
    <polygon class="cls-4" points="426.94 346.3 425.25 372.56 430.21 450.33 454.85 458.81 459.52 379.13 426.94 346.3"/>
    <path class="cls-5" d="M419.37,71.9l27.27,1.06,10.87,18.04,24.79,4.84-14.8,74.87,2.72,42.62-24.69-.15c-17.79-.11-35,6.35-48.31,18.15h0l.74-55.32-10.62-41.3,2.39-43.3,19.94-2.49,9.7-17.02Z"/>
    <circle class="cls-7" cx="434.47" cy="37.49" r="25.66"/>
    <path class="cls-4" d="M417.04,11.33c13.86-8.45,31.95-4.06,40.4,9.8,2.91,4.77,4.4,10.27,4.29,15.86-13.08,3.28-26.81,5.8-40.76.79l-3.29-8.06-1.94,8.07c-4.25,1.74-8.5,3.2-12.76-.02-.35-10.69,5-20.75,14.06-26.43Z"/>
    <path class="cls-6" d="M477.54,265.06l3.46,31.39c.49,1.61,1.98,2.71,3.66,2.71h15.95c1.68,0,3.17-1.1,3.66-2.71l2.87-24.06c2.89,1.41,6.37.22,7.79-2.66s.22-6.37-2.66-7.79c-1.12-.55-2.39-.72-3.62-.5-.72-.85-1.79-1.35-2.91-1.34h-24.52c-2.12,0-3.83,1.72-3.83,3.83,0,.38.06.76.17,1.13ZM507.64,270.77l1.75-5.7c.2-.66.22-1.36.06-2.03.08,0,.15-.02.22-.02,2.29,0,4.16,1.86,4.16,4.15,0,2.29-1.86,4.16-4.15,4.16h0c-.71,0-1.42-.2-2.03-.55Z"/>
    <path class="cls-7" d="M501.59,299.18c-3.8-3.82-3.79-10,.04-13.8.41-.41.85-.77,1.32-1.1l-15.54-77.19,17.16,5.51,12.44,74.66c2.79,4.65,1.28,10.68-3.37,13.46-3.89,2.33-8.87,1.7-12.05-1.54Z"/>
    <path class="cls-5" d="M471.64,103.87l10.65-8.04s9.39-.67,11.06,16.27,12.08,81.95,12.08,81.95l16.29,75.46-22.55,4.95-17.45-81.44-17.47-56.18,7.4-32.98Z"/>
    <circle class="cls-6" cx="379.74" cy="168.11" r="6.03"/>
    <polygon class="cls-7" points="187.55 578.01 200.11 578.01 206.08 529.56 187.54 529.56 187.55 578.01"/>
    <path class="cls-4" d="M184.34,573.9h3.54s13.8-5.61,13.8-5.61l7.4,5.61h0c8.71,0,15.76,7.06,15.76,15.76v.51h-40.5s0-16.28,0-16.28Z"/>
    <polygon class="cls-7" points="236.22 570.09 248.47 572.86 264.98 526.91 246.89 522.83 236.22 570.09"/>
    <path class="cls-4" d="M234,565.38l3.45.78,14.7-2.43,5.98,7.1h0c8.49,1.92,13.82,10.36,11.9,18.85l-.11.5-39.51-8.92,3.58-15.88Z"/>
    <path class="cls-4" d="M164.55,328.79l11.36,127.26s-4.26,76.4,9.48,103.29h19.92l9.86-110.26,1.24-74.01,42.7,62.44-27.2,120.03,24.51,2.19,44.13-130.26-48.49-122.28-87.51,21.61Z"/>
    <circle class="cls-2" cx="176.45" cy="96.84" r="29.29"/>
    <path class="cls-1" d="M227.94,154.05l-24.03-10.31-11.7-12.41-29.23,4.71-7.75,13.3-25.1,23.34,29.41,132.97-.89,29.04s18.82,8.47,100.45-11.04c.98-.23-1.07-1.26-1.07-1.26l-30.09-168.35Z"/>
    <path class="cls-4" d="M145.99,113.46c-.2-.28-.41-.56-.61-.84-.08.17-.14.35-.24.51l.84.33Z"/>
    <path class="cls-4" d="M205.58,75.41c-1.96-4.27-5.45-7.64-9.78-9.45-4.29-1.73-9.09-1.73-13.38.01-3.87-2.45-8.18-4.39-12.71-4.63s-9.32,1.44-12.12,5.14c-.62.98-1.33,1.9-2.12,2.75-2.24,2.08-5.66,1.78-8.64,1.35,1.34,1.15,2.68,2.29,4.02,3.44-1.62.42-3.24.85-4.86,1.27,1.89,1.15,3.78,2.29,5.67,3.44-5.49,3.29-7.98,10.48-7.32,17.01.62,6.18,3.61,11.84,7.18,16.86,1.42-3,1.12-6.6,1.09-9.98-.02-3.57.61-7.63,3.47-9.63,1.93-1.35,4.42-1.41,6.75-1.39,11.75.06,23.49.8,35.16,2.2,1.58.07,3.13.52,4.5,1.31,2.58,1.76,3.08,5.39,3.34,8.58,1.36-5.26,2.03-10.68,1.98-16.12.11-4.17-.65-8.31-2.24-12.16Z"/>
    <circle class="cls-8" cx="214.7" cy="371.89" r="46.11"/>
    <path class="cls-1" d="M214.7,324.77c-2.37,0-4.74.18-7.08.53-1.2.17-2.37.4-3.52.68-25.35,5.84-41.17,31.13-35.32,56.48,2.27,9.86,7.65,18.72,15.35,25.28.79.67,1.59,1.31,2.42,1.93,20.86,15.56,50.39,11.25,65.94-9.61s11.25-50.39-9.61-65.94c-8.14-6.07-18.02-9.35-28.18-9.34h0ZM214.7,416.98c-9.59.01-18.92-3.05-26.64-8.74-.84-.61-1.65-1.25-2.44-1.93-19.02-16.04-21.43-44.47-5.39-63.49,6.55-7.77,15.53-13.09,25.49-15.11,1.15-.24,2.29-.42,3.46-.56,1.83-.23,3.67-.34,5.51-.34,24.9,0,45.08,20.18,45.08,45.08s-20.18,45.08-45.08,45.08h0Z"/>
    <rect class="cls-6" x="189.09" y="356.53" width="51.23" height="6.15" rx="3" ry="3"/>
    <rect class="cls-6" x="189.09" y="368.82" width="51.23" height="6.15" rx="3" ry="3"/>
    <rect class="cls-6" x="189.09" y="381.12" width="51.23" height="6.15" rx="3" ry="3"/>
    <polygon class="cls-9" points="730.52 576.44 717.35 576.44 711.08 525.64 730.52 525.64 730.52 576.44"/>
    <polygon class="cls-9" points="668.21 576.44 655.04 576.44 648.77 525.64 668.21 525.64 668.21 576.44"/>
    <path class="cls-4" d="M668.67,590.18h-40.5v-.51c0-8.71,7.06-15.76,15.76-15.76h0l7.4-5.61,13.8,5.61h3.54s0,16.28,0,16.28Z"/>
    <path class="cls-4" d="M732.67,590.18h-40.5v-.51c0-8.71,7.06-15.76,15.76-15.76h0l7.4-5.61,13.8,5.61h3.54s0,16.28,0,16.28Z"/>
    <path class="cls-4" d="M655.29,275.78l-20.02,121.88,5.45,18.16-7.15,12.86,10.5,112.97-4.26,9.38,11.91,7.34h24.23l1.29-102.27,5.98-15.02v-8.28l12.18-62.36,2.24,87.34,3.54,15.04-2.98,10.71,3.89,7.5,10.33,69.57h27.17l-2.1-16.19h0c4.87-2.46,7.45-7.91,6.28-13.24l-1.56-7.09,3.54-20.98,6.46-117.02-1.82-94.42-31.78-24.3-63.32,8.41Z"/>
    <circle id="ab6171fa-7d69-4734-b81c-8dff60f9761b" class="cls-9" cx="701.18" cy="94.03" r="25.24"/>
    <path class="cls-9" d="M646.04,324.15c4.15-4.29,4.04-11.13-.25-15.28-.46-.44-.95-.84-1.48-1.2l9.81-37.11-18.91,6.36-6.42,34.27c-3.01,5.19-1.25,11.83,3.94,14.85,4.34,2.52,9.84,1.74,13.31-1.89h0Z"/>
    <path id="bc44dde2-a388-4b93-9ca4-c442728432a9-236" class="cls-5" d="M656.36,145.95l-4.06-.84-3.46,1.92s-9.67,12.89-9.67,24.71-11.82,125.69-11.82,125.69l21.49,9.67,17.19-89.17-9.67-71.98Z"/>
    <path id="bf427902-b9bf-4946-b5d7-5c1c7e04535e-237" class="cls-4" d="M723.28,75.52s6.6-12.62-7.92-13.77c0,0-12.38-11.23-25-2.05,0,0-6.88,0-10.65,7.79,0,0-5.41-2.05-6.6,3.44,0,0-3.96,11.47,0,21.8,3.96,10.32,5.28,11.47,5.28,11.47,0,0-6.51-21.65,9.33-22.79s33.57-11.05,34.89,1.57,3.31,15.73,3.31,15.73c0,0,12.54-18.02-2.64-23.19Z"/>
    <path class="cls-8" d="M815.48,428.69c-1.91,0-3.74-.7-5.16-1.97l-76.38-67.99c-3.2-2.86-3.49-7.77-.64-10.98l48.93-54.97c2.86-3.21,7.77-3.49,10.98-.64l76.38,67.99c3.21,2.86,3.49,7.77.64,10.98l-48.93,54.97c-1.37,1.55-3.3,2.48-5.36,2.59-.15,0-.31.01-.46.01Z"/>
    <path class="cls-1" d="M815.48,429.19c-2.03,0-3.98-.74-5.49-2.1l-76.38-67.99c-3.41-3.04-3.71-8.27-.68-11.69l48.93-54.97c3.04-3.41,8.27-3.71,11.69-.68l76.38,67.99c3.42,3.04,3.72,8.27.68,11.69l-48.93,54.97c-1.46,1.65-3.51,2.64-5.7,2.76-.16,0-.33.01-.49.01ZM788.04,291.67c-1.79,0-3.5.76-4.69,2.1l-48.93,54.97c-2.3,2.59-2.07,6.56.52,8.87l76.38,67.99c2.59,2.31,6.56,2.08,8.86-.51,0,0,0,0,0,0l48.93-54.97c2.31-2.59,2.08-6.56-.52-8.87l-76.38-67.99c-1.15-1.02-2.63-1.59-4.17-1.59h0Z"/>
    <path class="cls-6" d="M843.17,376.63c-.82,0-1.62-.3-2.24-.85l-59.96-53.37c-1.39-1.23-1.52-3.36-.29-4.75,1.23-1.39,3.36-1.52,4.75-.29,0,0,.01.01.02.02l59.96,53.37c1.39,1.24,1.51,3.36.28,4.75-.64.72-1.56,1.13-2.52,1.13Z"/>
    <path class="cls-6" d="M831.74,389.48c-.82,0-1.62-.3-2.24-.85l-59.96-53.37c-1.39-1.24-1.51-3.36-.28-4.75s3.36-1.51,4.75-.28h0l59.96,53.37c1.39,1.24,1.51,3.36.28,4.75-.64.72-1.56,1.13-2.52,1.13h0Z"/>
    <path class="cls-6" d="M820.3,402.33c-.83,0-1.62-.3-2.24-.85l-59.96-53.37c-1.39-1.24-1.51-3.36-.28-4.75s3.36-1.51,4.75-.28l59.96,53.37c1.39,1.24,1.51,3.36.28,4.75-.64.72-1.56,1.13-2.52,1.13h0Z"/>
    <path class="cls-9" d="M751.74,326.34c-2.91-5.21-1.04-11.79,4.17-14.7.56-.31,1.14-.57,1.74-.78l.06-38.39,16.64,11.01-2.61,34.77c1.58,5.79-1.84,11.76-7.62,13.34-4.84,1.32-9.96-.85-12.38-5.25Z"/>
    <path id="f348f81f-b961-4ae4-bc6b-758f6acfb12a-238" class="cls-5" d="M753.28,156.47l7.43-7.16,5.46,3.94s5.37,6.45,9.67,25.78,0,125.69,0,125.69l-23.63-3.22,3.22-55.86-9.67-47.27,7.52-41.9Z"/>
    <path class="cls-1" d="M764.25,151.06l-25.04-11.96-17-15.77-31-.23-10,13-26.4,8.97,4.4,91.03-3,7s2.09,1.89,3.04,2.94-1.32,9.9-1.32,9.9l-1.28,9.62,3.56,2.54-4.62,5.46-1.15,8.61s80.72-20.06,95.97,13.17c.81,1.76-1.18-15.4-1.18-15.4l-1.98-12.56,1.97-11.28,3-3-5.03-5.03,3.23-23.87,13.85-73.13Z"/>
    <path class="cls-2" d="M196.41,352.87c2.35-5.96-.58-12.7-6.54-15.04-.64-.25-1.29-.44-1.96-.58l-5.56-40.84-16.13,14.1,7.75,36.62c-.85,6.38,3.64,12.25,10.02,13.1,5.34.71,10.48-2.33,12.42-7.36Z"/>
    <path id="e1bf2fad-858c-4bea-9733-320cc40b59f5-239" class="cls-1" d="M133.22,171.93l-4.37.84-2.64,3.33s-4.27,16.77.59,28.48,40.08,129.5,40.08,129.5l25.29.73-19.7-95.49-39.25-67.38Z"/>
    <path class="cls-2" d="M232.92,346.87c-4.4-4.66-4.19-12,.46-16.4.5-.47,1.03-.89,1.6-1.27l-10.07-39.97,20.22,7.07,6.46,36.87c3.17,5.61,1.19,12.72-4.41,15.89-4.69,2.65-10.59,1.74-14.27-2.2Z"/>
    <path id="ff35f29e-9865-4218-824f-c5cf71e1b056-240" class="cls-1" d="M224.08,155.43l4.37-.85,3.69,2.1s10.22,13.96,10.07,26.65,11.1,135.1,11.1,135.1l-23.19,10.11-17.33-95.95,11.29-77.16Z"/>
    <path class="cls-5" d="M400.59,228.69l63.65-15.04s-42.56-11.1-63.65,15.04Z"/>
    <polyline class="cls-4" points="430.21 450.33 455.35 459.04 453.81 497.71 434.54 497.71"/>
    <polyline class="cls-4" points="489.82 459.9 513.62 449.11 540.09 480.88 522.58 490.53"/>
  </g>
</svg>